<svg width="1500" height="500" viewBox="0 0 1500 500" xmlns="http://www.w3.org/2000/svg"><defs><radialGradient id="rgbn" cx="0.12" cy="0.05" r="1.1"><stop offset="0" stop-color="#FF6A00" stop-opacity="0.16"/><stop offset="0.45" stop-color="#FF6A00" stop-opacity="0.04"/><stop offset="1" stop-color="#FF6A00" stop-opacity="0"/></radialGradient></defs><rect width="1500" height="500" fill="#0A0A0A"/><rect width="1500" height="500" fill="url(#rgbn)"/><rect x="3" y="3" width="1494" height="494" fill="none" stroke="#1E1E1E" stroke-width="2"/><polygon points="180.00,250.00 155.00,293.30 105.00,293.30 80.00,250.00 105.00,206.70 155.00,206.70" fill="#FF6A00" stroke="#FF6A00" stroke-width="9.0" stroke-linejoin="round"/><path transform="translate(102.37,270.70)" d="M22.376708984374996 0.5615234374999999Q16.424560546874996 0.5615234374999999 11.904296874999998 -2.0355224609374996Q7.384033203124999 -4.632568359374999 4.843139648437499 -9.433593749999998Q2.3022460937499996 -14.234619140624998 2.3022460937499996 -20.832519531249996Q2.3022460937499996 -27.683105468749996 4.983520507812499 -32.49816894531249Q7.664794921874999 -37.31323242187499 12.171020507812498 -39.85412597656249Q16.677246093749996 -42.39501953124999 22.264404296874996 -42.39501953124999Q25.886230468749996 -42.39501953124999 28.988647460937493 -41.35620117187499Q32.09106445312499 -40.31738281249999 34.51965332031249 -38.40820312499999Q36.94824218749999 -36.49902343749999 38.45031738281249 -33.90197753906249Q39.95239257812499 -31.304931640624996 40.34545898437499 -28.188476562499996H30.322265624999996Q29.957275390624996 -29.479980468749996 29.269409179687496 -30.504760742187496Q28.581542968749996 -31.529541015624996 27.570800781249996 -32.24548339843749Q26.560058593749996 -32.96142578124999 25.282592773437496 -33.32641601562499Q24.005126953124996 -33.69140624999999 22.432861328124996 -33.69140624999999Q19.400634765624996 -33.69140624999999 17.140502929687496 -32.20336914062499Q14.880371093749998 -30.715332031249996 13.659057617187498 -27.865600585937496Q12.437744140624998 -25.015869140624996 12.437744140624998 -20.972900390624996Q12.437744140624998 -16.901855468749996 13.630981445312498 -14.038085937499996Q14.824218749999998 -11.174316406249998 17.070312499999996 -9.658203124999998Q19.316406249999996 -8.142089843749998 22.460937499999996 -8.142089843749998Q25.296630859374996 -8.142089843749998 27.247924804687496 -9.068603515624998Q29.199218749999996 -9.995117187499998 30.209960937499996 -11.721801757812498Q31.220703124999996 -13.448486328124998 31.220703124999996 -15.778808593749998L33.10180664062499 -15.526123046874998H22.854003906249996V-22.797851562499996H40.79467773437499V-17.294921874999996Q40.79467773437499 -11.707763671874998 38.43627929687499 -7.706909179687499Q36.07788085937499 -3.7060546874999996 31.908569335937493 -1.5722656249999998Q27.739257812499996 0.5615234374999999 22.376708984374996 0.5615234374999999Z" fill="#FFFFFF"/><rect x="141.71" y="247.90" width="30.79" height="7.27" rx="3.64" fill="#FFFFFF"/><path transform="translate(207.50,266.56)" d="M17.9013671875 0.44921875Q13.1396484375 0.44921875 9.5234375 -1.62841796875Q5.9072265625 -3.7060546875 3.87451171875 -7.546875Q1.841796875 -11.3876953125 1.841796875 -16.666015625Q1.841796875 -22.146484375 3.98681640625 -25.99853515625Q6.1318359375 -29.8505859375 9.73681640625 -31.88330078125Q13.341796875 -33.916015625 17.8115234375 -33.916015625Q20.708984375 -33.916015625 23.19091796875 -33.0849609375Q25.6728515625 -32.25390625 27.61572265625 -30.7265625Q29.55859375 -29.19921875 30.76025390625 -27.12158203125Q31.9619140625 -25.0439453125 32.2763671875 -22.55078125H24.2578125Q23.9658203125 -23.583984375 23.41552734375 -24.40380859375Q22.865234375 -25.2236328125 22.056640625 -25.79638671875Q21.248046875 -26.369140625 20.22607421875 -26.6611328125Q19.2041015625 -26.953125 17.9462890625 -26.953125Q15.5205078125 -26.953125 13.71240234375 -25.7626953125Q11.904296875 -24.572265625 10.92724609375 -22.29248046875Q9.9501953125 -20.0126953125 9.9501953125 -16.7783203125Q9.9501953125 -13.521484375 10.90478515625 -11.23046875Q11.859375 -8.939453125 13.65625 -7.7265625Q15.453125 -6.513671875 17.96875 -6.513671875Q20.2373046875 -6.513671875 21.79833984375 -7.2548828125Q23.359375 -7.99609375 24.16796875 -9.37744140625Q24.9765625 -10.7587890625 24.9765625 -12.623046875L26.4814453125 -12.4208984375H18.283203125V-18.23828125H32.6357421875V-13.8359375Q32.6357421875 -9.3662109375 30.7490234375 -6.16552734375Q28.8623046875 -2.96484375 25.52685546875 -1.2578125Q22.19140625 0.44921875 17.9013671875 0.44921875Z M36.12796875 0.0 47.2910546875 -33.466796875H57.915078125L69.41507812500001 0.0H60.520546875L55.8711328125 -14.6220703125Q54.7480859375 -18.283203125 53.70365234375 -22.40478515625Q52.65921875 -26.5263671875 51.6035546875 -30.951171875H53.37796875Q52.3672265625 -26.50390625 51.4238671875 -22.38232421875Q50.4805078125 -18.2607421875 49.42484375 -14.6220703125L44.93265625 0.0ZM43.719765625 -7.1201171875V-13.1845703125H61.8457421875V-7.1201171875Z M73.5362109375 0.0V-33.466796875H87.2373828125Q91.0108203125 -33.466796875 93.7510546875 -32.10791015625Q96.4912890625 -30.7490234375 97.96248046875 -28.255859375Q99.433671875 -25.7626953125 99.433671875 -22.3486328125Q99.433671875 -18.912109375 97.9287890625 -16.47509765625Q96.42390625 -14.0380859375 93.63875 -12.7802734375Q90.85359375 -11.5224609375 87.0127734375 -11.5224609375H78.27546875V-17.7890625H85.5752734375Q87.43953125 -17.7890625 88.68611328125 -18.283203125Q89.9326953125 -18.77734375 90.57283203125 -19.7880859375Q91.21296875 -20.798828125 91.21296875 -22.3486328125Q91.21296875 -23.9208984375 90.57283203125 -24.9541015625Q89.9326953125 -25.9873046875 88.6748828125 -26.51513671875Q87.4170703125 -27.04296875 85.5528125 -27.04296875H81.464921875V0.0ZM91.9092578125 0.0 83.7559375 -15.2958984375H92.246171875L100.601640625 0.0Z M102.9034375 0.0 114.0665234375 -33.466796875H124.690546875L136.190546875 0.0H127.296015625L122.6466015625 -14.6220703125Q121.5235546875 -18.283203125 120.47912109375 -22.40478515625Q119.4346875 -26.5263671875 118.3790234375 -30.951171875H120.1534375Q119.1426953125 -26.50390625 118.1993359375 -22.38232421875Q117.2559765625 -18.2607421875 116.2003125 -14.6220703125L111.708125 0.0ZM110.495234375 -7.1201171875V-13.1845703125H128.6212109375V-7.1201171875Z M155.607578125 0.44921875Q150.845859375 0.44921875 147.2296484375 -1.62841796875Q143.6134375 -3.7060546875 141.58072265625 -7.546875Q139.5480078125 -11.3876953125 139.5480078125 -16.666015625Q139.5480078125 -22.146484375 141.69302734375 -25.99853515625Q143.838046875 -29.8505859375 147.44302734375 -31.88330078125Q151.0480078125 -33.916015625 155.517734375 -33.916015625Q158.4151953125 -33.916015625 160.89712890625 -33.0849609375Q163.3790625 -32.25390625 165.32193359375 -30.7265625Q167.2648046875 -29.19921875 168.46646484375 -27.12158203125Q169.668125 -25.0439453125 169.982578125 -22.55078125H161.9640234375Q161.67203125 -23.583984375 161.12173828125 -24.40380859375Q160.5714453125 -25.2236328125 159.7628515625 -25.79638671875Q158.9542578125 -26.369140625 157.93228515625 -26.6611328125Q156.9103125 -26.953125 155.6525 -26.953125Q153.22671875 -26.953125 151.41861328125 -25.7626953125Q149.6105078125 -24.572265625 148.63345703125 -22.29248046875Q147.65640625 -20.0126953125 147.65640625 -16.7783203125Q147.65640625 -13.521484375 148.61099609375 -11.23046875Q149.5655859375 -8.939453125 151.3624609375 -7.7265625Q153.1593359375 -6.513671875 155.6749609375 -6.513671875Q157.943515625 -6.513671875 159.50455078125 -7.2548828125Q161.0655859375 -7.99609375 161.8741796875 -9.37744140625Q162.6827734375 -10.7587890625 162.6827734375 -12.623046875L164.18765625 -12.4208984375H155.9894140625V-18.23828125H170.341953125V-13.8359375Q170.341953125 -9.3662109375 168.455234375 -6.16552734375Q166.568515625 -2.96484375 163.23306640625 -1.2578125Q159.8976171875 0.44921875 155.607578125 0.44921875Z M175.383984375 0.0V-33.466796875H198.60859375V-26.998046875H183.3126953125V-20.080078125H197.395703125V-13.74609375H183.3126953125V-6.46875H198.5861328125V0.0Z" fill="#FFFFFF"/><path transform="translate(416.61,266.56)" d="M14.5771484375 0.0H6.3115234375V-4.4921875H14.3076171875Q18.103515625 -4.4921875 20.619140625 -5.9072265625Q23.134765625 -7.322265625 24.392578125 -10.07373046875Q25.650390625 -12.8251953125 25.650390625 -16.7783203125Q25.650390625 -20.708984375 24.40380859375 -23.4267578125Q23.1572265625 -26.14453125 20.69775390625 -27.5595703125Q18.23828125 -28.974609375 14.5771484375 -28.974609375H6.1318359375V-33.466796875H14.9140625Q19.85546875 -33.466796875 23.3818359375 -31.4677734375Q26.908203125 -29.46875 28.794921875 -25.72900390625Q30.681640625 -21.9892578125 30.681640625 -16.7783203125Q30.681640625 -11.544921875 28.78369140625 -7.7939453125Q26.8857421875 -4.04296875 23.28076171875 -2.021484375Q19.67578125 0.0 14.5771484375 0.0ZM8.8271484375 -33.466796875V0.0H3.7060546875V-33.466796875Z M38.4827734375 0.0 50.3870703125 -33.466796875H56.6761328125L68.8050390625 0.0H63.2571875L56.743515625 -18.6201171875Q55.97984375 -20.888671875 55.07017578125 -23.9658203125Q54.1605078125 -27.04296875 52.970078125 -31.35546875H54.00328125Q52.8577734375 -26.998046875 51.94810546875 -23.88720703125Q51.0384375 -20.7763671875 50.3421484375 -18.6201171875L44.030625 0.0ZM44.9290625 -8.8271484375V-13.0947265625H62.3362890625V-8.8271484375Z M89.0270703125 0.5615234375Q85.27609375 0.5615234375 82.5133984375 -0.62890625Q79.750703125 -1.8193359375 78.18966796875 -4.03173828125Q76.6286328125 -6.244140625 76.47140625 -9.298828125H81.6149609375Q81.7721875 -7.4794921875 82.79416015625 -6.2890625Q83.8161328125 -5.0986328125 85.45578125 -4.5146484375Q87.0954296875 -3.9306640625 89.004609375 -3.9306640625Q91.1383984375 -3.9306640625 92.78927734375 -4.59326171875Q94.44015625 -5.255859375 95.4059765625 -6.47998046875Q96.371796875 -7.7041015625 96.371796875 -9.3212890625Q96.371796875 -10.78125 95.52951171875 -11.71337890625Q94.6872265625 -12.6455078125 93.26095703125 -13.26318359375Q91.8346875 -13.880859375 90.0153515625 -14.3525390625L86.1071484375 -15.4306640625Q81.996796875 -16.53125 79.69455078125 -18.6875Q77.3923046875 -20.84375 77.3923046875 -24.2802734375Q77.3923046875 -27.177734375 78.95333984375 -29.34521484375Q80.514375 -31.5126953125 83.19845703125 -32.71435546875Q85.8825390625 -33.916015625 89.2516796875 -33.916015625Q92.688203125 -33.916015625 95.30490234375 -32.71435546875Q97.9216015625 -31.5126953125 99.41525390625 -29.423828125Q100.90890625 -27.3349609375 100.9762890625 -24.662109375H95.9899609375Q95.742890625 -26.953125 93.86740234375 -28.2109375Q91.9919140625 -29.46875 89.139375 -29.46875Q87.117890625 -29.46875 85.62423828125 -28.83984375Q84.1305859375 -28.2109375 83.31076171875 -27.09912109375Q82.4909375 -25.9873046875 82.4909375 -24.572265625Q82.4909375 -22.9775390625 83.46798828125 -22.00048828125Q84.4450390625 -21.0234375 85.84884765625 -20.45068359375Q87.25265625 -19.8779296875 88.5329296875 -19.541015625L91.789765625 -18.6875Q93.3844921875 -18.283203125 95.08029296875 -17.59814453125Q96.77609375 -16.9130859375 98.21359375 -15.82373046875Q99.65109375 -14.734375 100.53830078125 -13.12841796875Q101.4255078125 -11.5224609375 101.4255078125 -9.25390625Q101.4255078125 -6.423828125 99.965546875 -4.2001953125Q98.5055859375 -1.9765625 95.73166015625 -0.70751953125Q92.957734375 0.5615234375 89.0270703125 0.5615234375Z M111.652421875 0.0V-33.466796875H116.773515625V-19.31640625H133.34968750000002V-33.466796875H138.49324218750002V0.0H133.34968750000002V-14.9140625H116.773515625V0.0Z" fill="#FF6A00"/><path transform="translate(808,238)" d="M11.6748046875 0.29296875Q8.5693359375 0.29296875 6.2109375 -1.06201171875Q3.8525390625 -2.4169921875 2.52685546875 -4.921875Q1.201171875 -7.4267578125 1.201171875 -10.869140625Q1.201171875 -14.443359375 2.60009765625 -16.95556640625Q3.9990234375 -19.4677734375 6.35009765625 -20.79345703125Q8.701171875 -22.119140625 11.6162109375 -22.119140625Q13.505859375 -22.119140625 15.12451171875 -21.5771484375Q16.7431640625 -21.03515625 18.01025390625 -20.0390625Q19.27734375 -19.04296875 20.06103515625 -17.68798828125Q20.8447265625 -16.3330078125 21.0498046875 -14.70703125H15.8203125Q15.6298828125 -15.380859375 15.27099609375 -15.91552734375Q14.912109375 -16.4501953125 14.384765625 -16.82373046875Q13.857421875 -17.197265625 13.19091796875 -17.3876953125Q12.5244140625 -17.578125 11.7041015625 -17.578125Q10.1220703125 -17.578125 8.94287109375 -16.8017578125Q7.763671875 -16.025390625 7.12646484375 -14.53857421875Q6.4892578125 -13.0517578125 6.4892578125 -10.9423828125Q6.4892578125 -8.818359375 7.11181640625 -7.32421875Q7.734375 -5.830078125 8.90625 -5.0390625Q10.078125 -4.248046875 11.71875 -4.248046875Q13.1982421875 -4.248046875 14.21630859375 -4.7314453125Q15.234375 -5.21484375 15.76171875 -6.11572265625Q16.2890625 -7.0166015625 16.2890625 -8.232421875L17.2705078125 -8.1005859375H11.923828125V-11.89453125H21.2841796875V-9.0234375Q21.2841796875 -6.1083984375 20.0537109375 -4.02099609375Q18.8232421875 -1.93359375 16.64794921875 -0.8203125Q14.47265625 0.29296875 11.6748046875 0.29296875Z M28.5427734375 0.29296875Q26.975390625 0.29296875 25.75224609375 -0.24169921875Q24.5291015625 -0.7763671875 23.840625 -1.85302734375Q23.1521484375 -2.9296875 23.1521484375 -4.541015625Q23.1521484375 -5.9033203125 23.62822265625 -6.8408203125Q24.104296875 -7.7783203125 24.95390625 -8.3642578125Q25.803515625 -8.9501953125 26.9021484375 -9.2578125Q28.00078125 -9.5654296875 29.2458984375 -9.66796875Q30.6375 -9.78515625 31.487109375000003 -9.92431640625Q32.33671875 -10.0634765625 32.7322265625 -10.341796875Q33.127734375 -10.6201171875 33.127734375 -11.1181640625V-11.1767578125Q33.127734375 -11.748046875 32.8640625 -12.1435546875Q32.600390625 -12.5390625 32.10234375 -12.744140625Q31.604296875 -12.94921875 30.901171875 -12.94921875Q30.198046875 -12.94921875 29.64873046875 -12.744140625Q29.0994140625 -12.5390625 28.7478515625 -12.158203125Q28.3962890625 -11.77734375 28.2498046875 -11.2646484375L23.6208984375 -11.865234375Q23.9431640625 -13.271484375 24.88798828125 -14.33349609375Q25.8328125 -15.3955078125 27.36357421875 -15.98876953125Q28.8943359375 -16.58203125 30.9451171875 -16.58203125Q32.4685546875 -16.58203125 33.79423828125 -16.22314453125Q35.119921875 -15.8642578125 36.116015625 -15.16845703125Q37.112109375 -14.47265625 37.66875 -13.45458984375Q38.225390625 -12.4365234375 38.225390625 -11.1181640625V0.0H33.420703125V-2.2998046875H33.2888671875Q32.8494140625 -1.4501953125 32.16826171875 -0.87890625Q31.487109375 -0.3076171875 30.58623046875 -0.00732421875Q29.6853515625 0.29296875 28.5427734375 0.29296875ZM30.0955078125 -3.0908203125Q30.959765625 -3.0908203125 31.655566406250003 -3.4423828125Q32.3513671875 -3.7939453125 32.7615234375 -4.4091796875Q33.1716796875 -5.0244140625 33.1716796875 -5.830078125V-7.3974609375Q32.951953125 -7.2802734375 32.62236328125 -7.177734375Q32.2927734375 -7.0751953125 31.897265625000003 -6.99462890625Q31.5017578125 -6.9140625 31.10625 -6.84814453125Q30.7107421875 -6.7822265625 30.34453125 -6.7236328125Q29.5974609375 -6.62109375 29.0701171875 -6.3720703125Q28.5427734375 -6.123046875 28.264453125 -5.7275390625Q27.9861328125 -5.33203125 27.9861328125 -4.775390625Q27.9861328125 -4.2333984375 28.264453125 -3.85986328125Q28.5427734375 -3.486328125 29.0115234375 -3.28857421875Q29.4802734375 -3.0908203125 30.0955078125 -3.0908203125Z M41.3091796875 0.0V-16.376953125H46.275V-13.388671875H46.45078125Q46.890234375 -15.0146484375 47.90830078125 -15.79833984375Q48.9263671875 -16.58203125 50.2740234375 -16.58203125Q50.6255859375 -16.58203125 51.01376953125 -16.5380859375Q51.401953125 -16.494140625 51.72421875 -16.40625V-11.953125Q51.3580078125 -12.0849609375 50.76474609375 -12.15087890625Q50.171484375 -12.216796875 49.702734375 -12.216796875Q48.765234375 -12.216796875 48.0181640625 -11.79931640625Q47.27109375 -11.3818359375 46.8462890625 -10.6494140625Q46.421484375 -9.9169921875 46.421484375 -8.935546875V0.0Z M58.191796874999994 0.29296875Q56.624414062499994 0.29296875 55.401269531249994 -0.24169921875Q54.178124999999994 -0.7763671875 53.489648437499994 -1.85302734375Q52.801171874999994 -2.9296875 52.801171874999994 -4.541015625Q52.801171874999994 -5.9033203125 53.277246093749994 -6.8408203125Q53.753320312499994 -7.7783203125 54.602929687499994 -8.3642578125Q55.452539062499994 -8.9501953125 56.551171874999994 -9.2578125Q57.649804687499994 -9.5654296875 58.894921874999994 -9.66796875Q60.286523437499994 -9.78515625 61.136132812499994 -9.92431640625Q61.985742187499994 -10.0634765625 62.381249999999994 -10.341796875Q62.776757812499994 -10.6201171875 62.776757812499994 -11.1181640625V-11.1767578125Q62.776757812499994 -11.748046875 62.513085937499994 -12.1435546875Q62.249414062499994 -12.5390625 61.751367187499994 -12.744140625Q61.253320312499994 -12.94921875 60.550195312499994 -12.94921875Q59.847070312499994 -12.94921875 59.297753906249994 -12.744140625Q58.748437499999994 -12.5390625 58.396874999999994 -12.158203125Q58.045312499999994 -11.77734375 57.898828124999994 -11.2646484375L53.269921874999994 -11.865234375Q53.592187499999994 -13.271484375 54.537011718749994 -14.33349609375Q55.481835937499994 -15.3955078125 57.012597656249994 -15.98876953125Q58.543359374999994 -16.58203125 60.594140624999994 -16.58203125Q62.117578124999994 -16.58203125 63.443261718749994 -16.22314453125Q64.7689453125 -15.8642578125 65.7650390625 -15.16845703125Q66.7611328125 -14.47265625 67.3177734375 -13.45458984375Q67.8744140625 -12.4365234375 67.8744140625 -11.1181640625V0.0H63.069726562499994V-2.2998046875H62.937890624999994Q62.498437499999994 -1.4501953125 61.817285156249994 -0.87890625Q61.136132812499994 -0.3076171875 60.235253906249994 -0.00732421875Q59.334374999999994 0.29296875 58.191796874999994 0.29296875ZM59.744531249999994 -3.0908203125Q60.608789062499994 -3.0908203125 61.304589843749994 -3.4423828125Q62.000390624999994 -3.7939453125 62.410546874999994 -4.4091796875Q62.820703124999994 -5.0244140625 62.820703124999994 -5.830078125V-7.3974609375Q62.600976562499994 -7.2802734375 62.271386718749994 -7.177734375Q61.941796874999994 -7.0751953125 61.546289062499994 -6.99462890625Q61.150781249999994 -6.9140625 60.755273437499994 -6.84814453125Q60.359765624999994 -6.7822265625 59.993554687499994 -6.7236328125Q59.246484374999994 -6.62109375 58.719140624999994 -6.3720703125Q58.191796874999994 -6.123046875 57.913476562499994 -5.7275390625Q57.635156249999994 -5.33203125 57.635156249999994 -4.775390625Q57.635156249999994 -4.2333984375 57.913476562499994 -3.85986328125Q58.191796874999994 -3.486328125 58.660546874999994 -3.28857421875Q59.129296874999994 -3.0908203125 59.744531249999994 -3.0908203125Z M78.5021484375 6.474609375Q76.3634765625 6.474609375 74.766796875 5.9326171875Q73.1701171875 5.390625 72.18134765625 4.423828125Q71.192578125 3.45703125 70.899609375 2.1826171875L75.3380859375 1.2744140625Q75.4845703125 1.7138671875 75.880078125 2.08740234375Q76.2755859375 2.4609375 76.9201171875 2.68798828125Q77.5646484375 2.9150390625 78.4728515625 2.9150390625Q80.040234375 2.9150390625 80.88251953125 2.2119140625Q81.7248046875 1.5087890625 81.7248046875 0.0439453125V-2.8564453125H81.329296875Q81.036328125 -2.1240234375 80.45771484375 -1.5234375Q79.8791015625 -0.9228515625 78.99287109375 -0.5712890625Q78.106640625 -0.2197265625 76.8908203125 -0.2197265625Q75.0890625 -0.2197265625 73.60224609375 -1.06201171875Q72.1154296875 -1.904296875 71.221875 -3.66943359375Q70.3283203125 -5.4345703125 70.3283203125 -8.1884765625Q70.3283203125 -11.0595703125 71.251171875 -12.919921875Q72.1740234375 -14.7802734375 73.66083984375 -15.68115234375Q75.14765625 -16.58203125 76.876171875 -16.58203125Q78.1798828125 -16.58203125 79.11005859375 -16.142578125Q80.040234375 -15.703125 80.64814453125 -15.00732421875Q81.2560546875 -14.3115234375 81.563671875 -13.564453125H81.71015625V-16.376953125H86.7638671875V-0.3662109375Q86.7638671875 1.8896484375 85.71650390625 3.4130859375Q84.669140625 4.9365234375 82.8087890625 5.70556640625Q80.9484375 6.474609375 78.5021484375 6.474609375ZM78.633984375 -3.9697265625Q79.6154296875 -3.9697265625 80.30390625 -4.4677734375Q80.9923828125 -4.9658203125 81.35859375 -5.92529296875Q81.7248046875 -6.884765625 81.7248046875 -8.203125Q81.7248046875 -9.55078125 81.35859375 -10.5322265625Q80.9923828125 -11.513671875 80.31123046875 -12.04833984375Q79.630078125 -12.5830078125 78.633984375 -12.5830078125Q77.6525390625 -12.5830078125 76.97138671875 -12.03369140625Q76.290234375 -11.484375 75.938671875 -10.5029296875Q75.587109375 -9.521484375 75.587109375 -8.203125Q75.587109375 -6.884765625 75.938671875 -5.9326171875Q76.290234375 -4.98046875 76.97138671875 -4.47509765625Q77.6525390625 -3.9697265625 78.633984375 -3.9697265625Z M97.46484375 0.3076171875Q94.9013671875 0.3076171875 93.041015625 -0.71044921875Q91.1806640625 -1.728515625 90.19189453125 -3.6181640625Q89.203125 -5.5078125 89.203125 -8.1298828125Q89.203125 -10.6494140625 90.19189453125 -12.5537109375Q91.1806640625 -14.4580078125 92.9970703125 -15.52001953125Q94.8134765625 -16.58203125 97.2744140625 -16.58203125Q99.0029296875 -16.58203125 100.44580078125 -16.0400390625Q101.888671875 -15.498046875 102.95068359375 -14.43603515625Q104.0126953125 -13.3740234375 104.59130859375 -11.8212890625Q105.169921875 -10.2685546875 105.169921875 -8.232421875V-6.943359375H91.01953125V-9.9169921875H102.73828125L100.3505859375 -9.2138671875Q100.3505859375 -10.3564453125 100.00634765625 -11.1767578125Q99.662109375 -11.9970703125 98.98828125 -12.4365234375Q98.314453125 -12.8759765625 97.318359375 -12.8759765625Q96.322265625 -12.8759765625 95.6337890625 -12.42919921875Q94.9453125 -11.982421875 94.58642578125 -11.18408203125Q94.2275390625 -10.3857421875 94.2275390625 -9.31640625V-7.177734375Q94.2275390625 -5.91796875 94.64501953125 -5.07568359375Q95.0625 -4.2333984375 95.8095703125 -3.81591796875Q96.556640625 -3.3984375 97.552734375 -3.3984375Q98.2412109375 -3.3984375 98.80517578125 -3.5888671875Q99.369140625 -3.779296875 99.77197265625 -4.16015625Q100.1748046875 -4.541015625 100.3798828125 -5.0830078125L104.935546875 -4.3359375Q104.525390625 -2.9296875 103.52197265625 -1.88232421875Q102.5185546875 -0.8349609375 100.98779296875 -0.263671875Q99.45703125 0.3076171875 97.46484375 0.3076171875Z M113.8130859375 0.0V-16.376953125H118.515234375L118.808203125 -12.12890625H118.456640625Q118.8375 -13.7255859375 119.59189453125 -14.70703125Q120.3462890625 -15.6884765625 121.34970703125 -16.142578125Q122.353125 -16.5966796875 123.46640625 -16.5966796875Q125.22421875 -16.5966796875 126.30087890625 -15.46875Q127.3775390625 -14.3408203125 127.9634765625 -11.77734375H127.3921875Q127.7876953125 -13.4912109375 128.6373046875 -14.560546875Q129.4869140625 -15.6298828125 130.6294921875 -16.11328125Q131.7720703125 -16.5966796875 133.0025390625 -16.5966796875Q134.540625 -16.5966796875 135.71982421875 -15.93017578125Q136.8990234375 -15.263671875 137.5728515625 -14.02587890625Q138.2466796875 -12.7880859375 138.2466796875 -11.044921875V0.0H133.1490234375V-9.8876953125Q133.1490234375 -11.1328125 132.49716796875 -11.77734375Q131.8453125 -12.421875 130.8345703125 -12.421875Q130.116796875 -12.421875 129.58212890625 -12.099609375Q129.0474609375 -11.77734375 128.769140625 -11.19873046875Q128.4908203125 -10.6201171875 128.4908203125 -9.8291015625V0.0H123.58359375V-9.9609375Q123.58359375 -11.0888671875 122.9537109375 -11.75537109375Q122.323828125 -12.421875 121.2984375 -12.421875Q120.5953125 -12.421875 120.06064453125 -12.099609375Q119.5259765625 -11.77734375 119.22568359375 -11.18408203125Q118.925390625 -10.5908203125 118.925390625 -9.7265625V0.0Z M145.9154296875 0.29296875Q144.348046875 0.29296875 143.12490234375 -0.24169921875Q141.9017578125 -0.7763671875 141.21328125 -1.85302734375Q140.5248046875 -2.9296875 140.5248046875 -4.541015625Q140.5248046875 -5.9033203125 141.00087890625 -6.8408203125Q141.476953125 -7.7783203125 142.3265625 -8.3642578125Q143.176171875 -8.9501953125 144.2748046875 -9.2578125Q145.3734375 -9.5654296875 146.6185546875 -9.66796875Q148.01015625 -9.78515625 148.859765625 -9.92431640625Q149.709375 -10.0634765625 150.1048828125 -10.341796875Q150.500390625 -10.6201171875 150.500390625 -11.1181640625V-11.1767578125Q150.500390625 -11.748046875 150.23671875 -12.1435546875Q149.973046875 -12.5390625 149.475 -12.744140625Q148.976953125 -12.94921875 148.273828125 -12.94921875Q147.570703125 -12.94921875 147.02138671875 -12.744140625Q146.4720703125 -12.5390625 146.1205078125 -12.158203125Q145.7689453125 -11.77734375 145.6224609375 -11.2646484375L140.9935546875 -11.865234375Q141.3158203125 -13.271484375 142.26064453125 -14.33349609375Q143.20546875 -15.3955078125 144.73623046875 -15.98876953125Q146.2669921875 -16.58203125 148.3177734375 -16.58203125Q149.8412109375 -16.58203125 151.16689453125 -16.22314453125Q152.492578125 -15.8642578125 153.488671875 -15.16845703125Q154.484765625 -14.47265625 155.04140625 -13.45458984375Q155.598046875 -12.4365234375 155.598046875 -11.1181640625V0.0H150.793359375V-2.2998046875H150.6615234375Q150.2220703125 -1.4501953125 149.54091796875 -0.87890625Q148.859765625 -0.3076171875 147.95888671875 -0.00732421875Q147.0580078125 0.29296875 145.9154296875 0.29296875ZM147.4681640625 -3.0908203125Q148.332421875 -3.0908203125 149.02822265625 -3.4423828125Q149.7240234375 -3.7939453125 150.1341796875 -4.4091796875Q150.5443359375 -5.0244140625 150.5443359375 -5.830078125V-7.3974609375Q150.324609375 -7.2802734375 149.99501953125 -7.177734375Q149.6654296875 -7.0751953125 149.269921875 -6.99462890625Q148.8744140625 -6.9140625 148.47890625 -6.84814453125Q148.0833984375 -6.7822265625 147.7171875 -6.7236328125Q146.9701171875 -6.62109375 146.4427734375 -6.3720703125Q145.9154296875 -6.123046875 145.637109375 -5.7275390625Q145.3587890625 -5.33203125 145.3587890625 -4.775390625Q145.3587890625 -4.2333984375 145.637109375 -3.85986328125Q145.9154296875 -3.486328125 146.3841796875 -3.28857421875Q146.8529296875 -3.0908203125 147.4681640625 -3.0908203125Z M163.79414062499998 -9.345703125V0.0H158.68183593749998V-16.376953125H163.48652343749998L163.58906249999998 -12.24609375H163.36933593749998Q163.96992187499998 -14.1943359375 165.25166015624998 -15.38818359375Q166.53339843749998 -16.58203125 168.70136718749998 -16.58203125Q170.41523437499998 -16.58203125 171.68964843749998 -15.8203125Q172.96406249999998 -15.05859375 173.66718749999998 -13.6669921875Q174.37031249999998 -12.275390625 174.37031249999998 -10.4296875V0.0H169.25800781249998V-9.43359375Q169.25800781249998 -10.810546875 168.55488281249998 -11.59423828125Q167.85175781249998 -12.3779296875 166.59199218749998 -12.3779296875Q165.77167968749998 -12.3779296875 165.13447265624998 -12.01904296875Q164.49726562499998 -11.66015625 164.14570312499998 -10.986328125Q163.79414062499998 -10.3125 163.79414062499998 -9.345703125Z M182.02441406249997 0.29296875Q180.45703124999997 0.29296875 179.23388671874997 -0.24169921875Q178.01074218749997 -0.7763671875 177.32226562499997 -1.85302734375Q176.63378906249997 -2.9296875 176.63378906249997 -4.541015625Q176.63378906249997 -5.9033203125 177.10986328124997 -6.8408203125Q177.58593749999997 -7.7783203125 178.43554687499997 -8.3642578125Q179.28515624999997 -8.9501953125 180.38378906249997 -9.2578125Q181.48242187499997 -9.5654296875 182.72753906249997 -9.66796875Q184.11914062499997 -9.78515625 184.96874999999997 -9.92431640625Q185.81835937499997 -10.0634765625 186.21386718749997 -10.341796875Q186.60937499999997 -10.6201171875 186.60937499999997 -11.1181640625V-11.1767578125Q186.60937499999997 -11.748046875 186.34570312499997 -12.1435546875Q186.08203124999997 -12.5390625 185.58398437499997 -12.744140625Q185.08593749999997 -12.94921875 184.38281249999997 -12.94921875Q183.67968749999997 -12.94921875 183.13037109374997 -12.744140625Q182.58105468749997 -12.5390625 182.22949218749997 -12.158203125Q181.87792968749997 -11.77734375 181.73144531249997 -11.2646484375L177.10253906249997 -11.865234375Q177.42480468749997 -13.271484375 178.36962890624997 -14.33349609375Q179.31445312499997 -15.3955078125 180.84521484374997 -15.98876953125Q182.37597656249997 -16.58203125 184.42675781249997 -16.58203125Q185.95019531249997 -16.58203125 187.27587890624997 -16.22314453125Q188.60156249999997 -15.8642578125 189.59765624999997 -15.16845703125Q190.59374999999997 -14.47265625 191.15039062499997 -13.45458984375Q191.70703124999997 -12.4365234375 191.70703124999997 -11.1181640625V0.0H186.90234374999997V-2.2998046875H186.77050781249997Q186.33105468749997 -1.4501953125 185.64990234374997 -0.87890625Q184.96874999999997 -0.3076171875 184.06787109374997 -0.00732421875Q183.16699218749997 0.29296875 182.02441406249997 0.29296875ZM183.57714843749997 -3.0908203125Q184.44140624999997 -3.0908203125 185.13720703124997 -3.4423828125Q185.83300781249997 -3.7939453125 186.24316406249997 -4.4091796875Q186.65332031249997 -5.0244140625 186.65332031249997 -5.830078125V-7.3974609375Q186.43359374999997 -7.2802734375 186.10400390624997 -7.177734375Q185.77441406249997 -7.0751953125 185.37890624999997 -6.99462890625Q184.98339843749997 -6.9140625 184.58789062499997 -6.84814453125Q184.19238281249997 -6.7822265625 183.82617187499997 -6.7236328125Q183.07910156249997 -6.62109375 182.55175781249997 -6.3720703125Q182.02441406249997 -6.123046875 181.74609374999997 -5.7275390625Q181.46777343749997 -5.33203125 181.46777343749997 -4.775390625Q181.46777343749997 -4.2333984375 181.74609374999997 -3.85986328125Q182.02441406249997 -3.486328125 182.49316406249997 -3.28857421875Q182.96191406249997 -3.0908203125 183.57714843749997 -3.0908203125Z M202.33476562499996 6.474609375Q200.19609374999996 6.474609375 198.59941406249996 5.9326171875Q197.00273437499996 5.390625 196.01396484374996 4.423828125Q195.02519531249996 3.45703125 194.73222656249996 2.1826171875L199.17070312499996 1.2744140625Q199.31718749999996 1.7138671875 199.71269531249996 2.08740234375Q200.10820312499996 2.4609375 200.75273437499996 2.68798828125Q201.39726562499996 2.9150390625 202.30546874999996 2.9150390625Q203.87285156249996 2.9150390625 204.71513671874996 2.2119140625Q205.55742187499996 1.5087890625 205.55742187499996 0.0439453125V-2.8564453125H205.16191406249996Q204.86894531249996 -2.1240234375 204.29033203124996 -1.5234375Q203.71171874999996 -0.9228515625 202.82548828124996 -0.5712890625Q201.93925781249996 -0.2197265625 200.72343749999996 -0.2197265625Q198.92167968749996 -0.2197265625 197.43486328124996 -1.06201171875Q195.94804687499996 -1.904296875 195.05449218749996 -3.66943359375Q194.16093749999996 -5.4345703125 194.16093749999996 -8.1884765625Q194.16093749999996 -11.0595703125 195.08378906249996 -12.919921875Q196.00664062499996 -14.7802734375 197.49345703124996 -15.68115234375Q198.98027343749996 -16.58203125 200.70878906249996 -16.58203125Q202.01249999999996 -16.58203125 202.94267578124996 -16.142578125Q203.87285156249996 -15.703125 204.48076171874996 -15.00732421875Q205.08867187499996 -14.3115234375 205.39628906249996 -13.564453125H205.54277343749996V-16.376953125H210.59648437499996V-0.3662109375Q210.59648437499996 1.8896484375 209.54912109374996 3.4130859375Q208.50175781249996 4.9365234375 206.64140624999996 5.70556640625Q204.78105468749996 6.474609375 202.33476562499996 6.474609375ZM202.46660156249996 -3.9697265625Q203.44804687499996 -3.9697265625 204.13652343749996 -4.4677734375Q204.82499999999996 -4.9658203125 205.19121093749996 -5.92529296875Q205.55742187499996 -6.884765625 205.55742187499996 -8.203125Q205.55742187499996 -9.55078125 205.19121093749996 -10.5322265625Q204.82499999999996 -11.513671875 204.14384765624996 -12.04833984375Q203.46269531249996 -12.5830078125 202.46660156249996 -12.5830078125Q201.48515624999996 -12.5830078125 200.80400390624996 -12.03369140625Q200.12285156249996 -11.484375 199.77128906249996 -10.5029296875Q199.41972656249996 -9.521484375 199.41972656249996 -8.203125Q199.41972656249996 -6.884765625 199.77128906249996 -5.9326171875Q200.12285156249996 -4.98046875 200.80400390624996 -4.47509765625Q201.48515624999996 -3.9697265625 202.46660156249996 -3.9697265625Z M221.29746093749995 0.3076171875Q218.73398437499995 0.3076171875 216.87363281249995 -0.71044921875Q215.01328124999995 -1.728515625 214.02451171874995 -3.6181640625Q213.03574218749995 -5.5078125 213.03574218749995 -8.1298828125Q213.03574218749995 -10.6494140625 214.02451171874995 -12.5537109375Q215.01328124999995 -14.4580078125 216.82968749999995 -15.52001953125Q218.64609374999995 -16.58203125 221.10703124999995 -16.58203125Q222.83554687499995 -16.58203125 224.27841796874995 -16.0400390625Q225.72128906249995 -15.498046875 226.78330078124995 -14.43603515625Q227.84531249999995 -13.3740234375 228.42392578124995 -11.8212890625Q229.00253906249995 -10.2685546875 229.00253906249995 -8.232421875V-6.943359375H214.85214843749995V-9.9169921875H226.57089843749995L224.18320312499995 -9.2138671875Q224.18320312499995 -10.3564453125 223.83896484374995 -11.1767578125Q223.49472656249995 -11.9970703125 222.82089843749995 -12.4365234375Q222.14707031249995 -12.8759765625 221.15097656249995 -12.8759765625Q220.15488281249995 -12.8759765625 219.46640624999995 -12.42919921875Q218.77792968749995 -11.982421875 218.41904296874995 -11.18408203125Q218.06015624999995 -10.3857421875 218.06015624999995 -9.31640625V-7.177734375Q218.06015624999995 -5.91796875 218.47763671874995 -5.07568359375Q218.89511718749995 -4.2333984375 219.64218749999995 -3.81591796875Q220.38925781249995 -3.3984375 221.38535156249995 -3.3984375Q222.07382812499995 -3.3984375 222.63779296874995 -3.5888671875Q223.20175781249995 -3.779296875 223.60458984374995 -4.16015625Q224.00742187499995 -4.541015625 224.21249999999995 -5.0830078125L228.76816406249995 -4.3359375Q228.35800781249995 -2.9296875 227.35458984374995 -1.88232421875Q226.35117187499995 -0.8349609375 224.82041015624995 -0.263671875Q223.28964843749995 0.3076171875 221.29746093749995 0.3076171875Z M231.38320312499994 0.0V-16.376953125H236.08535156249994L236.37832031249994 -12.12890625H236.02675781249994Q236.40761718749994 -13.7255859375 237.16201171874994 -14.70703125Q237.91640624999994 -15.6884765625 238.91982421874994 -16.142578125Q239.92324218749994 -16.5966796875 241.03652343749994 -16.5966796875Q242.79433593749994 -16.5966796875 243.87099609374994 -15.46875Q244.94765624999994 -14.3408203125 245.53359374999994 -11.77734375H244.96230468749994Q245.35781249999994 -13.4912109375 246.20742187499994 -14.560546875Q247.05703124999994 -15.6298828125 248.19960937499994 -16.11328125Q249.34218749999994 -16.5966796875 250.57265624999994 -16.5966796875Q252.11074218749994 -16.5966796875 253.28994140624994 -15.93017578125Q254.46914062499994 -15.263671875 255.14296874999994 -14.02587890625Q255.81679687499994 -12.7880859375 255.81679687499994 -11.044921875V0.0H250.71914062499994V-9.8876953125Q250.71914062499994 -11.1328125 250.06728515624994 -11.77734375Q249.41542968749994 -12.421875 248.40468749999994 -12.421875Q247.68691406249994 -12.421875 247.15224609374994 -12.099609375Q246.61757812499994 -11.77734375 246.33925781249994 -11.19873046875Q246.06093749999994 -10.6201171875 246.06093749999994 -9.8291015625V0.0H241.15371093749994V-9.9609375Q241.15371093749994 -11.0888671875 240.52382812499994 -11.75537109375Q239.89394531249994 -12.421875 238.86855468749994 -12.421875Q238.16542968749994 -12.421875 237.63076171874994 -12.099609375Q237.09609374999994 -11.77734375 236.79580078124994 -11.18408203125Q236.49550781249994 -10.5908203125 236.49550781249994 -9.7265625V0.0Z M266.53242187499995 0.3076171875Q263.96894531249995 0.3076171875 262.10859374999995 -0.71044921875Q260.24824218749995 -1.728515625 259.25947265624995 -3.6181640625Q258.27070312499995 -5.5078125 258.27070312499995 -8.1298828125Q258.27070312499995 -10.6494140625 259.25947265624995 -12.5537109375Q260.24824218749995 -14.4580078125 262.06464843749995 -15.52001953125Q263.88105468749995 -16.58203125 266.34199218749995 -16.58203125Q268.07050781249995 -16.58203125 269.51337890624995 -16.0400390625Q270.95624999999995 -15.498046875 272.01826171874995 -14.43603515625Q273.08027343749995 -13.3740234375 273.65888671874995 -11.8212890625Q274.23749999999995 -10.2685546875 274.23749999999995 -8.232421875V-6.943359375H260.08710937499995V-9.9169921875H271.80585937499995L269.41816406249995 -9.2138671875Q269.41816406249995 -10.3564453125 269.07392578124995 -11.1767578125Q268.72968749999995 -11.9970703125 268.05585937499995 -12.4365234375Q267.38203124999995 -12.8759765625 266.38593749999995 -12.8759765625Q265.38984374999995 -12.8759765625 264.70136718749995 -12.42919921875Q264.01289062499995 -11.982421875 263.65400390624995 -11.18408203125Q263.29511718749995 -10.3857421875 263.29511718749995 -9.31640625V-7.177734375Q263.29511718749995 -5.91796875 263.71259765624995 -5.07568359375Q264.13007812499995 -4.2333984375 264.87714843749995 -3.81591796875Q265.62421874999995 -3.3984375 266.62031249999995 -3.3984375Q267.30878906249995 -3.3984375 267.87275390624995 -3.5888671875Q268.43671874999995 -3.779296875 268.83955078124995 -4.16015625Q269.24238281249995 -4.541015625 269.44746093749995 -5.0830078125L274.00312499999995 -4.3359375Q273.59296874999995 -2.9296875 272.58955078124995 -1.88232421875Q271.58613281249995 -0.8349609375 270.05537109374995 -0.263671875Q268.52460937499995 0.3076171875 266.53242187499995 0.3076171875Z M281.73046874999994 -9.345703125V0.0H276.61816406249994V-16.376953125H281.42285156249994L281.52539062499994 -12.24609375H281.30566406249994Q281.90624999999994 -14.1943359375 283.18798828124994 -15.38818359375Q284.46972656249994 -16.58203125 286.63769531249994 -16.58203125Q288.35156249999994 -16.58203125 289.62597656249994 -15.8203125Q290.90039062499994 -15.05859375 291.60351562499994 -13.6669921875Q292.30664062499994 -12.275390625 292.30664062499994 -10.4296875V0.0H287.19433593749994V-9.43359375Q287.19433593749994 -10.810546875 286.49121093749994 -11.59423828125Q285.78808593749994 -12.3779296875 284.52832031249994 -12.3779296875Q283.70800781249994 -12.3779296875 283.07080078124994 -12.01904296875Q282.43359374999994 -11.66015625 282.08203124999994 -10.986328125Q281.73046874999994 -10.3125 281.73046874999994 -9.345703125Z M304.20878906249993 -16.376953125V-12.5830078125H293.98417968749993V-16.376953125ZM296.15214843749993 -20.2734375H301.26445312499993V-5.009765625Q301.26445312499993 -4.365234375 301.57207031249993 -4.05029296875Q301.87968749999993 -3.7353515625 302.56816406249993 -3.7353515625Q302.83183593749993 -3.7353515625 303.30791015624993 -3.7939453125Q303.78398437499993 -3.8525390625 303.98906249999993 -3.9111328125L304.64824218749993 -0.1904296875Q303.78398437499993 0.05859375 302.97832031249993 0.146484375Q302.17265624999993 0.234375 301.45488281249993 0.234375Q298.84746093749993 0.234375 297.49980468749993 -0.98876953125Q296.15214843749993 -2.2119140625 296.15214843749993 -4.5556640625Z M322.5199218749999 -16.376953125V-12.5830078125H311.4017578124999V-16.376953125ZM314.1556640624999 0.0V-17.255859375Q314.1556640624999 -19.130859375 314.8587890624999 -20.3759765625Q315.5619140624999 -21.62109375 316.8216796874999 -22.236328125Q318.0814453124999 -22.8515625 319.7220703124999 -22.8515625Q320.8060546874999 -22.8515625 321.7655273437499 -22.68310546875Q322.7249999999999 -22.5146484375 323.1644531249999 -22.3828125L322.3441406249999 -18.6474609375Q322.0511718749999 -18.720703125 321.6556640624999 -18.78662109375Q321.2601562499999 -18.8525390625 320.8646484374999 -18.8525390625Q319.9564453124999 -18.8525390625 319.5975585937499 -18.43505859375Q319.2386718749999 -18.017578125 319.2386718749999 -17.2998046875V0.0Z M332.3859374999999 0.3076171875Q329.8224609374999 0.3076171875 327.9767578124999 -0.75439453125Q326.1310546874999 -1.81640625 325.1422851562499 -3.71337890625Q324.1535156249999 -5.6103515625 324.1535156249999 -8.1298828125Q324.1535156249999 -10.6640625 325.1422851562499 -12.56103515625Q326.1310546874999 -14.4580078125 327.9767578124999 -15.52001953125Q329.8224609374999 -16.58203125 332.3859374999999 -16.58203125Q334.9494140624999 -16.58203125 336.7951171874999 -15.52001953125Q338.6408203124999 -14.4580078125 339.6222656249999 -12.56103515625Q340.6037109374999 -10.6640625 340.6037109374999 -8.1298828125Q340.6037109374999 -5.6103515625 339.6222656249999 -3.71337890625Q338.6408203124999 -1.81640625 336.7951171874999 -0.75439453125Q334.9494140624999 0.3076171875 332.3859374999999 0.3076171875ZM332.3859374999999 -3.603515625Q333.3673828124999 -3.603515625 334.0412109374999 -4.1748046875Q334.7150390624999 -4.74609375 335.0592773437499 -5.771484375Q335.4035156249999 -6.796875 335.4035156249999 -8.1591796875Q335.4035156249999 -9.521484375 335.0592773437499 -10.53955078125Q334.7150390624999 -11.5576171875 334.0412109374999 -12.1142578125Q333.3673828124999 -12.6708984375 332.3859374999999 -12.6708984375Q331.4044921874999 -12.6708984375 330.7306640624999 -12.1142578125Q330.0568359374999 -11.5576171875 329.7125976562499 -10.53955078125Q329.3683593749999 -9.521484375 329.3683593749999 -8.1591796875Q329.3683593749999 -6.796875 329.7125976562499 -5.771484375Q330.0568359374999 -4.74609375 330.7306640624999 -4.1748046875Q331.4044921874999 -3.603515625 332.3859374999999 -3.603515625Z M343.0576171874999 0.0V-16.376953125H348.0234374999999V-13.388671875H348.1992187499999Q348.6386718749999 -15.0146484375 349.6567382812499 -15.79833984375Q350.6748046874999 -16.58203125 352.0224609374999 -16.58203125Q352.3740234374999 -16.58203125 352.7622070312499 -16.5380859375Q353.1503906249999 -16.494140625 353.4726562499999 -16.40625V-11.953125Q353.1064453124999 -12.0849609375 352.5131835937499 -12.15087890625Q351.9199218749999 -12.216796875 351.4511718749999 -12.216796875Q350.5136718749999 -12.216796875 349.7666015624999 -11.79931640625Q349.0195312499999 -11.3818359375 348.5947265624999 -10.6494140625Q348.1699218749999 -9.9169921875 348.1699218749999 -8.935546875V0.0Z M370.83164062499986 0.2783203125Q368.07773437499986 0.2783203125 366.00498046874986 -0.71044921875Q363.93222656249986 -1.69921875 362.78232421874986 -3.50830078125Q361.63242187499986 -5.3173828125 361.63242187499986 -7.7490234375V-21.826171875H366.80332031249986V-8.173828125Q366.80332031249986 -7.03125 367.31601562499986 -6.1376953125Q367.82871093749986 -5.244140625 368.72958984374986 -4.73876953125Q369.63046874999986 -4.2333984375 370.83164062499986 -4.2333984375Q372.03281249999986 -4.2333984375 372.94833984374986 -4.73876953125Q373.86386718749986 -5.244140625 374.36923828124986 -6.1376953125Q374.87460937499986 -7.03125 374.87460937499986 -8.173828125V-21.826171875H380.04550781249986V-7.7490234375Q380.04550781249986 -5.3173828125 378.88828124999986 -3.50830078125Q377.73105468749986 -1.69921875 375.65830078124986 -0.71044921875Q373.58554687499986 0.2783203125 370.83164062499986 0.2783203125Z M387.02578124999985 -4.4091796875V-8.9208984375Q387.65566406249985 -10.2099609375 388.27089843749985 -11.279296875Q388.88613281249985 -12.3486328125 389.65517578124985 -13.4326171875Q390.42421874999985 -14.5166015625 391.49355468749985 -15.8642578125L396.35683593749985 -21.826171875H402.56777343749985L393.39785156249985 -10.8837890625L392.92910156249985 -11.07421875ZM383.14394531249985 0.0V-21.826171875H388.31484374999985V-16.46484375L388.21230468749985 -10.5615234375L388.31484374999985 -8.0419921875V0.0ZM396.79628906249985 0.0 390.89296874999985 -9.3310546875 394.15957031249985 -13.154296875 402.87539062499985 0.0Z M411.24023437499983 0.0V-16.376953125H416.35253906249983V0.0ZM413.78906249999983 -18.2958984375Q412.70507812499983 -18.2958984375 411.92871093749983 -19.02099609375Q411.15234374999983 -19.74609375 411.15234374999983 -20.7568359375Q411.15234374999983 -21.7822265625 411.92871093749983 -22.5Q412.70507812499983 -23.2177734375 413.78906249999983 -23.2177734375Q414.88769531249983 -23.2177734375 415.66406249999983 -22.50732421875Q416.44042968749983 -21.796875 416.44042968749983 -20.7568359375Q416.44042968749983 -19.7314453125 415.66406249999983 -19.013671875Q414.88769531249983 -18.2958984375 413.78906249999983 -18.2958984375Z M424.5486328124998 -9.345703125V0.0H419.4363281249998V-16.376953125H424.2410156249998L424.3435546874998 -12.24609375H424.1238281249998Q424.7244140624998 -14.1943359375 426.0061523437498 -15.38818359375Q427.2878906249998 -16.58203125 429.4558593749998 -16.58203125Q431.1697265624998 -16.58203125 432.4441406249998 -15.8203125Q433.7185546874998 -15.05859375 434.4216796874998 -13.6669921875Q435.1248046874998 -12.275390625 435.1248046874998 -10.4296875V0.0H430.0124999999998V-9.43359375Q430.0124999999998 -10.810546875 429.3093749999998 -11.59423828125Q428.6062499999998 -12.3779296875 427.3464843749998 -12.3779296875Q426.5261718749998 -12.3779296875 425.8889648437498 -12.01904296875Q425.2517578124998 -11.66015625 424.9001953124998 -10.986328125Q424.5486328124998 -10.3125 424.5486328124998 -9.345703125Z M444.1265624999998 0.234375Q442.3101562499998 0.234375 440.8160156249998 -0.71044921875Q439.3218749999998 -1.6552734375 438.4429687499998 -3.52294921875Q437.5640624999998 -5.390625 437.5640624999998 -8.173828125Q437.5640624999998 -11.044921875 438.4795898437498 -12.91259765625Q439.3951171874998 -14.7802734375 440.8819335937498 -15.68115234375Q442.3687499999998 -16.58203125 444.0826171874998 -16.58203125Q445.3863281249998 -16.58203125 446.3091796874998 -16.13525390625Q447.2320312499998 -15.6884765625 447.8252929687498 -15.0Q448.4185546874998 -14.3115234375 448.7261718749998 -13.564453125H448.8433593749998V-21.826171875H453.9410156249998V0.0H448.9019531249998V-2.6513671875H448.7261718749998Q448.4039062499998 -1.9189453125 447.7959960937498 -1.259765625Q447.1880859374998 -0.6005859375 446.2872070312498 -0.18310546875Q445.3863281249998 0.234375 444.1265624999998 0.234375ZM445.8697265624998 -3.75Q446.8365234374998 -3.75 447.5323242187498 -4.29931640625Q448.2281249999998 -4.8486328125 448.5943359374998 -5.8447265625Q448.9605468749998 -6.8408203125 448.9605468749998 -8.173828125Q448.9605468749998 -9.5361328125 448.5943359374998 -10.52490234375Q448.2281249999998 -11.513671875 447.5323242187498 -12.04833984375Q446.8365234374998 -12.5830078125 445.8697265624998 -12.5830078125Q444.8882812499998 -12.5830078125 444.2071289062498 -12.03369140625Q443.5259765624998 -11.484375 443.1744140624998 -10.49560546875Q442.8228515624998 -9.5068359375 442.8228515624998 -8.173828125Q442.8228515624998 -6.85546875 443.1744140624998 -5.85205078125Q443.5259765624998 -4.8486328125 444.2071289062498 -4.29931640625Q444.8882812499998 -3.75 445.8697265624998 -3.75Z M464.6566406249998 0.3076171875Q462.0931640624998 0.3076171875 460.2328124999998 -0.71044921875Q458.3724609374998 -1.728515625 457.3836914062498 -3.6181640625Q456.3949218749998 -5.5078125 456.3949218749998 -8.1298828125Q456.3949218749998 -10.6494140625 457.3836914062498 -12.5537109375Q458.3724609374998 -14.4580078125 460.1888671874998 -15.52001953125Q462.0052734374998 -16.58203125 464.4662109374998 -16.58203125Q466.1947265624998 -16.58203125 467.6375976562498 -16.0400390625Q469.0804687499998 -15.498046875 470.1424804687498 -14.43603515625Q471.2044921874998 -13.3740234375 471.7831054687498 -11.8212890625Q472.3617187499998 -10.2685546875 472.3617187499998 -8.232421875V-6.943359375H458.2113281249998V-9.9169921875H469.9300781249998L467.5423828124998 -9.2138671875Q467.5423828124998 -10.3564453125 467.1981445312498 -11.1767578125Q466.8539062499998 -11.9970703125 466.1800781249998 -12.4365234375Q465.5062499999998 -12.8759765625 464.5101562499998 -12.8759765625Q463.5140624999998 -12.8759765625 462.8255859374998 -12.42919921875Q462.1371093749998 -11.982421875 461.7782226562498 -11.18408203125Q461.4193359374998 -10.3857421875 461.4193359374998 -9.31640625V-7.177734375Q461.4193359374998 -5.91796875 461.8368164062498 -5.07568359375Q462.2542968749998 -4.2333984375 463.0013671874998 -3.81591796875Q463.7484374999998 -3.3984375 464.7445312499998 -3.3984375Q465.4330078124998 -3.3984375 465.9969726562498 -3.5888671875Q466.5609374999998 -3.779296875 466.9637695312498 -4.16015625Q467.3666015624998 -4.541015625 467.5716796874998 -5.0830078125L472.1273437499998 -4.3359375Q471.7171874999998 -2.9296875 470.7137695312498 -1.88232421875Q469.7103515624998 -0.8349609375 468.1795898437498 -0.263671875Q466.6488281249998 0.3076171875 464.6566406249998 0.3076171875Z M474.7423828124998 6.123046875V-16.376953125H479.7960937499998V-13.564453125H479.9718749999998Q480.2794921874998 -14.3115234375 480.8727539062498 -15.0Q481.4660156249998 -15.6884765625 482.3815429687498 -16.13525390625Q483.2970703124998 -16.58203125 484.6007812499998 -16.58203125Q486.3292968749998 -16.58203125 487.8161132812498 -15.68115234375Q489.3029296874998 -14.7802734375 490.2184570312498 -12.91259765625Q491.1339843749998 -11.044921875 491.1339843749998 -8.173828125Q491.1339843749998 -5.390625 490.2550781249998 -3.52294921875Q489.3761718749998 -1.6552734375 487.8820312499998 -0.71044921875Q486.3878906249998 0.234375 484.5714843749998 0.234375Q483.3263671874998 0.234375 482.4108398437498 -0.18310546875Q481.4953124999998 -0.6005859375 480.8947265624998 -1.259765625Q480.2941406249998 -1.9189453125 479.9718749999998 -2.6513671875H479.8546874999998V6.123046875ZM482.8283203124998 -3.75Q483.8097656249998 -3.75 484.4909179687498 -4.29931640625Q485.1720703124998 -4.8486328125 485.5236328124998 -5.85205078125Q485.8751953124998 -6.85546875 485.8751953124998 -8.173828125Q485.8751953124998 -9.5068359375 485.5236328124998 -10.49560546875Q485.1720703124998 -11.484375 484.4982421874998 -12.03369140625Q483.8244140624998 -12.5830078125 482.8283203124998 -12.5830078125Q481.8468749999998 -12.5830078125 481.1583984374998 -12.04833984375Q480.4699218749998 -11.513671875 480.1037109374998 -10.52490234375Q479.7374999999998 -9.5361328125 479.7374999999998 -8.173828125Q479.7374999999998 -6.8408203125 480.1037109374998 -5.8447265625Q480.4699218749998 -4.8486328125 481.1657226562498 -4.29931640625Q481.8615234374998 -3.75 482.8283203124998 -3.75Z M501.2050781249998 0.3076171875Q498.6416015624998 0.3076171875 496.7812499999998 -0.71044921875Q494.9208984374998 -1.728515625 493.9321289062498 -3.6181640625Q492.9433593749998 -5.5078125 492.9433593749998 -8.1298828125Q492.9433593749998 -10.6494140625 493.9321289062498 -12.5537109375Q494.9208984374998 -14.4580078125 496.7373046874998 -15.52001953125Q498.5537109374998 -16.58203125 501.0146484374998 -16.58203125Q502.7431640624998 -16.58203125 504.1860351562498 -16.0400390625Q505.6289062499998 -15.498046875 506.6909179687498 -14.43603515625Q507.7529296874998 -13.3740234375 508.3315429687498 -11.8212890625Q508.9101562499998 -10.2685546875 508.9101562499998 -8.232421875V-6.943359375H494.7597656249998V-9.9169921875H506.4785156249998L504.0908203124998 -9.2138671875Q504.0908203124998 -10.3564453125 503.7465820312498 -11.1767578125Q503.4023437499998 -11.9970703125 502.7285156249998 -12.4365234375Q502.0546874999998 -12.8759765625 501.0585937499998 -12.8759765625Q500.0624999999998 -12.8759765625 499.3740234374998 -12.42919921875Q498.6855468749998 -11.982421875 498.3266601562498 -11.18408203125Q497.9677734374998 -10.3857421875 497.9677734374998 -9.31640625V-7.177734375Q497.9677734374998 -5.91796875 498.3852539062498 -5.07568359375Q498.8027343749998 -4.2333984375 499.5498046874998 -3.81591796875Q500.2968749999998 -3.3984375 501.2929687499998 -3.3984375Q501.9814453124998 -3.3984375 502.5454101562498 -3.5888671875Q503.1093749999998 -3.779296875 503.5122070312498 -4.16015625Q503.9150390624998 -4.541015625 504.1201171874998 -5.0830078125L508.6757812499998 -4.3359375Q508.2656249999998 -2.9296875 507.2622070312498 -1.88232421875Q506.2587890624998 -0.8349609375 504.7280273437498 -0.263671875Q503.1972656249998 0.3076171875 501.2050781249998 0.3076171875Z M516.4031249999998 -9.345703125V0.0H511.29082031249976V-16.376953125H516.0955078124998L516.1980468749998 -12.24609375H515.9783203124998Q516.5789062499998 -14.1943359375 517.8606445312498 -15.38818359375Q519.1423828124998 -16.58203125 521.3103515624998 -16.58203125Q523.0242187499998 -16.58203125 524.2986328124998 -15.8203125Q525.5730468749998 -15.05859375 526.2761718749998 -13.6669921875Q526.9792968749998 -12.275390625 526.9792968749998 -10.4296875V0.0H521.8669921874998V-9.43359375Q521.8669921874998 -10.810546875 521.1638671874998 -11.59423828125Q520.4607421874998 -12.3779296875 519.2009765624998 -12.3779296875Q518.3806640624998 -12.3779296875 517.7434570312498 -12.01904296875Q517.1062499999998 -11.66015625 516.7546874999998 -10.986328125Q516.4031249999998 -10.3125 516.4031249999998 -9.345703125Z M535.9810546874997 0.234375Q534.1646484374997 0.234375 532.6705078124997 -0.71044921875Q531.1763671874997 -1.6552734375 530.2974609374997 -3.52294921875Q529.4185546874997 -5.390625 529.4185546874997 -8.173828125Q529.4185546874997 -11.044921875 530.3340820312497 -12.91259765625Q531.2496093749997 -14.7802734375 532.7364257812497 -15.68115234375Q534.2232421874997 -16.58203125 535.9371093749997 -16.58203125Q537.2408203124997 -16.58203125 538.1636718749997 -16.13525390625Q539.0865234374997 -15.6884765625 539.6797851562497 -15.0Q540.2730468749997 -14.3115234375 540.5806640624997 -13.564453125H540.6978515624997V-21.826171875H545.7955078124997V0.0H540.7564453124997V-2.6513671875H540.5806640624997Q540.2583984374997 -1.9189453125 539.6504882812497 -1.259765625Q539.0425781249997 -0.6005859375 538.1416992187497 -0.18310546875Q537.2408203124997 0.234375 535.9810546874997 0.234375ZM537.7242187499997 -3.75Q538.6910156249997 -3.75 539.3868164062497 -4.29931640625Q540.0826171874997 -4.8486328125 540.4488281249997 -5.8447265625Q540.8150390624997 -6.8408203125 540.8150390624997 -8.173828125Q540.8150390624997 -9.5361328125 540.4488281249997 -10.52490234375Q540.0826171874997 -11.513671875 539.3868164062497 -12.04833984375Q538.6910156249997 -12.5830078125 537.7242187499997 -12.5830078125Q536.7427734374997 -12.5830078125 536.0616210937497 -12.03369140625Q535.3804687499997 -11.484375 535.0289062499997 -10.49560546875Q534.6773437499997 -9.5068359375 534.6773437499997 -8.173828125Q534.6773437499997 -6.85546875 535.0289062499997 -5.85205078125Q535.3804687499997 -4.8486328125 536.0616210937497 -4.29931640625Q536.7427734374997 -3.75 537.7242187499997 -3.75Z M556.5111328124998 0.3076171875Q553.9476562499998 0.3076171875 552.0873046874998 -0.71044921875Q550.2269531249998 -1.728515625 549.2381835937498 -3.6181640625Q548.2494140624998 -5.5078125 548.2494140624998 -8.1298828125Q548.2494140624998 -10.6494140625 549.2381835937498 -12.5537109375Q550.2269531249998 -14.4580078125 552.0433593749998 -15.52001953125Q553.8597656249998 -16.58203125 556.3207031249998 -16.58203125Q558.0492187499998 -16.58203125 559.4920898437498 -16.0400390625Q560.9349609374998 -15.498046875 561.9969726562498 -14.43603515625Q563.0589843749998 -13.3740234375 563.6375976562498 -11.8212890625Q564.2162109374998 -10.2685546875 564.2162109374998 -8.232421875V-6.943359375H550.0658203124998V-9.9169921875H561.7845703124998L559.3968749999998 -9.2138671875Q559.3968749999998 -10.3564453125 559.0526367187498 -11.1767578125Q558.7083984374998 -11.9970703125 558.0345703124998 -12.4365234375Q557.3607421874998 -12.8759765625 556.3646484374998 -12.8759765625Q555.3685546874998 -12.8759765625 554.6800781249998 -12.42919921875Q553.9916015624998 -11.982421875 553.6327148437498 -11.18408203125Q553.2738281249998 -10.3857421875 553.2738281249998 -9.31640625V-7.177734375Q553.2738281249998 -5.91796875 553.6913085937498 -5.07568359375Q554.1087890624998 -4.2333984375 554.8558593749998 -3.81591796875Q555.6029296874998 -3.3984375 556.5990234374998 -3.3984375Q557.2874999999998 -3.3984375 557.8514648437498 -3.5888671875Q558.4154296874998 -3.779296875 558.8182617187498 -4.16015625Q559.2210937499998 -4.541015625 559.4261718749998 -5.0830078125L563.9818359374998 -4.3359375Q563.5716796874998 -2.9296875 562.5682617187498 -1.88232421875Q561.5648437499998 -0.8349609375 560.0340820312498 -0.263671875Q558.5033203124998 0.3076171875 556.5111328124998 0.3076171875Z M571.7091796874998 -9.345703125V0.0H566.5968749999998V-16.376953125H571.4015624999998L571.5041015624998 -12.24609375H571.2843749999998Q571.8849609374998 -14.1943359375 573.1666992187498 -15.38818359375Q574.4484374999998 -16.58203125 576.6164062499998 -16.58203125Q578.3302734374998 -16.58203125 579.6046874999998 -15.8203125Q580.8791015624998 -15.05859375 581.5822265624998 -13.6669921875Q582.2853515624998 -12.275390625 582.2853515624998 -10.4296875V0.0H577.1730468749998V-9.43359375Q577.1730468749998 -10.810546875 576.4699218749998 -11.59423828125Q575.7667968749998 -12.3779296875 574.5070312499998 -12.3779296875Q573.6867187499998 -12.3779296875 573.0495117187498 -12.01904296875Q572.4123046874998 -11.66015625 572.0607421874998 -10.986328125Q571.7091796874998 -10.3125 571.7091796874998 -9.345703125Z M594.1874999999999 -16.376953125V-12.5830078125H583.9628906249999V-16.376953125ZM586.1308593749999 -20.2734375H591.2431640624999V-5.009765625Q591.2431640624999 -4.365234375 591.5507812499999 -4.05029296875Q591.8583984374999 -3.7353515625 592.5468749999999 -3.7353515625Q592.8105468749999 -3.7353515625 593.2866210937499 -3.7939453125Q593.7626953124999 -3.8525390625 593.9677734374999 -3.9111328125L594.6269531249999 -0.1904296875Q593.7626953124999 0.05859375 592.9570312499999 0.146484375Q592.1513671874999 0.234375 591.4335937499999 0.234375Q588.8261718749999 0.234375 587.4785156249999 -0.98876953125Q586.1308593749999 -2.2119140625 586.1308593749999 -4.5556640625Z M603.4089843749999 0.3076171875Q601.3142578124999 0.3076171875 599.7029296874999 -0.28564453125Q598.0916015624999 -0.87890625 597.0808593749999 -1.99951171875Q596.0701171874999 -3.1201171875 595.7771484374999 -4.6875L600.5232421874999 -5.4345703125Q600.8308593749999 -4.365234375 601.5632812499999 -3.8232421875Q602.2957031249999 -3.28125 603.5994140624999 -3.28125Q604.6687499999999 -3.28125 605.2839843749999 -3.65478515625Q605.8992187499999 -4.0283203125 605.8992187499999 -4.6435546875Q605.8992187499999 -5.21484375 605.4084960937499 -5.55908203125Q604.9177734374999 -5.9033203125 603.8923828124999 -6.1083984375L601.0359374999999 -6.6650390625Q598.6042968749999 -7.1337890625 597.3958007812499 -8.31298828125Q596.1873046874999 -9.4921875 596.1873046874999 -11.3818359375Q596.1873046874999 -13.0224609375 597.0735351562499 -14.1796875Q597.9597656249999 -15.3369140625 599.5784179687499 -15.95947265625Q601.1970703124999 -16.58203125 603.3943359374999 -16.58203125Q605.4451171874999 -16.58203125 606.9612304687499 -16.03271484375Q608.4773437499999 -15.4833984375 609.4075195312499 -14.46533203125Q610.3376953124999 -13.447265625 610.6160156249999 -12.041015625L606.1042968749999 -11.3232421875Q605.8845703124999 -12.1435546875 605.2034179687499 -12.60498046875Q604.5222656249999 -13.06640625 603.4822265624999 -13.06640625Q602.5593749999999 -13.06640625 601.9221679687499 -12.69287109375Q601.2849609374999 -12.3193359375 601.2849609374999 -11.689453125Q601.2849609374999 -11.19140625 601.6804687499999 -10.81787109375Q602.0759765624999 -10.4443359375 603.1306640624999 -10.2392578125L606.2654296874999 -9.6533203125Q608.6970703124999 -9.1845703125 609.8909179687499 -8.1005859375Q611.0847656249999 -7.0166015625 611.0847656249999 -5.2294921875Q611.0847656249999 -3.544921875 610.0959960937499 -2.2998046875Q609.1072265624999 -1.0546875 607.3787109374999 -0.37353515625Q605.6501953124999 0.3076171875 603.4089843749999 0.3076171875Z" fill="#FFFFFF"/><path transform="translate(896,287)" d="M1.23046875 -1.74609375V-2.296875Q2.25 -2.296875 2.724609375 -2.84765625Q3.19921875 -3.3984375 3.15234375 -4.46484375L2.8828125 -12.12890625Q2.8125 -13.76953125 3.48046875 -15.0234375Q4.1484375 -16.27734375 5.40234375 -16.9921875Q6.65625 -17.70703125 8.34375 -17.70703125Q9.7265625 -17.70703125 10.845703125 -17.15625Q11.96484375 -16.60546875 12.685546875 -15.603515625Q13.40625 -14.6015625 13.6171875 -13.23046875L11.16796875 -12.84375Q10.96875 -14.0390625 10.25390625 -14.724609375Q9.5390625 -15.41015625 8.3671875 -15.41015625Q7.3359375 -15.41015625 6.66796875 -14.994140625Q6.0 -14.578125 5.689453125 -13.86328125Q5.37890625 -13.1484375 5.40234375 -12.22265625L5.63671875 -4.6875Q5.671875 -3.8671875 5.3203125 -3.322265625Q4.96875 -2.77734375 4.412109375 -2.4609375Q3.85546875 -2.14453125 3.228515625 -1.9921875Q2.6015625 -1.83984375 2.0625 -1.79296875Q1.5234375 -1.74609375 1.23046875 -1.74609375ZM1.23046875 0.0V-2.296875H10.3828125Q10.86328125 -2.296875 11.0625 -2.501953125Q11.26171875 -2.70703125 11.26171875 -3.1640625V-3.8671875H13.6640625V-3.28125Q13.6640625 -1.65234375 12.85546875 -0.826171875Q12.046875 0.0 10.3828125 0.0ZM1.23046875 -7.76953125V-9.69140625H10.78125V-7.76953125Z M16.5703125 0.0V-1.93359375L22.5 -8.0625Q23.4140625 -9.0234375 24.0234375 -9.76171875Q24.6328125 -10.5 24.94921875 -11.1796875Q25.265625 -11.859375 25.265625 -12.6328125Q25.265625 -13.51171875 24.861328125 -14.14453125Q24.45703125 -14.77734375 23.759765625 -15.1171875Q23.0625 -15.45703125 22.171875 -15.45703125Q21.24609375 -15.45703125 20.5546875 -15.076171875Q19.86328125 -14.6953125 19.48828125 -14.00390625Q19.11328125 -13.3125 19.11328125 -12.375H16.546875Q16.546875 -13.96875 17.28515625 -15.169921875Q18.0234375 -16.37109375 19.30078125 -17.033203125Q20.578125 -17.6953125 22.21875 -17.6953125Q23.8828125 -17.6953125 25.142578125 -17.0390625Q26.40234375 -16.3828125 27.1171875 -15.263671875Q27.83203125 -14.14453125 27.83203125 -12.7265625Q27.83203125 -11.765625 27.474609375 -10.8515625Q27.1171875 -9.9375 26.220703125 -8.7890625Q25.32421875 -7.640625 23.6953125 -6.0L20.2734375 -2.42578125V-2.28515625H28.1015625V0.0Z M36.8671875 0.24609375Q35.296875 0.24609375 34.083984375 -0.369140625Q32.87109375 -0.984375 32.109375 -2.080078125Q31.34765625 -3.17578125 31.1484375 -4.58203125H33.796875Q34.04296875 -3.4921875 34.822265625 -2.794921875Q35.6015625 -2.09765625 36.8671875 -2.09765625Q38.14453125 -2.09765625 39.046875 -2.84765625Q39.94921875 -3.59765625 40.4296875 -5.009765625Q40.91015625 -6.421875 40.91015625 -8.40234375H40.78125Q40.3359375 -7.67578125 39.6796875 -7.1484375Q39.0234375 -6.62109375 38.203125 -6.328125Q37.3828125 -6.03515625 36.45703125 -6.03515625Q34.93359375 -6.03515625 33.69140625 -6.7734375Q32.44921875 -7.51171875 31.72265625 -8.8125Q30.99609375 -10.11328125 30.99609375 -11.765625Q30.99609375 -13.44140625 31.7578125 -14.794921875Q32.51953125 -16.1484375 33.896484375 -16.939453125Q35.2734375 -17.73046875 37.11328125 -17.70703125Q38.2734375 -17.6953125 39.404296875 -17.2734375Q40.53515625 -16.8515625 41.455078125 -15.908203125Q42.375 -14.96484375 42.92578125 -13.353515625Q43.4765625 -11.7421875 43.4765625 -9.328125Q43.4765625 -7.0546875 43.013671875 -5.2734375Q42.55078125 -3.4921875 41.689453125 -2.26171875Q40.828125 -1.03125 39.609375 -0.392578125Q38.390625 0.24609375 36.8671875 0.24609375ZM37.03125 -8.203125Q37.78125 -8.203125 38.42578125 -8.49609375Q39.0703125 -8.7890625 39.55078125 -9.298828125Q40.03125 -9.80859375 40.306640625 -10.458984375Q40.58203125 -11.109375 40.58203125 -11.84765625Q40.58203125 -12.796875 40.125 -13.6171875Q39.66796875 -14.4375 38.8828125 -14.94140625Q38.09765625 -15.4453125 37.08984375 -15.4453125Q36.10546875 -15.4453125 35.314453125 -14.958984375Q34.5234375 -14.47265625 34.06640625 -13.646484375Q33.609375 -12.8203125 33.609375 -11.8125Q33.609375 -10.8046875 34.0546875 -9.990234375Q34.5 -9.17578125 35.2734375 -8.689453125Q36.046875 -8.203125 37.03125 -8.203125Z M53.19140625 -18.28125 47.56640625 2.625H45.2578125L50.8828125 -18.28125Z M55.39453125 0.0V-13.1015625H57.84375L57.9140625 -10.06640625H57.71484375Q57.99609375 -11.1796875 58.58203125 -11.89453125Q59.16796875 -12.609375 59.953125 -12.966796875Q60.73828125 -13.32421875 61.59375 -13.32421875Q63.0234375 -13.32421875 63.90234375 -12.439453125Q64.78125 -11.5546875 65.0859375 -9.97265625H64.7578125Q65.015625 -11.05078125 65.6484375 -11.80078125Q66.28125 -12.55078125 67.177734375 -12.9375Q68.07421875 -13.32421875 69.09375 -13.32421875Q70.25390625 -13.32421875 71.197265625 -12.8203125Q72.140625 -12.31640625 72.69140625 -11.3203125Q73.2421875 -10.32421875 73.2421875 -8.8359375V0.0H70.6640625V-8.578125Q70.6640625 -9.890625 69.931640625 -10.4765625Q69.19921875 -11.0625 68.203125 -11.0625Q67.39453125 -11.0625 66.80859375 -10.72265625Q66.22265625 -10.3828125 65.90625 -9.779296875Q65.58984375 -9.17578125 65.58984375 -8.390625V0.0H63.046875V-8.7421875Q63.046875 -9.796875 62.373046875 -10.4296875Q61.69921875 -11.0625 60.65625 -11.0625Q59.94140625 -11.0625 59.326171875 -10.728515625Q58.7109375 -10.39453125 58.341796875 -9.744140625Q57.97265625 -9.09375 57.97265625 -8.14453125V0.0Z M82.21875 0.26953125Q80.37890625 0.26953125 79.001953125 -0.57421875Q77.625 -1.41796875 76.86328125 -2.94140625Q76.1015625 -4.46484375 76.1015625 -6.48046875Q76.1015625 -8.51953125 76.86328125 -10.048828125Q77.625 -11.578125 79.001953125 -12.421875Q80.37890625 -13.265625 82.21875 -13.265625Q84.0703125 -13.265625 85.447265625 -12.421875Q86.82421875 -11.578125 87.5859375 -10.048828125Q88.34765625 -8.51953125 88.34765625 -6.48046875Q88.34765625 -4.46484375 87.5859375 -2.94140625Q86.82421875 -1.41796875 85.447265625 -0.57421875Q84.0703125 0.26953125 82.21875 0.26953125ZM82.21875 -1.91015625Q83.4140625 -1.91015625 84.193359375 -2.537109375Q84.97265625 -3.1640625 85.353515625 -4.201171875Q85.734375 -5.23828125 85.734375 -6.48046875Q85.734375 -7.734375 85.353515625 -8.783203125Q84.97265625 -9.83203125 84.193359375 -10.458984375Q83.4140625 -11.0859375 82.21875 -11.0859375Q81.03515625 -11.0859375 80.26171875 -10.458984375Q79.48828125 -9.83203125 79.107421875 -8.7890625Q78.7265625 -7.74609375 78.7265625 -6.48046875Q78.7265625 -5.23828125 79.107421875 -4.201171875Q79.48828125 -3.1640625 80.26171875 -2.537109375Q81.03515625 -1.91015625 82.21875 -1.91015625Z M93.78515625 -7.7578125V0.0H91.20703125V-13.1015625H93.66796875L93.69140625 -9.890625H93.421875Q93.99609375 -11.6484375 95.0859375 -12.45703125Q96.17578125 -13.265625 97.72265625 -13.265625Q99.05859375 -13.265625 100.0546875 -12.703125Q101.05078125 -12.140625 101.61328125 -11.044921875Q102.17578125 -9.94921875 102.17578125 -8.3203125V0.0H99.59765625V-8.00390625Q99.59765625 -9.421875 98.859375 -10.21875Q98.12109375 -11.015625 96.83203125 -11.015625Q95.96484375 -11.015625 95.2734375 -10.634765625Q94.58203125 -10.25390625 94.18359375 -9.52734375Q93.78515625 -8.80078125 93.78515625 -7.7578125Z M111.24609375 -13.1015625V-11.00390625H104.14453125V-13.1015625ZM106.0546875 -16.21875H108.6328125V-3.5390625Q108.6328125 -2.75390625 108.966796875 -2.384765625Q109.30078125 -2.015625 110.0625 -2.015625Q110.26171875 -2.015625 110.58984375 -2.0625Q110.91796875 -2.109375 111.15234375 -2.15625L111.609375 -0.09375Q111.19921875 0.046875 110.73046875 0.111328125Q110.26171875 0.17578125 109.8046875 0.17578125Q108.0234375 0.17578125 107.0390625 -0.744140625Q106.0546875 -1.6640625 106.0546875 -3.328125Z M116.390625 -7.7578125V0.0H113.8125V-17.4609375H116.3671875V-9.890625H116.02734375Q116.6015625 -11.6484375 117.69140625 -12.45703125Q118.78125 -13.265625 120.328125 -13.265625Q121.6640625 -13.265625 122.666015625 -12.703125Q123.66796875 -12.140625 124.224609375 -11.044921875Q124.78125 -9.94921875 124.78125 -8.3203125V0.0H122.203125V-8.00390625Q122.203125 -9.421875 121.46484375 -10.21875Q120.7265625 -11.015625 119.4375 -11.015625Q118.5703125 -11.015625 117.87890625 -10.634765625Q117.1875 -10.25390625 116.7890625 -9.52734375Q116.390625 -8.80078125 116.390625 -7.7578125Z M136.55859375 -6.5625Q135.83203125 -6.5625 135.328125 -7.06640625Q134.82421875 -7.5703125 134.82421875 -8.28515625Q134.82421875 -9.01171875 135.328125 -9.509765625Q135.83203125 -10.0078125 136.55859375 -10.0078125Q137.2734375 -10.0078125 137.77734375 -9.509765625Q138.28125 -9.01171875 138.28125 -8.28515625Q138.28125 -7.5703125 137.77734375 -7.06640625Q137.2734375 -6.5625 136.55859375 -6.5625Z M152.7890625 0.1640625Q151.453125 0.1640625 150.4453125 -0.3984375Q149.4375 -0.9609375 148.880859375 -2.0625Q148.32421875 -3.1640625 148.32421875 -4.78125V-13.1015625H150.90234375V-5.09765625Q150.90234375 -3.6796875 151.646484375 -2.8828125Q152.390625 -2.0859375 153.66796875 -2.0859375Q154.546875 -2.0859375 155.232421875 -2.466796875Q155.91796875 -2.84765625 156.31640625 -3.580078125Q156.71484375 -4.3125 156.71484375 -5.34375V-13.1015625H159.29296875V0.0H156.83203125L156.8203125 -3.2109375H157.06640625Q156.4921875 -1.4296875 155.390625 -0.6328125Q154.2890625 0.1640625 152.7890625 0.1640625Z M165.33984375 -7.7578125V0.0H162.76171875V-13.1015625H165.22265625L165.24609375 -9.890625H164.9765625Q165.55078125 -11.6484375 166.640625 -12.45703125Q167.73046875 -13.265625 169.27734375 -13.265625Q170.61328125 -13.265625 171.609375 -12.703125Q172.60546875 -12.140625 173.16796875 -11.044921875Q173.73046875 -9.94921875 173.73046875 -8.3203125V0.0H171.15234375V-8.00390625Q171.15234375 -9.421875 170.4140625 -10.21875Q169.67578125 -11.015625 168.38671875 -11.015625Q167.51953125 -11.015625 166.828125 -10.634765625Q166.13671875 -10.25390625 165.73828125 -9.52734375Q165.33984375 -8.80078125 165.33984375 -7.7578125Z M179.77734375 -17.4609375V0.0H177.19921875V-17.4609375Z M183.24609375 0.0V-13.1015625H185.82421875V0.0ZM184.546875 -15.10546875Q183.87890625 -15.10546875 183.404296875 -15.55078125Q182.9296875 -15.99609375 182.9296875 -16.62890625Q182.9296875 -17.2734375 183.404296875 -17.71875Q183.87890625 -18.1640625 184.546875 -18.1640625Q185.21484375 -18.1640625 185.6953125 -17.71875Q186.17578125 -17.2734375 186.17578125 -16.62890625Q186.17578125 -15.99609375 185.6953125 -15.55078125Q185.21484375 -15.10546875 184.546875 -15.10546875Z M189.29296875 0.0V-13.1015625H191.7421875L191.8125 -10.06640625H191.61328125Q191.89453125 -11.1796875 192.48046875 -11.89453125Q193.06640625 -12.609375 193.8515625 -12.966796875Q194.63671875 -13.32421875 195.4921875 -13.32421875Q196.921875 -13.32421875 197.80078125 -12.439453125Q198.6796875 -11.5546875 198.984375 -9.97265625H198.65625Q198.9140625 -11.05078125 199.546875 -11.80078125Q200.1796875 -12.55078125 201.076171875 -12.9375Q201.97265625 -13.32421875 202.9921875 -13.32421875Q204.15234375 -13.32421875 205.095703125 -12.8203125Q206.0390625 -12.31640625 206.58984375 -11.3203125Q207.140625 -10.32421875 207.140625 -8.8359375V0.0H204.5625V-8.578125Q204.5625 -9.890625 203.830078125 -10.4765625Q203.09765625 -11.0625 202.1015625 -11.0625Q201.29296875 -11.0625 200.70703125 -10.72265625Q200.12109375 -10.3828125 199.8046875 -9.779296875Q199.48828125 -9.17578125 199.48828125 -8.390625V0.0H196.9453125V-8.7421875Q196.9453125 -9.796875 196.271484375 -10.4296875Q195.59765625 -11.0625 194.5546875 -11.0625Q193.83984375 -11.0625 193.224609375 -10.728515625Q192.609375 -10.39453125 192.240234375 -9.744140625Q191.87109375 -9.09375 191.87109375 -8.14453125V0.0Z M210.609375 0.0V-13.1015625H213.1875V0.0ZM211.91015625 -15.10546875Q211.2421875 -15.10546875 210.767578125 -15.55078125Q210.29296875 -15.99609375 210.29296875 -16.62890625Q210.29296875 -17.2734375 210.767578125 -17.71875Q211.2421875 -18.1640625 211.91015625 -18.1640625Q212.578125 -18.1640625 213.05859375 -17.71875Q213.5390625 -17.2734375 213.5390625 -16.62890625Q213.5390625 -15.99609375 213.05859375 -15.55078125Q212.578125 -15.10546875 211.91015625 -15.10546875Z M222.2578125 -13.1015625V-11.00390625H215.15625V-13.1015625ZM217.06640625 -16.21875H219.64453125V-3.5390625Q219.64453125 -2.75390625 219.978515625 -2.384765625Q220.3125 -2.015625 221.07421875 -2.015625Q221.2734375 -2.015625 221.6015625 -2.0625Q221.9296875 -2.109375 222.1640625 -2.15625L222.62109375 -0.09375Q222.2109375 0.046875 221.7421875 0.111328125Q221.2734375 0.17578125 220.81640625 0.17578125Q219.03515625 0.17578125 218.05078125 -0.744140625Q217.06640625 -1.6640625 217.06640625 -3.328125Z M230.47265625 0.26953125Q228.5390625 0.26953125 227.1328125 -0.5625Q225.7265625 -1.39453125 224.970703125 -2.90625Q224.21484375 -4.41796875 224.21484375 -6.45703125Q224.21484375 -8.47265625 224.958984375 -10.0078125Q225.703125 -11.54296875 227.0625 -12.404296875Q228.421875 -13.265625 230.25 -13.265625Q231.375 -13.265625 232.41796875 -12.896484375Q233.4609375 -12.52734375 234.29296875 -11.7421875Q235.125 -10.95703125 235.611328125 -9.708984375Q236.09765625 -8.4609375 236.09765625 -6.6796875V-5.765625H225.65625V-7.6875H234.7734375L233.56640625 -7.0546875Q233.56640625 -8.26171875 233.19140625 -9.181640625Q232.81640625 -10.1015625 232.083984375 -10.6171875Q231.3515625 -11.1328125 230.25 -11.1328125Q229.16015625 -11.1328125 228.38671875 -10.60546875Q227.61328125 -10.078125 227.208984375 -9.216796875Q226.8046875 -8.35546875 226.8046875 -7.3359375V-6.0234375Q226.8046875 -4.67578125 227.267578125 -3.744140625Q227.73046875 -2.8125 228.5625 -2.337890625Q229.39453125 -1.86328125 230.49609375 -1.86328125Q231.22265625 -1.86328125 231.80859375 -2.068359375Q232.39453125 -2.2734375 232.822265625 -2.689453125Q233.25 -3.10546875 233.47265625 -3.71484375L235.8984375 -3.140625Q235.58203125 -2.1328125 234.837890625 -1.359375Q234.09375 -0.5859375 232.986328125 -0.158203125Q231.87890625 0.26953125 230.47265625 0.26953125Z M243.796875 0.2578125Q242.203125 0.2578125 240.9609375 -0.556640625Q239.71875 -1.37109375 239.015625 -2.888671875Q238.3125 -4.40625 238.3125 -6.515625Q238.3125 -8.6484375 239.02734375 -10.16015625Q239.7421875 -11.671875 240.984375 -12.46875Q242.2265625 -13.265625 243.796875 -13.265625Q245.015625 -13.265625 245.759765625 -12.861328125Q246.50390625 -12.45703125 246.92578125 -11.91796875Q247.34765625 -11.37890625 247.5703125 -10.96875H247.7109375V-17.4609375H250.2890625V0.0H247.78125V-2.05078125H247.5703125Q247.34765625 -1.62890625 246.9140625 -1.08984375Q246.48046875 -0.55078125 245.73046875 -0.146484375Q244.98046875 0.2578125 243.796875 0.2578125ZM244.359375 -1.93359375Q245.4609375 -1.93359375 246.216796875 -2.51953125Q246.97265625 -3.10546875 247.365234375 -4.142578125Q247.7578125 -5.1796875 247.7578125 -6.5390625Q247.7578125 -7.91015625 247.37109375 -8.923828125Q246.984375 -9.9375 246.228515625 -10.505859375Q245.47265625 -11.07421875 244.359375 -11.07421875Q243.22265625 -11.07421875 242.466796875 -10.4765625Q241.7109375 -9.87890625 241.330078125 -8.853515625Q240.94921875 -7.828125 240.94921875 -6.5390625Q240.94921875 -5.23828125 241.3359375 -4.1953125Q241.72265625 -3.15234375 242.484375 -2.54296875Q243.24609375 -1.93359375 244.359375 -1.93359375Z M264.62109375 0.1640625Q263.28515625 0.1640625 262.27734375 -0.3984375Q261.26953125 -0.9609375 260.712890625 -2.0625Q260.15625 -3.1640625 260.15625 -4.78125V-13.1015625H262.734375V-5.09765625Q262.734375 -3.6796875 263.478515625 -2.8828125Q264.22265625 -2.0859375 265.5 -2.0859375Q266.37890625 -2.0859375 267.064453125 -2.466796875Q267.75 -2.84765625 268.1484375 -3.580078125Q268.546875 -4.3125 268.546875 -5.34375V-13.1015625H271.125V0.0H268.6640625L268.65234375 -3.2109375H268.8984375Q268.32421875 -1.4296875 267.22265625 -0.6328125Q266.12109375 0.1640625 264.62109375 0.1640625Z M279.29296875 0.26953125Q277.875 0.26953125 276.767578125 -0.140625Q275.66015625 -0.55078125 274.951171875 -1.353515625Q274.2421875 -2.15625 274.0078125 -3.31640625L276.43359375 -3.8203125Q276.703125 -2.80078125 277.44140625 -2.30859375Q278.1796875 -1.81640625 279.31640625 -1.81640625Q280.55859375 -1.81640625 281.296875 -2.337890625Q282.03515625 -2.859375 282.03515625 -3.5859375Q282.03515625 -4.21875 281.583984375 -4.62890625Q281.1328125 -5.0390625 280.1953125 -5.23828125L277.9921875 -5.7421875Q276.1640625 -6.15234375 275.2734375 -7.0546875Q274.3828125 -7.95703125 274.3828125 -9.36328125Q274.3828125 -10.53515625 275.0390625 -11.4140625Q275.6953125 -12.29296875 276.83203125 -12.779296875Q277.96875 -13.265625 279.45703125 -13.265625Q280.875 -13.265625 281.8828125 -12.85546875Q282.890625 -12.4453125 283.517578125 -11.70703125Q284.14453125 -10.96875 284.4140625 -9.99609375L282.10546875 -9.4921875Q281.859375 -10.18359375 281.25 -10.705078125Q280.640625 -11.2265625 279.48046875 -11.2265625Q278.4140625 -11.2265625 277.69921875 -10.74609375Q276.984375 -10.265625 276.984375 -9.52734375Q276.984375 -8.87109375 277.458984375 -8.466796875Q277.93359375 -8.0625 279.01171875 -7.81640625L281.12109375 -7.34765625Q282.9375 -6.9375 283.81640625 -6.05859375Q284.6953125 -5.1796875 284.6953125 -3.80859375Q284.6953125 -2.61328125 284.009765625 -1.693359375Q283.32421875 -0.7734375 282.111328125 -0.251953125Q280.8984375 0.26953125 279.29296875 0.26953125Z M293.16796875 0.26953125Q291.234375 0.26953125 289.828125 -0.5625Q288.421875 -1.39453125 287.666015625 -2.90625Q286.91015625 -4.41796875 286.91015625 -6.45703125Q286.91015625 -8.47265625 287.654296875 -10.0078125Q288.3984375 -11.54296875 289.7578125 -12.404296875Q291.1171875 -13.265625 292.9453125 -13.265625Q294.0703125 -13.265625 295.11328125 -12.896484375Q296.15625 -12.52734375 296.98828125 -11.7421875Q297.8203125 -10.95703125 298.306640625 -9.708984375Q298.79296875 -8.4609375 298.79296875 -6.6796875V-5.765625H288.3515625V-7.6875H297.46875L296.26171875 -7.0546875Q296.26171875 -8.26171875 295.88671875 -9.181640625Q295.51171875 -10.1015625 294.779296875 -10.6171875Q294.046875 -11.1328125 292.9453125 -11.1328125Q291.85546875 -11.1328125 291.08203125 -10.60546875Q290.30859375 -10.078125 289.904296875 -9.216796875Q289.5 -8.35546875 289.5 -7.3359375V-6.0234375Q289.5 -4.67578125 289.962890625 -3.744140625Q290.42578125 -2.8125 291.2578125 -2.337890625Q292.08984375 -1.86328125 293.19140625 -1.86328125Q293.91796875 -1.86328125 294.50390625 -2.068359375Q295.08984375 -2.2734375 295.517578125 -2.689453125Q295.9453125 -3.10546875 296.16796875 -3.71484375L298.59375 -3.140625Q298.27734375 -2.1328125 297.533203125 -1.359375Q296.7890625 -0.5859375 295.681640625 -0.158203125Q294.57421875 0.26953125 293.16796875 0.26953125Z M301.6171875 0.0V-13.1015625H304.11328125V-10.9921875H304.25390625Q304.6171875 -12.0703125 305.51953125 -12.6796875Q306.421875 -13.2890625 307.5703125 -13.2890625Q307.81640625 -13.2890625 308.1328125 -13.271484375Q308.44921875 -13.25390625 308.66015625 -13.21875V-10.7578125Q308.51953125 -10.8046875 308.12109375 -10.8515625Q307.72265625 -10.8984375 307.3125 -10.8984375Q306.421875 -10.8984375 305.70703125 -10.5234375Q304.9921875 -10.1484375 304.59375 -9.486328125Q304.1953125 -8.82421875 304.1953125 -7.95703125V0.0Z M315.59765625 0.26953125Q314.1796875 0.26953125 313.072265625 -0.140625Q311.96484375 -0.55078125 311.255859375 -1.353515625Q310.546875 -2.15625 310.3125 -3.31640625L312.73828125 -3.8203125Q313.0078125 -2.80078125 313.74609375 -2.30859375Q314.484375 -1.81640625 315.62109375 -1.81640625Q316.86328125 -1.81640625 317.6015625 -2.337890625Q318.33984375 -2.859375 318.33984375 -3.5859375Q318.33984375 -4.21875 317.888671875 -4.62890625Q317.4375 -5.0390625 316.5 -5.23828125L314.296875 -5.7421875Q312.46875 -6.15234375 311.578125 -7.0546875Q310.6875 -7.95703125 310.6875 -9.36328125Q310.6875 -10.53515625 311.34375 -11.4140625Q312.0 -12.29296875 313.13671875 -12.779296875Q314.2734375 -13.265625 315.76171875 -13.265625Q317.1796875 -13.265625 318.1875 -12.85546875Q319.1953125 -12.4453125 319.822265625 -11.70703125Q320.44921875 -10.96875 320.71875 -9.99609375L318.41015625 -9.4921875Q318.1640625 -10.18359375 317.5546875 -10.705078125Q316.9453125 -11.2265625 315.78515625 -11.2265625Q314.71875 -11.2265625 314.00390625 -10.74609375Q313.2890625 -10.265625 313.2890625 -9.52734375Q313.2890625 -8.87109375 313.763671875 -8.466796875Q314.23828125 -8.0625 315.31640625 -7.81640625L317.42578125 -7.34765625Q319.2421875 -6.9375 320.12109375 -6.05859375Q321.0 -5.1796875 321.0 -3.80859375Q321.0 -2.61328125 320.314453125 -1.693359375Q319.62890625 -0.7734375 318.416015625 -0.251953125Q317.203125 0.26953125 315.59765625 0.26953125Z M332.1328125 -6.5625Q331.40625 -6.5625 330.90234375 -7.06640625Q330.3984375 -7.5703125 330.3984375 -8.28515625Q330.3984375 -9.01171875 330.90234375 -9.509765625Q331.40625 -10.0078125 332.1328125 -10.0078125Q332.84765625 -10.0078125 333.3515625 -9.509765625Q333.85546875 -9.01171875 333.85546875 -8.28515625Q333.85546875 -7.5703125 333.3515625 -7.06640625Q332.84765625 -6.5625 332.1328125 -6.5625Z M350.19140625 -17.4609375V0.0H347.54296875V-15.03515625H347.42578125L343.27734375 -12.01171875V-14.6953125L347.09765625 -17.4609375Z M353.4609375 -3.3984375V-5.5546875L360.984375 -17.4609375H362.6953125V-14.28515625H361.60546875L356.25 -5.8125V-5.671875H366.5859375V-3.3984375ZM361.72265625 0.0V-4.04296875L361.74609375 -5.0390625V-17.4609375H364.2890625V0.0Z M377.30859375 -8.47265625V-6.24609375H369.55078125V-8.47265625Z M385.58203125 0.2578125Q383.98828125 0.2578125 382.74609375 -0.556640625Q381.50390625 -1.37109375 380.80078125 -2.888671875Q380.09765625 -4.40625 380.09765625 -6.515625Q380.09765625 -8.6484375 380.8125 -10.16015625Q381.52734375 -11.671875 382.76953125 -12.46875Q384.01171875 -13.265625 385.58203125 -13.265625Q386.80078125 -13.265625 387.544921875 -12.861328125Q388.2890625 -12.45703125 388.7109375 -11.91796875Q389.1328125 -11.37890625 389.35546875 -10.96875H389.49609375V-17.4609375H392.07421875V0.0H389.56640625V-2.05078125H389.35546875Q389.1328125 -1.62890625 388.69921875 -1.08984375Q388.265625 -0.55078125 387.515625 -0.146484375Q386.765625 0.2578125 385.58203125 0.2578125ZM386.14453125 -1.93359375Q387.24609375 -1.93359375 388.001953125 -2.51953125Q388.7578125 -3.10546875 389.150390625 -4.142578125Q389.54296875 -5.1796875 389.54296875 -6.5390625Q389.54296875 -7.91015625 389.15625 -8.923828125Q388.76953125 -9.9375 388.013671875 -10.505859375Q387.2578125 -11.07421875 386.14453125 -11.07421875Q385.0078125 -11.07421875 384.251953125 -10.4765625Q383.49609375 -9.87890625 383.115234375 -8.853515625Q382.734375 -7.828125 382.734375 -6.5390625Q382.734375 -5.23828125 383.12109375 -4.1953125Q383.5078125 -3.15234375 384.26953125 -2.54296875Q385.03125 -1.93359375 386.14453125 -1.93359375Z M399.2109375 0.29296875Q397.96875 0.29296875 396.9609375 -0.169921875Q395.953125 -0.6328125 395.3671875 -1.5234375Q394.78125 -2.4140625 394.78125 -3.703125Q394.78125 -4.81640625 395.208984375 -5.53125Q395.63671875 -6.24609375 396.369140625 -6.66796875Q397.1015625 -7.08984375 397.998046875 -7.30078125Q398.89453125 -7.51171875 399.8203125 -7.6171875Q400.98046875 -7.7578125 401.70703125 -7.845703125Q402.43359375 -7.93359375 402.779296875 -8.138671875Q403.125 -8.34375 403.125 -8.80078125V-8.87109375Q403.125 -9.609375 402.84375 -10.11328125Q402.5625 -10.6171875 402.005859375 -10.892578125Q401.44921875 -11.16796875 400.6171875 -11.16796875Q399.76171875 -11.16796875 399.146484375 -10.904296875Q398.53125 -10.640625 398.150390625 -10.23046875Q397.76953125 -9.8203125 397.58203125 -9.375L395.15625 -10.0078125Q395.6015625 -11.1796875 396.43359375 -11.89453125Q397.265625 -12.609375 398.34375 -12.9375Q399.421875 -13.265625 400.5703125 -13.265625Q401.3671875 -13.265625 402.2578125 -13.078125Q403.1484375 -12.890625 403.93359375 -12.3984375Q404.71875 -11.90625 405.2109375 -11.015625Q405.703125 -10.125 405.703125 -8.6953125V0.0H403.20703125V-1.79296875H403.078125Q402.8203125 -1.2890625 402.31640625 -0.80859375Q401.8125 -0.328125 401.044921875 -0.017578125Q400.27734375 0.29296875 399.2109375 0.29296875ZM399.78515625 -1.78125Q400.83984375 -1.78125 401.58984375 -2.19140625Q402.33984375 -2.6015625 402.73828125 -3.28125Q403.13671875 -3.9609375 403.13671875 -4.72265625V-6.3984375Q402.99609375 -6.2578125 402.603515625 -6.146484375Q402.2109375 -6.03515625 401.70703125 -5.947265625Q401.203125 -5.859375 400.734375 -5.80078125Q400.265625 -5.7421875 399.9609375 -5.70703125Q399.234375 -5.61328125 398.630859375 -5.390625Q398.02734375 -5.16796875 397.669921875 -4.7578125Q397.3125 -4.34765625 397.3125 -3.66796875Q397.3125 -3.046875 397.634765625 -2.625Q397.95703125 -2.203125 398.5078125 -1.9921875Q399.05859375 -1.78125 399.78515625 -1.78125Z M408.99609375 4.7109375 409.62890625 2.61328125 409.921875 2.68359375Q410.58984375 2.859375 411.123046875 2.77734375Q411.65625 2.6953125 412.048828125 2.279296875Q412.44140625 1.86328125 412.67578125 1.01953125L412.95703125 0.05859375L407.9765625 -13.1015625H410.765625L413.35546875 -5.66015625Q413.7890625 -4.41796875 414.076171875 -3.1875Q414.36328125 -1.95703125 414.703125 -0.73828125H413.90625Q414.24609375 -1.95703125 414.556640625 -3.193359375Q414.8671875 -4.4296875 415.30078125 -5.66015625L417.9375 -13.1015625H420.703125L415.0078125 1.81640625Q414.609375 2.87109375 414.029296875 3.57421875Q413.44921875 4.27734375 412.65234375 4.634765625Q411.85546875 4.9921875 410.80078125 4.9921875Q410.19140625 4.9921875 409.7109375 4.904296875Q409.23046875 4.81640625 408.99609375 4.7109375Z M435.8671875 -13.1015625V-11.00390625H427.875V-13.1015625ZM430.359375 0.0V-14.6015625Q430.359375 -15.8203125 430.904296875 -16.640625Q431.44921875 -17.4609375 432.33984375 -17.87109375Q433.23046875 -18.28125 434.26171875 -18.28125Q435.046875 -18.28125 435.603515625 -18.15234375Q436.16015625 -18.0234375 436.41796875 -17.9296875L435.8203125 -15.84375Q435.6328125 -15.90234375 435.357421875 -15.966796875Q435.08203125 -16.03125 434.671875 -16.03125Q433.7578125 -16.03125 433.34765625 -15.57421875Q432.9375 -15.1171875 432.9375 -14.25V0.0Z M438.48046875 0.0V-13.1015625H440.9765625V-10.9921875H441.1171875Q441.48046875 -12.0703125 442.3828125 -12.6796875Q443.28515625 -13.2890625 444.43359375 -13.2890625Q444.6796875 -13.2890625 444.99609375 -13.271484375Q445.3125 -13.25390625 445.5234375 -13.21875V-10.7578125Q445.3828125 -10.8046875 444.984375 -10.8515625Q444.5859375 -10.8984375 444.17578125 -10.8984375Q443.28515625 -10.8984375 442.5703125 -10.5234375Q441.85546875 -10.1484375 441.45703125 -9.486328125Q441.05859375 -8.82421875 441.05859375 -7.95703125V0.0Z M453.41015625 0.26953125Q451.4765625 0.26953125 450.0703125 -0.5625Q448.6640625 -1.39453125 447.908203125 -2.90625Q447.15234375 -4.41796875 447.15234375 -6.45703125Q447.15234375 -8.47265625 447.896484375 -10.0078125Q448.640625 -11.54296875 450.0 -12.404296875Q451.359375 -13.265625 453.1875 -13.265625Q454.3125 -13.265625 455.35546875 -12.896484375Q456.3984375 -12.52734375 457.23046875 -11.7421875Q458.0625 -10.95703125 458.548828125 -9.708984375Q459.03515625 -8.4609375 459.03515625 -6.6796875V-5.765625H448.59375V-7.6875H457.7109375L456.50390625 -7.0546875Q456.50390625 -8.26171875 456.12890625 -9.181640625Q455.75390625 -10.1015625 455.021484375 -10.6171875Q454.2890625 -11.1328125 453.1875 -11.1328125Q452.09765625 -11.1328125 451.32421875 -10.60546875Q450.55078125 -10.078125 450.146484375 -9.216796875Q449.7421875 -8.35546875 449.7421875 -7.3359375V-6.0234375Q449.7421875 -4.67578125 450.205078125 -3.744140625Q450.66796875 -2.8125 451.5 -2.337890625Q452.33203125 -1.86328125 453.43359375 -1.86328125Q454.16015625 -1.86328125 454.74609375 -2.068359375Q455.33203125 -2.2734375 455.759765625 -2.689453125Q456.1875 -3.10546875 456.41015625 -3.71484375L458.8359375 -3.140625Q458.51953125 -2.1328125 457.775390625 -1.359375Q457.03125 -0.5859375 455.923828125 -0.158203125Q454.81640625 0.26953125 453.41015625 0.26953125Z M467.5078125 0.26953125Q465.57421875 0.26953125 464.16796875 -0.5625Q462.76171875 -1.39453125 462.005859375 -2.90625Q461.25 -4.41796875 461.25 -6.45703125Q461.25 -8.47265625 461.994140625 -10.0078125Q462.73828125 -11.54296875 464.09765625 -12.404296875Q465.45703125 -13.265625 467.28515625 -13.265625Q468.41015625 -13.265625 469.453125 -12.896484375Q470.49609375 -12.52734375 471.328125 -11.7421875Q472.16015625 -10.95703125 472.646484375 -9.708984375Q473.1328125 -8.4609375 473.1328125 -6.6796875V-5.765625H462.69140625V-7.6875H471.80859375L470.6015625 -7.0546875Q470.6015625 -8.26171875 470.2265625 -9.181640625Q469.8515625 -10.1015625 469.119140625 -10.6171875Q468.38671875 -11.1328125 467.28515625 -11.1328125Q466.1953125 -11.1328125 465.421875 -10.60546875Q464.6484375 -10.078125 464.244140625 -9.216796875Q463.83984375 -8.35546875 463.83984375 -7.3359375V-6.0234375Q463.83984375 -4.67578125 464.302734375 -3.744140625Q464.765625 -2.8125 465.59765625 -2.337890625Q466.4296875 -1.86328125 467.53125 -1.86328125Q468.2578125 -1.86328125 468.84375 -2.068359375Q469.4296875 -2.2734375 469.857421875 -2.689453125Q470.28515625 -3.10546875 470.5078125 -3.71484375L472.93359375 -3.140625Q472.6171875 -2.1328125 471.873046875 -1.359375Q471.12890625 -0.5859375 470.021484375 -0.158203125Q468.9140625 0.26953125 467.5078125 0.26953125Z M487.95703125 -13.1015625V-11.00390625H480.85546875V-13.1015625ZM482.765625 -16.21875H485.34375V-3.5390625Q485.34375 -2.75390625 485.677734375 -2.384765625Q486.01171875 -2.015625 486.7734375 -2.015625Q486.97265625 -2.015625 487.30078125 -2.0625Q487.62890625 -2.109375 487.86328125 -2.15625L488.3203125 -0.09375Q487.91015625 0.046875 487.44140625 0.111328125Q486.97265625 0.17578125 486.515625 0.17578125Q484.734375 0.17578125 483.75 -0.744140625Q482.765625 -1.6640625 482.765625 -3.328125Z M490.5234375 0.0V-13.1015625H493.01953125V-10.9921875H493.16015625Q493.5234375 -12.0703125 494.42578125 -12.6796875Q495.328125 -13.2890625 496.4765625 -13.2890625Q496.72265625 -13.2890625 497.0390625 -13.271484375Q497.35546875 -13.25390625 497.56640625 -13.21875V-10.7578125Q497.42578125 -10.8046875 497.02734375 -10.8515625Q496.62890625 -10.8984375 496.21875 -10.8984375Q495.328125 -10.8984375 494.61328125 -10.5234375Q493.8984375 -10.1484375 493.5 -9.486328125Q493.1015625 -8.82421875 493.1015625 -7.95703125V0.0Z M499.8046875 0.0V-13.1015625H502.3828125V0.0ZM501.10546875 -15.10546875Q500.4375 -15.10546875 499.962890625 -15.55078125Q499.48828125 -15.99609375 499.48828125 -16.62890625Q499.48828125 -17.2734375 499.962890625 -17.71875Q500.4375 -18.1640625 501.10546875 -18.1640625Q501.7734375 -18.1640625 502.25390625 -17.71875Q502.734375 -17.2734375 502.734375 -16.62890625Q502.734375 -15.99609375 502.25390625 -15.55078125Q501.7734375 -15.10546875 501.10546875 -15.10546875Z M509.51953125 0.29296875Q508.27734375 0.29296875 507.26953125 -0.169921875Q506.26171875 -0.6328125 505.67578125 -1.5234375Q505.08984375 -2.4140625 505.08984375 -3.703125Q505.08984375 -4.81640625 505.517578125 -5.53125Q505.9453125 -6.24609375 506.677734375 -6.66796875Q507.41015625 -7.08984375 508.306640625 -7.30078125Q509.203125 -7.51171875 510.12890625 -7.6171875Q511.2890625 -7.7578125 512.015625 -7.845703125Q512.7421875 -7.93359375 513.087890625 -8.138671875Q513.43359375 -8.34375 513.43359375 -8.80078125V-8.87109375Q513.43359375 -9.609375 513.15234375 -10.11328125Q512.87109375 -10.6171875 512.314453125 -10.892578125Q511.7578125 -11.16796875 510.92578125 -11.16796875Q510.0703125 -11.16796875 509.455078125 -10.904296875Q508.83984375 -10.640625 508.458984375 -10.23046875Q508.078125 -9.8203125 507.890625 -9.375L505.46484375 -10.0078125Q505.91015625 -11.1796875 506.7421875 -11.89453125Q507.57421875 -12.609375 508.65234375 -12.9375Q509.73046875 -13.265625 510.87890625 -13.265625Q511.67578125 -13.265625 512.56640625 -13.078125Q513.45703125 -12.890625 514.2421875 -12.3984375Q515.02734375 -11.90625 515.51953125 -11.015625Q516.01171875 -10.125 516.01171875 -8.6953125V0.0H513.515625V-1.79296875H513.38671875Q513.12890625 -1.2890625 512.625 -0.80859375Q512.12109375 -0.328125 511.353515625 -0.017578125Q510.5859375 0.29296875 509.51953125 0.29296875ZM510.09375 -1.78125Q511.1484375 -1.78125 511.8984375 -2.19140625Q512.6484375 -2.6015625 513.046875 -3.28125Q513.4453125 -3.9609375 513.4453125 -4.72265625V-6.3984375Q513.3046875 -6.2578125 512.912109375 -6.146484375Q512.51953125 -6.03515625 512.015625 -5.947265625Q511.51171875 -5.859375 511.04296875 -5.80078125Q510.57421875 -5.7421875 510.26953125 -5.70703125Q509.54296875 -5.61328125 508.939453125 -5.390625Q508.3359375 -5.16796875 507.978515625 -4.7578125Q507.62109375 -4.34765625 507.62109375 -3.66796875Q507.62109375 -3.046875 507.943359375 -2.625Q508.265625 -2.203125 508.81640625 -1.9921875Q509.3671875 -1.78125 510.09375 -1.78125Z M522.05859375 -17.4609375V0.0H519.48046875V-17.4609375Z" fill="#999999"/></svg>