<svg width="1200" height="630" viewBox="0 0 1200 630" xmlns="http://www.w3.org/2000/svg"><defs><radialGradient id="rgog" cx="0.12" cy="0.05" r="1.1"><stop offset="0" stop-color="#F4A523" stop-opacity="0.16"/><stop offset="0.45" stop-color="#F4A523" stop-opacity="0.04"/><stop offset="1" stop-color="#F4A523" stop-opacity="0"/></radialGradient></defs><rect width="1200" height="630" fill="#0A0A0A"/><rect width="1200" height="630" fill="url(#rgog)"/><rect x="3" y="3" width="1194" height="624" fill="none" stroke="#1E1E1E" stroke-width="2"/><g transform="translate(241,255)"><polygon points="150.00,0.00 112.50,64.95 37.50,64.95 0.00,0.00 37.50,-64.95 112.50,-64.95" fill="#F4A523" stroke="#F4A523" stroke-width="13.5" stroke-linejoin="round"/><path transform="translate(33.55,31.05)" d="M33.5650634765625 0.84228515625Q24.6368408203125 0.84228515625 17.8564453125 -3.05328369140625Q11.0760498046875 -6.9488525390625 7.26470947265625 -14.150390625Q3.453369140625 -21.3519287109375 3.453369140625 -31.248779296875Q3.453369140625 -41.524658203125 7.47528076171875 -48.74725341796875Q11.4971923828125 -55.9698486328125 18.25653076171875 -59.78118896484375Q25.015869140625 -63.592529296875 33.3966064453125 -63.592529296875Q38.829345703125 -63.592529296875 43.48297119140625 -62.0343017578125Q48.1365966796875 -60.47607421875 51.77947998046875 -57.6123046875Q55.42236328125 -54.74853515625 57.67547607421875 -50.85296630859375Q59.9285888671875 -46.9573974609375 60.5181884765625 -42.28271484375H45.4833984375Q44.9359130859375 -44.219970703125 43.90411376953125 -45.75714111328125Q42.872314453125 -47.2943115234375 41.356201171875 -48.36822509765625Q39.840087890625 -49.442138671875 37.92388916015625 -49.9896240234375Q36.0076904296875 -50.537109375 33.6492919921875 -50.537109375Q29.1009521484375 -50.537109375 25.71075439453125 -48.3050537109375Q22.320556640625 -46.072998046875 20.48858642578125 -41.79840087890625Q18.6566162109375 -37.5238037109375 18.6566162109375 -31.4593505859375Q18.6566162109375 -25.352783203125 20.44647216796875 -21.05712890625Q22.236328125 -16.761474609375 25.60546875 -14.4873046875Q28.974609375 -12.213134765625 33.69140625 -12.213134765625Q37.9449462890625 -12.213134765625 40.87188720703125 -13.6029052734375Q43.798828125 -14.99267578125 45.31494140625 -17.58270263671875Q46.8310546875 -20.1727294921875 46.8310546875 -23.668212890625L49.6527099609375 -23.2891845703125H34.281005859375V-34.19677734375H61.1920166015625V-25.9423828125Q61.1920166015625 -17.5616455078125 57.6544189453125 -11.56036376953125Q54.1168212890625 -5.55908203125 47.86285400390625 -2.3583984375Q41.60888671875 0.84228515625 33.5650634765625 0.84228515625Z" fill="#FFFFFF"/><rect x="92.56" y="-3.15" width="46.19" height="10.91" rx="5.45" fill="#FFFFFF"/><path transform="translate(191.25,24.84)" d="M26.85205078125 0.673828125Q19.70947265625 0.673828125 14.28515625 -2.442626953125Q8.86083984375 -5.55908203125 5.811767578125 -11.3203125Q2.7626953125 -17.08154296875 2.7626953125 -24.9990234375Q2.7626953125 -33.2197265625 5.980224609375 -38.997802734375Q9.19775390625 -44.77587890625 14.605224609375 -47.824951171875Q20.0126953125 -50.8740234375 26.71728515625 -50.8740234375Q31.0634765625 -50.8740234375 34.786376953125 -49.62744140625Q38.50927734375 -48.380859375 41.423583984375 -46.08984375Q44.337890625 -43.798828125 46.140380859375 -40.682373046875Q47.94287109375 -37.56591796875 48.41455078125 -33.826171875H36.38671875Q35.94873046875 -35.3759765625 35.123291015625 -36.605712890625Q34.2978515625 -37.83544921875 33.0849609375 -38.694580078125Q31.8720703125 -39.5537109375 30.339111328125 -39.99169921875Q28.80615234375 -40.4296875 26.91943359375 -40.4296875Q23.28076171875 -40.4296875 20.568603515625 -38.64404296875Q17.8564453125 -36.8583984375 16.390869140625 -33.438720703125Q14.92529296875 -30.01904296875 14.92529296875 -25.16748046875Q14.92529296875 -20.2822265625 16.357177734375 -16.845703125Q17.7890625 -13.4091796875 20.484375 -11.58984375Q23.1796875 -9.7705078125 26.953125 -9.7705078125Q30.35595703125 -9.7705078125 32.697509765625 -10.88232421875Q35.0390625 -11.994140625 36.251953125 -14.066162109375Q37.46484375 -16.13818359375 37.46484375 -18.9345703125L39.72216796875 -18.63134765625H27.4248046875V-27.357421875H48.95361328125V-20.75390625Q48.95361328125 -14.04931640625 46.12353515625 -9.248291015625Q43.29345703125 -4.447265625 38.290283203125 -1.88671875Q33.287109375 0.673828125 26.85205078125 0.673828125Z M54.191953125 0.0 70.93658203125 -50.2001953125H86.8726171875L104.1226171875 0.0H90.7808203125L83.80669921875 -21.93310546875Q82.12212890625 -27.4248046875 80.555478515625 -33.607177734375Q78.988828125 -39.78955078125 77.40533203125 -46.4267578125H80.066953125Q78.55083984375 -39.755859375 77.13580078125 -33.573486328125Q75.72076171875 -27.39111328125 74.137265625 -21.93310546875L67.398984375 0.0ZM65.5796484375 -10.68017578125V-19.77685546875H92.76861328125V-10.68017578125Z M110.30431640625 0.0V-50.2001953125H130.85607421875Q136.51623046875 -50.2001953125 140.62658203125 -48.161865234375Q144.73693359375 -46.12353515625 146.943720703125 -42.3837890625Q149.1505078125 -38.64404296875 149.1505078125 -33.52294921875Q149.1505078125 -28.3681640625 146.89318359375 -24.712646484375Q144.635859375 -21.05712890625 140.458125 -19.17041015625Q136.280390625 -17.28369140625 130.51916015625 -17.28369140625H117.413203125V-26.68359375H128.36291015625Q131.159296875 -26.68359375 133.029169921875 -27.4248046875Q134.89904296875 -28.166015625 135.859248046875 -29.68212890625Q136.819453125 -31.1982421875 136.819453125 -33.52294921875Q136.819453125 -35.88134765625 135.859248046875 -37.43115234375Q134.89904296875 -38.98095703125 133.01232421875 -39.772705078125Q131.12560546875 -40.564453125 128.32921875 -40.564453125H122.1973828125V0.0ZM137.86388671875 0.0 125.63390625 -22.94384765625H138.3692578125L150.9024609375 0.0Z M154.35515625 0.0 171.09978515625 -50.2001953125H187.0358203125L204.2858203125 0.0H190.9440234375L183.96990234375 -21.93310546875Q182.28533203125 -27.4248046875 180.718681640625 -33.607177734375Q179.15203125 -39.78955078125 177.56853515625 -46.4267578125H180.23015625Q178.71404296875 -39.755859375 177.29900390625 -33.573486328125Q175.88396484375 -27.39111328125 174.30046875 -21.93310546875L167.5621875 0.0ZM165.7428515625 -10.68017578125V-19.77685546875H192.93181640625V-10.68017578125Z M233.4113671875 0.673828125Q226.2687890625 0.673828125 220.84447265625 -2.442626953125Q215.42015625 -5.55908203125 212.371083984375 -11.3203125Q209.32201171875 -17.08154296875 209.32201171875 -24.9990234375Q209.32201171875 -33.2197265625 212.539541015625 -38.997802734375Q215.7570703125 -44.77587890625 221.164541015625 -47.824951171875Q226.57201171875 -50.8740234375 233.2766015625 -50.8740234375Q237.62279296875 -50.8740234375 241.345693359375 -49.62744140625Q245.06859375 -48.380859375 247.982900390625 -46.08984375Q250.89720703125 -43.798828125 252.699697265625 -40.682373046875Q254.5021875 -37.56591796875 254.9738671875 -33.826171875H242.94603515625Q242.508046875 -35.3759765625 241.682607421875 -36.605712890625Q240.85716796875 -37.83544921875 239.64427734375 -38.694580078125Q238.43138671875 -39.5537109375 236.898427734375 -39.99169921875Q235.36546875 -40.4296875 233.47875 -40.4296875Q229.840078125 -40.4296875 227.127919921875 -38.64404296875Q224.41576171875 -36.8583984375 222.950185546875 -33.438720703125Q221.484609375 -30.01904296875 221.484609375 -25.16748046875Q221.484609375 -20.2822265625 222.916494140625 -16.845703125Q224.34837890625 -13.4091796875 227.04369140625 -11.58984375Q229.73900390625 -9.7705078125 233.51244140625 -9.7705078125Q236.9152734375 -9.7705078125 239.256826171875 -10.88232421875Q241.59837890625 -11.994140625 242.81126953125 -14.066162109375Q244.02416015625 -16.13818359375 244.02416015625 -18.9345703125L246.281484375 -18.63134765625H233.98412109375V-27.357421875H255.5129296875V-20.75390625Q255.5129296875 -14.04931640625 252.6828515625 -9.248291015625Q249.8527734375 -4.447265625 244.849599609375 -1.88671875Q239.84642578125 0.673828125 233.4113671875 0.673828125Z M263.0759765625 0.0V-50.2001953125H297.912890625V-40.4970703125H274.96904296875V-30.1201171875H296.0935546875V-20.619140625H274.96904296875V-9.703125H297.87919921875V0.0Z" fill="#FFFFFF"/><path transform="translate(504.92,24.84)" d="M21.86572265625 0.0H9.46728515625V-6.73828125H21.46142578125Q27.1552734375 -6.73828125 30.9287109375 -8.86083984375Q34.7021484375 -10.9833984375 36.5888671875 -15.110595703125Q38.4755859375 -19.23779296875 38.4755859375 -25.16748046875Q38.4755859375 -31.0634765625 36.605712890625 -35.14013671875Q34.73583984375 -39.216796875 31.046630859375 -41.33935546875Q27.357421875 -43.4619140625 21.86572265625 -43.4619140625H9.19775390625V-50.2001953125H22.37109375Q29.783203125 -50.2001953125 35.07275390625 -47.20166015625Q40.3623046875 -44.203125 43.1923828125 -38.593505859375Q46.0224609375 -32.98388671875 46.0224609375 -25.16748046875Q46.0224609375 -17.3173828125 43.175537109375 -11.69091796875Q40.32861328125 -6.064453125 34.921142578125 -3.0322265625Q29.513671875 0.0 21.86572265625 0.0ZM13.24072265625 -50.2001953125V0.0H5.55908203125V-50.2001953125Z M57.72416015625 0.0 75.58060546875001 -50.2001953125H85.01419921875001L103.20755859375001 0.0H94.88578125000001L85.11527343750001 -27.93017578125Q83.96976562500001 -31.3330078125 82.60526367187501 -35.94873046875Q81.24076171875001 -40.564453125 79.45511718750001 -47.033203125H81.00492187500001Q79.28666015625001 -40.4970703125 77.92215820312501 -35.830810546875Q76.55765625000001 -31.16455078125 75.51322265625001 -27.93017578125L66.04593750000001 0.0ZM67.39359375000001 -13.24072265625V-19.64208984375H93.50443359375001V-13.24072265625Z M133.54060546875002 0.84228515625Q127.914140625 0.84228515625 123.77009765625 -0.943359375Q119.6260546875 -2.72900390625 117.284501953125 -6.047607421875Q114.94294921875 -9.3662109375 114.707109375 -13.9482421875H122.42244140625Q122.65828125 -11.21923828125 124.191240234375 -9.43359375Q125.72419921875 -7.64794921875 128.18367187500002 -6.77197265625Q130.64314453125002 -5.89599609375 133.50691406250002 -5.89599609375Q136.70759765625002 -5.89599609375 139.18391601562502 -6.889892578125Q141.66023437500002 -7.8837890625 143.10896484375002 -9.719970703125Q144.55769531250002 -11.55615234375 144.55769531250002 -13.98193359375Q144.55769531250002 -16.171875 143.29426757812502 -17.570068359375Q142.03083984375002 -18.96826171875 139.89143554687502 -19.894775390625Q137.75203125000002 -20.8212890625 135.02302734375002 -21.52880859375L129.16072265625002 -23.14599609375Q122.9951953125 -24.796875 119.541826171875 -28.03125Q116.08845703125 -31.265625 116.08845703125 -36.42041015625Q116.08845703125 -40.7666015625 118.430009765625 -44.017822265625Q120.7715625 -47.26904296875 124.79768554687502 -49.071533203125Q128.82380859375002 -50.8740234375 133.87751953125002 -50.8740234375Q139.03230468750002 -50.8740234375 142.95735351562502 -49.071533203125Q146.88240234375002 -47.26904296875 149.12288085937502 -44.1357421875Q151.36335937500002 -41.00244140625 151.46443359375002 -36.9931640625H143.98494140625002Q143.61433593750002 -40.4296875 140.80110351562502 -42.31640625Q137.98787109375002 -44.203125 133.70906250000002 -44.203125Q130.67683593750002 -44.203125 128.43635742187502 -43.259765625Q126.19587890625 -42.31640625 124.966142578125 -40.648681640625Q123.73640625 -38.98095703125 123.73640625 -36.8583984375Q123.73640625 -34.46630859375 125.201982421875 -33.000732421875Q126.66755859375 -31.53515625 128.77327148437502 -30.676025390625Q130.87898437500002 -29.81689453125 132.79939453125002 -29.3115234375L137.68464843750002 -28.03125Q140.07673828125002 -27.4248046875 142.62043945312502 -26.397216796875Q145.16414062500002 -25.36962890625 147.32039062500002 -23.735595703125Q149.47664062500002 -22.1015625 150.80745117187502 -19.692626953125Q152.13826171875002 -17.28369140625 152.13826171875002 -13.880859375Q152.13826171875002 -9.6357421875 149.94832031250002 -6.30029296875Q147.75837890625002 -2.96484375 143.59749023437502 -1.061279296875Q139.43660156250002 0.84228515625 133.54060546875002 0.84228515625Z M167.4786328125 0.0V-50.2001953125H175.1602734375V-28.974609375H200.02453125V-50.2001953125H207.73986328125V0.0H200.02453125V-22.37109375H175.1602734375V0.0Z" fill="#F4A523"/></g><path transform="translate(237,440)" d="M2.7392578125 0.0V-24.736328125H11.853515625Q14.4931640625 -24.736328125 16.2197265625 -23.873046875Q17.9462890625 -23.009765625 18.79296875 -21.54052734375Q19.6396484375 -20.0712890625 19.6396484375 -18.2451171875Q19.6396484375 -16.701171875 19.0751953125 -15.64697265625Q18.5107421875 -14.5927734375 17.55615234375 -13.95361328125Q16.6015625 -13.314453125 15.4560546875 -13.015625V-12.7666015625Q16.701171875 -12.716796875 17.8798828125 -11.97802734375Q19.05859375 -11.2392578125 19.83056640625 -9.90283203125Q20.6025390625 -8.56640625 20.6025390625 -6.6572265625Q20.6025390625 -4.78125 19.71435546875 -3.2705078125Q18.826171875 -1.759765625 16.9833984375 -0.8798828125Q15.140625 0.0 12.251953125 0.0ZM6.5244140625 -3.25390625H11.8701171875Q14.5263671875 -3.25390625 15.6884765625 -4.283203125Q16.8505859375 -5.3125 16.8505859375 -6.83984375Q16.8505859375 -8.03515625 16.26123046875 -8.998046875Q15.671875 -9.9609375 14.5927734375 -10.53369140625Q13.513671875 -11.1064453125 12.01953125 -11.1064453125H6.5244140625ZM6.5244140625 -14.0283203125H11.48828125Q12.7333984375 -14.0283203125 13.74609375 -14.509765625Q14.7587890625 -14.9912109375 15.33984375 -15.87109375Q15.9208984375 -16.7509765625 15.9208984375 -17.9296875Q15.9208984375 -19.45703125 14.8583984375 -20.47802734375Q13.7958984375 -21.4990234375 11.587890625 -21.4990234375H6.5244140625Z M32.5888671875 0.3818359375Q29.982421875 0.3818359375 28.03173828125 -0.8134765625Q26.0810546875 -2.0087890625 25.001953125 -4.1669921875Q23.9228515625 -6.3251953125 23.9228515625 -9.1806640625Q23.9228515625 -12.0693359375 25.001953125 -14.23583984375Q26.0810546875 -16.40234375 28.03173828125 -17.59765625Q29.982421875 -18.79296875 32.5888671875 -18.79296875Q35.2119140625 -18.79296875 37.16259765625 -17.59765625Q39.11328125 -16.40234375 40.1923828125 -14.23583984375Q41.271484375 -12.0693359375 41.271484375 -9.1806640625Q41.271484375 -6.3251953125 40.1923828125 -4.1669921875Q39.11328125 -2.0087890625 37.16259765625 -0.8134765625Q35.2119140625 0.3818359375 32.5888671875 0.3818359375ZM32.5888671875 -2.7060546875Q34.2822265625 -2.7060546875 35.38623046875 -3.59423828125Q36.490234375 -4.482421875 37.02978515625 -5.95166015625Q37.5693359375 -7.4208984375 37.5693359375 -9.1806640625Q37.5693359375 -10.95703125 37.02978515625 -12.44287109375Q36.490234375 -13.9287109375 35.38623046875 -14.81689453125Q34.2822265625 -15.705078125 32.5888671875 -15.705078125Q30.912109375 -15.705078125 29.81640625 -14.81689453125Q28.720703125 -13.9287109375 28.18115234375 -12.451171875Q27.6416015625 -10.9736328125 27.6416015625 -9.1806640625Q27.6416015625 -7.4208984375 28.18115234375 -5.95166015625Q28.720703125 -4.482421875 29.81640625 -3.59423828125Q30.912109375 -2.7060546875 32.5888671875 -2.7060546875Z M53.125 0.3818359375Q50.5185546875 0.3818359375 48.56787109375 -0.8134765625Q46.6171875 -2.0087890625 45.5380859375 -4.1669921875Q44.458984375 -6.3251953125 44.458984375 -9.1806640625Q44.458984375 -12.0693359375 45.5380859375 -14.23583984375Q46.6171875 -16.40234375 48.56787109375 -17.59765625Q50.5185546875 -18.79296875 53.125 -18.79296875Q55.748046875 -18.79296875 57.69873046875 -17.59765625Q59.6494140625 -16.40234375 60.728515625 -14.23583984375Q61.8076171875 -12.0693359375 61.8076171875 -9.1806640625Q61.8076171875 -6.3251953125 60.728515625 -4.1669921875Q59.6494140625 -2.0087890625 57.69873046875 -0.8134765625Q55.748046875 0.3818359375 53.125 0.3818359375ZM53.125 -2.7060546875Q54.818359375 -2.7060546875 55.92236328125 -3.59423828125Q57.0263671875 -4.482421875 57.56591796875 -5.95166015625Q58.10546875 -7.4208984375 58.10546875 -9.1806640625Q58.10546875 -10.95703125 57.56591796875 -12.44287109375Q57.0263671875 -13.9287109375 55.92236328125 -14.81689453125Q54.818359375 -15.705078125 53.125 -15.705078125Q51.4482421875 -15.705078125 50.3525390625 -14.81689453125Q49.2568359375 -13.9287109375 48.71728515625 -12.451171875Q48.177734375 -10.9736328125 48.177734375 -9.1806640625Q48.177734375 -7.4208984375 48.71728515625 -5.95166015625Q49.2568359375 -4.482421875 50.3525390625 -3.59423828125Q51.4482421875 -2.7060546875 53.125 -2.7060546875Z M69.228515625 -6.2587890625V-10.724609375H69.8427734375L77.1640625 -18.560546875H81.546875L73.1630859375 -9.5791015625H72.548828125ZM65.8583984375 0.0V-24.736328125H69.5107421875V0.0ZM77.5458984375 0.0 70.955078125 -8.765625 73.478515625 -11.35546875 82.0615234375 0.0Z M84.8671875 0.0V-18.560546875H88.51953125V0.0ZM86.7099609375 -21.3994140625Q85.763671875 -21.3994140625 85.09130859375 -22.0302734375Q84.4189453125 -22.6611328125 84.4189453125 -23.5576171875Q84.4189453125 -24.470703125 85.09130859375 -25.1015625Q85.763671875 -25.732421875 86.7099609375 -25.732421875Q87.65625 -25.732421875 88.3369140625 -25.1015625Q89.017578125 -24.470703125 89.017578125 -23.5576171875Q89.017578125 -22.6611328125 88.3369140625 -22.0302734375Q87.65625 -21.3994140625 86.7099609375 -21.3994140625Z M97.0859375 -10.990234375V0.0H93.43359375V-18.560546875H96.919921875L96.953125 -14.01171875H96.5712890625Q97.384765625 -16.501953125 98.9287109375 -17.6474609375Q100.47265625 -18.79296875 102.6640625 -18.79296875Q104.556640625 -18.79296875 105.9677734375 -17.99609375Q107.37890625 -17.19921875 108.17578125 -15.64697265625Q108.97265625 -14.0947265625 108.97265625 -11.787109375V0.0H105.3203125V-11.3388671875Q105.3203125 -13.34765625 104.2744140625 -14.4765625Q103.228515625 -15.60546875 101.40234375 -15.60546875Q100.173828125 -15.60546875 99.1943359375 -15.06591796875Q98.21484375 -14.5263671875 97.650390625 -13.4970703125Q97.0859375 -12.4677734375 97.0859375 -10.990234375Z M121.6396484375 7.337890625Q119.498046875 7.337890625 117.9208984375 6.7900390625Q116.34375 6.2421875 115.32275390625 5.3291015625Q114.3017578125 4.416015625 113.7705078125 3.3037109375L116.8251953125 1.859375Q117.1572265625 2.390625 117.71337890625 2.97998046875Q118.26953125 3.5693359375 119.2158203125 3.984375Q120.162109375 4.3994140625 121.6396484375 4.3994140625Q123.7646484375 4.3994140625 125.08447265625 3.39501953125Q126.404296875 2.390625 126.404296875 0.2490234375V-3.3701171875H126.0888671875Q125.7568359375 -2.755859375 125.16748046875 -2.0419921875Q124.578125 -1.328125 123.52392578125 -0.80517578125Q122.4697265625 -0.2822265625 120.7763671875 -0.2822265625Q118.5849609375 -0.2822265625 116.83349609375 -1.3115234375Q115.08203125 -2.3408203125 114.052734375 -4.3662109375Q113.0234375 -6.3916015625 113.0234375 -9.3466796875Q113.0234375 -12.3017578125 114.04443359375 -14.41845703125Q115.0654296875 -16.53515625 116.83349609375 -17.6640625Q118.6015625 -18.79296875 120.826171875 -18.79296875Q122.5361328125 -18.79296875 123.60693359375 -18.228515625Q124.677734375 -17.6640625 125.28369140625 -16.89208984375Q125.8896484375 -16.1201171875 126.205078125 -15.5390625H126.470703125V-18.560546875H130.0400390625V0.265625Q130.0400390625 2.7060546875 128.93603515625 4.27490234375Q127.83203125 5.84375 125.93115234375 6.5908203125Q124.0302734375 7.337890625 121.6396484375 7.337890625ZM121.623046875 -3.3203125Q123.18359375 -3.3203125 124.25439453125 -4.04248046875Q125.3251953125 -4.7646484375 125.873046875 -6.13427734375Q126.4208984375 -7.50390625 126.4208984375 -9.396484375Q126.4208984375 -11.2724609375 125.873046875 -12.68359375Q125.3251953125 -14.0947265625 124.25439453125 -14.8916015625Q123.18359375 -15.6884765625 121.623046875 -15.6884765625Q120.0126953125 -15.6884765625 118.93359375 -14.85009765625Q117.8544921875 -14.01171875 117.306640625 -12.59228515625Q116.7587890625 -11.1728515625 116.7587890625 -9.396484375Q116.7587890625 -7.5869140625 117.306640625 -6.21728515625Q117.8544921875 -4.84765625 118.94189453125 -4.083984375Q120.029296875 -3.3203125 121.623046875 -3.3203125Z M141.611328125 0.3818359375Q139.6025390625 0.3818359375 138.03369140625 -0.19921875Q136.46484375 -0.7802734375 135.46044921875 -1.91748046875Q134.4560546875 -3.0546875 134.1240234375 -4.6982421875L137.560546875 -5.412109375Q137.9423828125 -3.9677734375 138.98828125 -3.2705078125Q140.0341796875 -2.5732421875 141.64453125 -2.5732421875Q143.404296875 -2.5732421875 144.4501953125 -3.31201171875Q145.49609375 -4.05078125 145.49609375 -5.080078125Q145.49609375 -5.9765625 144.85693359375 -6.5576171875Q144.2177734375 -7.138671875 142.8896484375 -7.4208984375L139.7685546875 -8.134765625Q137.1787109375 -8.7158203125 135.9169921875 -9.994140625Q134.6552734375 -11.2724609375 134.6552734375 -13.2646484375Q134.6552734375 -14.9248046875 135.5849609375 -16.169921875Q136.5146484375 -17.4150390625 138.125 -18.10400390625Q139.7353515625 -18.79296875 141.84375 -18.79296875Q143.8525390625 -18.79296875 145.2802734375 -18.2119140625Q146.7080078125 -17.630859375 147.59619140625 -16.5849609375Q148.484375 -15.5390625 148.8662109375 -14.1611328125L145.595703125 -13.447265625Q145.2470703125 -14.4267578125 144.3837890625 -15.16552734375Q143.5205078125 -15.904296875 141.876953125 -15.904296875Q140.3662109375 -15.904296875 139.353515625 -15.2236328125Q138.3408203125 -14.54296875 138.3408203125 -13.4970703125Q138.3408203125 -12.5673828125 139.01318359375 -11.99462890625Q139.685546875 -11.421875 141.212890625 -11.0732421875L144.201171875 -10.4091796875Q146.7744140625 -9.828125 148.01953125 -8.5830078125Q149.2646484375 -7.337890625 149.2646484375 -5.3955078125Q149.2646484375 -3.7021484375 148.29345703125 -2.39892578125Q147.322265625 -1.095703125 145.60400390625 -0.35693359375Q143.8857421875 0.3818359375 141.611328125 0.3818359375Z M165.0361328125 -9.296875Q164.0068359375 -9.296875 163.29296875 -10.0107421875Q162.5791015625 -10.724609375 162.5791015625 -11.7373046875Q162.5791015625 -12.7666015625 163.29296875 -13.47216796875Q164.0068359375 -14.177734375 165.0361328125 -14.177734375Q166.048828125 -14.177734375 166.7626953125 -13.47216796875Q167.4765625 -12.7666015625 167.4765625 -11.7373046875Q167.4765625 -10.724609375 166.7626953125 -10.0107421875Q166.048828125 -9.296875 165.0361328125 -9.296875Z M181.6875 -18.560546875H185.3564453125V1.1953125Q185.373046875 3.087890625 184.68408203125 4.3662109375Q183.9951171875 5.64453125 182.6669921875 6.2919921875Q181.3388671875 6.939453125 179.4130859375 6.939453125H178.6826171875V3.8017578125H179.263671875Q180.55859375 3.8017578125 181.123046875 3.12939453125Q181.6875 2.45703125 181.6875 1.1787109375ZM183.5302734375 -21.3994140625Q182.583984375 -21.3994140625 181.91162109375 -22.0302734375Q181.2392578125 -22.6611328125 181.2392578125 -23.5576171875Q181.2392578125 -24.470703125 181.91162109375 -25.1015625Q182.583984375 -25.732421875 183.5302734375 -25.732421875Q184.4765625 -25.732421875 185.1572265625 -25.1015625Q185.837890625 -24.470703125 185.837890625 -23.5576171875Q185.837890625 -22.6611328125 185.1572265625 -22.0302734375Q184.4765625 -21.3994140625 183.5302734375 -21.3994140625Z M198.0732421875 0.3818359375Q195.466796875 0.3818359375 193.51611328125 -0.8134765625Q191.5654296875 -2.0087890625 190.486328125 -4.1669921875Q189.4072265625 -6.3251953125 189.4072265625 -9.1806640625Q189.4072265625 -12.0693359375 190.486328125 -14.23583984375Q191.5654296875 -16.40234375 193.51611328125 -17.59765625Q195.466796875 -18.79296875 198.0732421875 -18.79296875Q200.6962890625 -18.79296875 202.64697265625 -17.59765625Q204.59765625 -16.40234375 205.6767578125 -14.23583984375Q206.755859375 -12.0693359375 206.755859375 -9.1806640625Q206.755859375 -6.3251953125 205.6767578125 -4.1669921875Q204.59765625 -2.0087890625 202.64697265625 -0.8134765625Q200.6962890625 0.3818359375 198.0732421875 0.3818359375ZM198.0732421875 -2.7060546875Q199.7666015625 -2.7060546875 200.87060546875 -3.59423828125Q201.974609375 -4.482421875 202.51416015625 -5.95166015625Q203.0537109375 -7.4208984375 203.0537109375 -9.1806640625Q203.0537109375 -10.95703125 202.51416015625 -12.44287109375Q201.974609375 -13.9287109375 200.87060546875 -14.81689453125Q199.7666015625 -15.705078125 198.0732421875 -15.705078125Q196.396484375 -15.705078125 195.30078125 -14.81689453125Q194.205078125 -13.9287109375 193.66552734375 -12.451171875Q193.1259765625 -10.9736328125 193.1259765625 -9.1806640625Q193.1259765625 -7.4208984375 193.66552734375 -5.95166015625Q194.205078125 -4.482421875 195.30078125 -3.59423828125Q196.396484375 -2.7060546875 198.0732421875 -2.7060546875Z M220.0205078125 0.365234375Q218.34375 0.365234375 217.27294921875 -0.20751953125Q216.2021484375 -0.7802734375 215.59619140625 -1.5439453125Q214.990234375 -2.3076171875 214.658203125 -2.9052734375H214.359375V0.0H210.806640625V-24.736328125H214.458984375V-15.5390625H214.658203125Q214.990234375 -16.1201171875 215.57958984375 -16.8837890625Q216.1689453125 -17.6474609375 217.22314453125 -18.22021484375Q218.27734375 -18.79296875 220.0205078125 -18.79296875Q222.2451171875 -18.79296875 223.99658203125 -17.6640625Q225.748046875 -16.53515625 226.7607421875 -14.3935546875Q227.7734375 -12.251953125 227.7734375 -9.23046875Q227.7734375 -6.2421875 226.77734375 -4.09228515625Q225.78125 -1.9423828125 224.02978515625 -0.78857421875Q222.2783203125 0.365234375 220.0205078125 0.365234375ZM219.20703125 -2.7392578125Q220.80078125 -2.7392578125 221.8798828125 -3.6025390625Q222.958984375 -4.4658203125 223.49853515625 -5.943359375Q224.0380859375 -7.4208984375 224.0380859375 -9.263671875Q224.0380859375 -11.08984375 223.49853515625 -12.54248046875Q222.958984375 -13.9951171875 221.88818359375 -14.841796875Q220.8173828125 -15.6884765625 219.20703125 -15.6884765625Q217.646484375 -15.6884765625 216.5673828125 -14.88330078125Q215.48828125 -14.078125 214.9404296875 -12.64208984375Q214.392578125 -11.2060546875 214.392578125 -9.263671875Q214.392578125 -7.337890625 214.94873046875 -5.86865234375Q215.5048828125 -4.3994140625 216.583984375 -3.5693359375Q217.6630859375 -2.7392578125 219.20703125 -2.7392578125Z M247.5458984375 0.3818359375Q245.537109375 0.3818359375 243.96826171875 -0.19921875Q242.3994140625 -0.7802734375 241.39501953125 -1.91748046875Q240.390625 -3.0546875 240.05859375 -4.6982421875L243.4951171875 -5.412109375Q243.876953125 -3.9677734375 244.9228515625 -3.2705078125Q245.96875 -2.5732421875 247.5791015625 -2.5732421875Q249.3388671875 -2.5732421875 250.384765625 -3.31201171875Q251.4306640625 -4.05078125 251.4306640625 -5.080078125Q251.4306640625 -5.9765625 250.79150390625 -6.5576171875Q250.15234375 -7.138671875 248.82421875 -7.4208984375L245.703125 -8.134765625Q243.11328125 -8.7158203125 241.8515625 -9.994140625Q240.58984375 -11.2724609375 240.58984375 -13.2646484375Q240.58984375 -14.9248046875 241.51953125 -16.169921875Q242.44921875 -17.4150390625 244.0595703125 -18.10400390625Q245.669921875 -18.79296875 247.7783203125 -18.79296875Q249.787109375 -18.79296875 251.21484375 -18.2119140625Q252.642578125 -17.630859375 253.53076171875 -16.5849609375Q254.4189453125 -15.5390625 254.80078125 -14.1611328125L251.5302734375 -13.447265625Q251.181640625 -14.4267578125 250.318359375 -15.16552734375Q249.455078125 -15.904296875 247.8115234375 -15.904296875Q246.30078125 -15.904296875 245.2880859375 -15.2236328125Q244.275390625 -14.54296875 244.275390625 -13.4970703125Q244.275390625 -12.5673828125 244.94775390625 -11.99462890625Q245.6201171875 -11.421875 247.1474609375 -11.0732421875L250.1357421875 -10.4091796875Q252.708984375 -9.828125 253.9541015625 -8.5830078125Q255.19921875 -7.337890625 255.19921875 -5.3955078125Q255.19921875 -3.7021484375 254.22802734375 -2.39892578125Q253.2568359375 -1.095703125 251.53857421875 -0.35693359375Q249.8203125 0.3818359375 247.5458984375 0.3818359375Z M262.8525390625 -10.990234375V0.0H259.2001953125V-24.736328125H262.8193359375V-14.01171875H262.337890625Q263.1513671875 -16.501953125 264.6953125 -17.6474609375Q266.2392578125 -18.79296875 268.4306640625 -18.79296875Q270.3232421875 -18.79296875 271.74267578125 -17.99609375Q273.162109375 -17.19921875 273.95068359375 -15.64697265625Q274.7392578125 -14.0947265625 274.7392578125 -11.787109375V0.0H271.0869140625V-11.3388671875Q271.0869140625 -13.34765625 270.041015625 -14.4765625Q268.9951171875 -15.60546875 267.1689453125 -15.60546875Q265.9404296875 -15.60546875 264.9609375 -15.06591796875Q263.9814453125 -14.5263671875 263.4169921875 -13.4970703125Q262.8525390625 -12.4677734375 262.8525390625 -10.990234375Z M287.6552734375 0.3818359375Q284.916015625 0.3818359375 282.923828125 -0.796875Q280.931640625 -1.9755859375 279.86083984375 -4.1171875Q278.7900390625 -6.2587890625 278.7900390625 -9.1474609375Q278.7900390625 -12.0029296875 279.84423828125 -14.177734375Q280.8984375 -16.3525390625 282.82421875 -17.57275390625Q284.75 -18.79296875 287.33984375 -18.79296875Q288.93359375 -18.79296875 290.4111328125 -18.27001953125Q291.888671875 -17.7470703125 293.0673828125 -16.634765625Q294.24609375 -15.5224609375 294.93505859375 -13.75439453125Q295.6240234375 -11.986328125 295.6240234375 -9.462890625V-8.16796875H280.83203125V-10.890625H293.748046875L292.0380859375 -9.994140625Q292.0380859375 -11.7041015625 291.5068359375 -13.00732421875Q290.9755859375 -14.310546875 289.93798828125 -15.041015625Q288.900390625 -15.771484375 287.33984375 -15.771484375Q285.7958984375 -15.771484375 284.7001953125 -15.0244140625Q283.6044921875 -14.27734375 283.03173828125 -13.05712890625Q282.458984375 -11.8369140625 282.458984375 -10.392578125V-8.533203125Q282.458984375 -6.6240234375 283.11474609375 -5.30419921875Q283.7705078125 -3.984375 284.94921875 -3.31201171875Q286.1279296875 -2.6396484375 287.6884765625 -2.6396484375Q288.7177734375 -2.6396484375 289.5478515625 -2.93017578125Q290.3779296875 -3.220703125 290.98388671875 -3.81005859375Q291.58984375 -4.3994140625 291.9052734375 -5.2626953125L295.341796875 -4.44921875Q294.8935546875 -3.021484375 293.83935546875 -1.92578125Q292.78515625 -0.830078125 291.21630859375 -0.22412109375Q289.6474609375 0.3818359375 287.6552734375 0.3818359375Z M307.626953125 0.3818359375Q304.8876953125 0.3818359375 302.8955078125 -0.796875Q300.9033203125 -1.9755859375 299.83251953125 -4.1171875Q298.76171875 -6.2587890625 298.76171875 -9.1474609375Q298.76171875 -12.0029296875 299.81591796875 -14.177734375Q300.8701171875 -16.3525390625 302.7958984375 -17.57275390625Q304.7216796875 -18.79296875 307.3115234375 -18.79296875Q308.9052734375 -18.79296875 310.3828125 -18.27001953125Q311.8603515625 -17.7470703125 313.0390625 -16.634765625Q314.2177734375 -15.5224609375 314.90673828125 -13.75439453125Q315.595703125 -11.986328125 315.595703125 -9.462890625V-8.16796875H300.8037109375V-10.890625H313.7197265625L312.009765625 -9.994140625Q312.009765625 -11.7041015625 311.478515625 -13.00732421875Q310.947265625 -14.310546875 309.90966796875 -15.041015625Q308.8720703125 -15.771484375 307.3115234375 -15.771484375Q305.767578125 -15.771484375 304.671875 -15.0244140625Q303.576171875 -14.27734375 303.00341796875 -13.05712890625Q302.4306640625 -11.8369140625 302.4306640625 -10.392578125V-8.533203125Q302.4306640625 -6.6240234375 303.08642578125 -5.30419921875Q303.7421875 -3.984375 304.9208984375 -3.31201171875Q306.099609375 -2.6396484375 307.66015625 -2.6396484375Q308.689453125 -2.6396484375 309.51953125 -2.93017578125Q310.349609375 -3.220703125 310.95556640625 -3.81005859375Q311.5615234375 -4.3994140625 311.876953125 -5.2626953125L315.3134765625 -4.44921875Q314.865234375 -3.021484375 313.81103515625 -1.92578125Q312.7568359375 -0.830078125 311.18798828125 -0.22412109375Q309.619140625 0.3818359375 307.626953125 0.3818359375Z M327.5322265625 -18.560546875V-15.5888671875H317.4716796875V-18.560546875ZM320.177734375 -22.9765625H323.830078125V-5.013671875Q323.830078125 -3.9013671875 324.30322265625 -3.37841796875Q324.7763671875 -2.85546875 325.85546875 -2.85546875Q326.1376953125 -2.85546875 326.6025390625 -2.921875Q327.0673828125 -2.98828125 327.3994140625 -3.0546875L328.046875 -0.1328125Q327.4658203125 0.06640625 326.8017578125 0.15771484375Q326.1376953125 0.2490234375 325.490234375 0.2490234375Q322.966796875 0.2490234375 321.572265625 -1.05419921875Q320.177734375 -2.357421875 320.177734375 -4.71484375Z M337.8251953125 0.3818359375Q335.81640625 0.3818359375 334.24755859375 -0.19921875Q332.6787109375 -0.7802734375 331.67431640625 -1.91748046875Q330.669921875 -3.0546875 330.337890625 -4.6982421875L333.7744140625 -5.412109375Q334.15625 -3.9677734375 335.2021484375 -3.2705078125Q336.248046875 -2.5732421875 337.8583984375 -2.5732421875Q339.6181640625 -2.5732421875 340.6640625 -3.31201171875Q341.7099609375 -4.05078125 341.7099609375 -5.080078125Q341.7099609375 -5.9765625 341.07080078125 -6.5576171875Q340.431640625 -7.138671875 339.103515625 -7.4208984375L335.982421875 -8.134765625Q333.392578125 -8.7158203125 332.130859375 -9.994140625Q330.869140625 -11.2724609375 330.869140625 -13.2646484375Q330.869140625 -14.9248046875 331.798828125 -16.169921875Q332.728515625 -17.4150390625 334.3388671875 -18.10400390625Q335.94921875 -18.79296875 338.0576171875 -18.79296875Q340.06640625 -18.79296875 341.494140625 -18.2119140625Q342.921875 -17.630859375 343.81005859375 -16.5849609375Q344.6982421875 -15.5390625 345.080078125 -14.1611328125L341.8095703125 -13.447265625Q341.4609375 -14.4267578125 340.59765625 -15.16552734375Q339.734375 -15.904296875 338.0908203125 -15.904296875Q336.580078125 -15.904296875 335.5673828125 -15.2236328125Q334.5546875 -14.54296875 334.5546875 -13.4970703125Q334.5546875 -12.5673828125 335.22705078125 -11.99462890625Q335.8994140625 -11.421875 337.4267578125 -11.0732421875L340.4150390625 -10.4091796875Q342.98828125 -9.828125 344.2333984375 -8.5830078125Q345.478515625 -7.337890625 345.478515625 -5.3955078125Q345.478515625 -3.7021484375 344.50732421875 -2.39892578125Q343.5361328125 -1.095703125 341.81787109375 -0.35693359375Q340.099609375 0.3818359375 337.8251953125 0.3818359375Z M361.25 -9.296875Q360.220703125 -9.296875 359.5068359375 -10.0107421875Q358.79296875 -10.724609375 358.79296875 -11.7373046875Q358.79296875 -12.7666015625 359.5068359375 -13.47216796875Q360.220703125 -14.177734375 361.25 -14.177734375Q362.2626953125 -14.177734375 362.9765625 -13.47216796875Q363.6904296875 -12.7666015625 363.6904296875 -11.7373046875Q363.6904296875 -10.724609375 362.9765625 -10.0107421875Q362.2626953125 -9.296875 361.25 -9.296875Z M377.91796875 0.0V-18.560546875H381.5703125V0.0ZM379.7607421875 -21.3994140625Q378.814453125 -21.3994140625 378.14208984375 -22.0302734375Q377.4697265625 -22.6611328125 377.4697265625 -23.5576171875Q377.4697265625 -24.470703125 378.14208984375 -25.1015625Q378.814453125 -25.732421875 379.7607421875 -25.732421875Q380.70703125 -25.732421875 381.3876953125 -25.1015625Q382.068359375 -24.470703125 382.068359375 -23.5576171875Q382.068359375 -22.6611328125 381.3876953125 -22.0302734375Q380.70703125 -21.3994140625 379.7607421875 -21.3994140625Z M390.13671875 -10.990234375V0.0H386.484375V-18.560546875H389.970703125L390.00390625 -14.01171875H389.6220703125Q390.435546875 -16.501953125 391.9794921875 -17.6474609375Q393.5234375 -18.79296875 395.71484375 -18.79296875Q397.607421875 -18.79296875 399.0185546875 -17.99609375Q400.4296875 -17.19921875 401.2265625 -15.64697265625Q402.0234375 -14.0947265625 402.0234375 -11.787109375V0.0H398.37109375V-11.3388671875Q398.37109375 -13.34765625 397.3251953125 -14.4765625Q396.279296875 -15.60546875 394.453125 -15.60546875Q393.224609375 -15.60546875 392.2451171875 -15.06591796875Q391.265625 -14.5263671875 390.701171875 -13.4970703125Q390.13671875 -12.4677734375 390.13671875 -10.990234375Z M412.25 0.0 405.244140625 -18.560546875H409.1953125L412.8642578125 -8.0185546875Q413.478515625 -6.275390625 413.91015625 -4.52392578125Q414.341796875 -2.7724609375 414.8232421875 -1.0458984375H413.7275390625Q414.1923828125 -2.7724609375 414.6240234375 -4.52392578125Q415.0556640625 -6.275390625 415.6533203125 -8.0185546875L419.322265625 -18.560546875H423.240234375L416.234375 0.0Z M434.2802734375 0.3818359375Q431.673828125 0.3818359375 429.72314453125 -0.8134765625Q427.7724609375 -2.0087890625 426.693359375 -4.1669921875Q425.6142578125 -6.3251953125 425.6142578125 -9.1806640625Q425.6142578125 -12.0693359375 426.693359375 -14.23583984375Q427.7724609375 -16.40234375 429.72314453125 -17.59765625Q431.673828125 -18.79296875 434.2802734375 -18.79296875Q436.9033203125 -18.79296875 438.85400390625 -17.59765625Q440.8046875 -16.40234375 441.8837890625 -14.23583984375Q442.962890625 -12.0693359375 442.962890625 -9.1806640625Q442.962890625 -6.3251953125 441.8837890625 -4.1669921875Q440.8046875 -2.0087890625 438.85400390625 -0.8134765625Q436.9033203125 0.3818359375 434.2802734375 0.3818359375ZM434.2802734375 -2.7060546875Q435.9736328125 -2.7060546875 437.07763671875 -3.59423828125Q438.181640625 -4.482421875 438.72119140625 -5.95166015625Q439.2607421875 -7.4208984375 439.2607421875 -9.1806640625Q439.2607421875 -10.95703125 438.72119140625 -12.44287109375Q438.181640625 -13.9287109375 437.07763671875 -14.81689453125Q435.9736328125 -15.705078125 434.2802734375 -15.705078125Q432.603515625 -15.705078125 431.5078125 -14.81689453125Q430.412109375 -13.9287109375 429.87255859375 -12.451171875Q429.3330078125 -10.9736328125 429.3330078125 -9.1806640625Q429.3330078125 -7.4208984375 429.87255859375 -5.95166015625Q430.412109375 -4.482421875 431.5078125 -3.59423828125Q432.603515625 -2.7060546875 434.2802734375 -2.7060546875Z M447.013671875 0.0V-18.560546875H450.666015625V0.0ZM448.8564453125 -21.3994140625Q447.91015625 -21.3994140625 447.23779296875 -22.0302734375Q446.5654296875 -22.6611328125 446.5654296875 -23.5576171875Q446.5654296875 -24.470703125 447.23779296875 -25.1015625Q447.91015625 -25.732421875 448.8564453125 -25.732421875Q449.802734375 -25.732421875 450.4833984375 -25.1015625Q451.1640625 -24.470703125 451.1640625 -23.5576171875Q451.1640625 -22.6611328125 450.4833984375 -22.0302734375Q449.802734375 -21.3994140625 448.8564453125 -21.3994140625Z M463.3828125 0.3818359375Q460.759765625 0.3818359375 458.8173828125 -0.8134765625Q456.875 -2.0087890625 455.7958984375 -4.1669921875Q454.716796875 -6.3251953125 454.716796875 -9.1806640625Q454.716796875 -12.0693359375 455.7958984375 -14.23583984375Q456.875 -16.40234375 458.8173828125 -17.59765625Q460.759765625 -18.79296875 463.3828125 -18.79296875Q464.8271484375 -18.79296875 466.0888671875 -18.41943359375Q467.3505859375 -18.0458984375 468.37158203125 -17.34033203125Q469.392578125 -16.634765625 470.09814453125 -15.61376953125Q470.8037109375 -14.5927734375 471.15234375 -13.314453125L467.6826171875 -12.484375Q467.5 -13.1982421875 467.1181640625 -13.78759765625Q466.736328125 -14.376953125 466.19677734375 -14.80859375Q465.6572265625 -15.240234375 464.95166015625 -15.47265625Q464.24609375 -15.705078125 463.3994140625 -15.705078125Q461.72265625 -15.705078125 460.61865234375 -14.81689453125Q459.5146484375 -13.9287109375 458.97509765625 -12.451171875Q458.435546875 -10.9736328125 458.435546875 -9.1806640625Q458.435546875 -7.404296875 458.97509765625 -5.93505859375Q459.5146484375 -4.4658203125 460.61865234375 -3.5859375Q461.72265625 -2.7060546875 463.3994140625 -2.7060546875Q464.2626953125 -2.7060546875 464.9765625 -2.94677734375Q465.6904296875 -3.1875 466.2548828125 -3.62744140625Q466.8193359375 -4.0673828125 467.201171875 -4.68994140625Q467.5830078125 -5.3125 467.7490234375 -6.0595703125L471.2021484375 -5.2294921875Q470.8701171875 -3.91796875 470.15625 -2.88037109375Q469.4423828125 -1.8427734375 468.42138671875 -1.1123046875Q467.400390625 -0.3818359375 466.1220703125 0.0Q464.84375 0.3818359375 463.3828125 0.3818359375Z M483.205078125 0.3818359375Q480.4658203125 0.3818359375 478.4736328125 -0.796875Q476.4814453125 -1.9755859375 475.41064453125 -4.1171875Q474.33984375 -6.2587890625 474.33984375 -9.1474609375Q474.33984375 -12.0029296875 475.39404296875 -14.177734375Q476.4482421875 -16.3525390625 478.3740234375 -17.57275390625Q480.2998046875 -18.79296875 482.8896484375 -18.79296875Q484.4833984375 -18.79296875 485.9609375 -18.27001953125Q487.4384765625 -17.7470703125 488.6171875 -16.634765625Q489.7958984375 -15.5224609375 490.48486328125 -13.75439453125Q491.173828125 -11.986328125 491.173828125 -9.462890625V-8.16796875H476.3818359375V-10.890625H489.2978515625L487.587890625 -9.994140625Q487.587890625 -11.7041015625 487.056640625 -13.00732421875Q486.525390625 -14.310546875 485.48779296875 -15.041015625Q484.4501953125 -15.771484375 482.8896484375 -15.771484375Q481.345703125 -15.771484375 480.25 -15.0244140625Q479.154296875 -14.27734375 478.58154296875 -13.05712890625Q478.0087890625 -11.8369140625 478.0087890625 -10.392578125V-8.533203125Q478.0087890625 -6.6240234375 478.66455078125 -5.30419921875Q479.3203125 -3.984375 480.4990234375 -3.31201171875Q481.677734375 -2.6396484375 483.23828125 -2.6396484375Q484.267578125 -2.6396484375 485.09765625 -2.93017578125Q485.927734375 -3.220703125 486.53369140625 -3.81005859375Q487.1396484375 -4.3994140625 487.455078125 -5.2626953125L490.8916015625 -4.44921875Q490.443359375 -3.021484375 489.38916015625 -1.92578125Q488.3349609375 -0.830078125 486.76611328125 -0.22412109375Q485.197265625 0.3818359375 483.205078125 0.3818359375Z M501.83203125 0.3818359375Q499.8232421875 0.3818359375 498.25439453125 -0.19921875Q496.685546875 -0.7802734375 495.68115234375 -1.91748046875Q494.6767578125 -3.0546875 494.3447265625 -4.6982421875L497.78125 -5.412109375Q498.1630859375 -3.9677734375 499.208984375 -3.2705078125Q500.2548828125 -2.5732421875 501.865234375 -2.5732421875Q503.625 -2.5732421875 504.6708984375 -3.31201171875Q505.716796875 -4.05078125 505.716796875 -5.080078125Q505.716796875 -5.9765625 505.07763671875 -6.5576171875Q504.4384765625 -7.138671875 503.1103515625 -7.4208984375L499.9892578125 -8.134765625Q497.3994140625 -8.7158203125 496.1376953125 -9.994140625Q494.8759765625 -11.2724609375 494.8759765625 -13.2646484375Q494.8759765625 -14.9248046875 495.8056640625 -16.169921875Q496.7353515625 -17.4150390625 498.345703125 -18.10400390625Q499.9560546875 -18.79296875 502.064453125 -18.79296875Q504.0732421875 -18.79296875 505.5009765625 -18.2119140625Q506.9287109375 -17.630859375 507.81689453125 -16.5849609375Q508.705078125 -15.5390625 509.0869140625 -14.1611328125L505.81640625 -13.447265625Q505.4677734375 -14.4267578125 504.6044921875 -15.16552734375Q503.7412109375 -15.904296875 502.09765625 -15.904296875Q500.5869140625 -15.904296875 499.57421875 -15.2236328125Q498.5615234375 -14.54296875 498.5615234375 -13.4970703125Q498.5615234375 -12.5673828125 499.23388671875 -11.99462890625Q499.90625 -11.421875 501.43359375 -11.0732421875L504.421875 -10.4091796875Q506.9951171875 -9.828125 508.240234375 -8.5830078125Q509.4853515625 -7.337890625 509.4853515625 -5.3955078125Q509.4853515625 -3.7021484375 508.51416015625 -2.39892578125Q507.54296875 -1.095703125 505.82470703125 -0.35693359375Q504.1064453125 0.3818359375 501.83203125 0.3818359375Z M525.2568359375 -9.296875Q524.2275390625 -9.296875 523.513671875 -10.0107421875Q522.7998046875 -10.724609375 522.7998046875 -11.7373046875Q522.7998046875 -12.7666015625 523.513671875 -13.47216796875Q524.2275390625 -14.177734375 525.2568359375 -14.177734375Q526.26953125 -14.177734375 526.9833984375 -13.47216796875Q527.697265625 -12.7666015625 527.697265625 -11.7373046875Q527.697265625 -10.724609375 526.9833984375 -10.0107421875Q526.26953125 -9.296875 525.2568359375 -9.296875Z M541.9248046875 0.0V-18.560546875H545.5771484375V0.0ZM543.767578125 -21.3994140625Q542.8212890625 -21.3994140625 542.14892578125 -22.0302734375Q541.4765625 -22.6611328125 541.4765625 -23.5576171875Q541.4765625 -24.470703125 542.14892578125 -25.1015625Q542.8212890625 -25.732421875 543.767578125 -25.732421875Q544.7138671875 -25.732421875 545.39453125 -25.1015625Q546.0751953125 -24.470703125 546.0751953125 -23.5576171875Q546.0751953125 -22.6611328125 545.39453125 -22.0302734375Q544.7138671875 -21.3994140625 543.767578125 -21.3994140625Z M554.1435546875 -10.990234375V0.0H550.4912109375V-18.560546875H553.9775390625L554.0107421875 -14.01171875H553.62890625Q554.4423828125 -16.501953125 555.986328125 -17.6474609375Q557.5302734375 -18.79296875 559.7216796875 -18.79296875Q561.6142578125 -18.79296875 563.025390625 -17.99609375Q564.4365234375 -17.19921875 565.2333984375 -15.64697265625Q566.0302734375 -14.0947265625 566.0302734375 -11.787109375V0.0H562.3779296875V-11.3388671875Q562.3779296875 -13.34765625 561.33203125 -14.4765625Q560.2861328125 -15.60546875 558.4599609375 -15.60546875Q557.2314453125 -15.60546875 556.251953125 -15.06591796875Q555.2724609375 -14.5263671875 554.7080078125 -13.4970703125Q554.1435546875 -12.4677734375 554.1435546875 -10.990234375Z M577.6015625 0.3818359375Q575.5927734375 0.3818359375 574.02392578125 -0.19921875Q572.455078125 -0.7802734375 571.45068359375 -1.91748046875Q570.4462890625 -3.0546875 570.1142578125 -4.6982421875L573.55078125 -5.412109375Q573.9326171875 -3.9677734375 574.978515625 -3.2705078125Q576.0244140625 -2.5732421875 577.634765625 -2.5732421875Q579.39453125 -2.5732421875 580.4404296875 -3.31201171875Q581.486328125 -4.05078125 581.486328125 -5.080078125Q581.486328125 -5.9765625 580.84716796875 -6.5576171875Q580.2080078125 -7.138671875 578.8798828125 -7.4208984375L575.7587890625 -8.134765625Q573.1689453125 -8.7158203125 571.9072265625 -9.994140625Q570.6455078125 -11.2724609375 570.6455078125 -13.2646484375Q570.6455078125 -14.9248046875 571.5751953125 -16.169921875Q572.5048828125 -17.4150390625 574.115234375 -18.10400390625Q575.7255859375 -18.79296875 577.833984375 -18.79296875Q579.8427734375 -18.79296875 581.2705078125 -18.2119140625Q582.6982421875 -17.630859375 583.58642578125 -16.5849609375Q584.474609375 -15.5390625 584.8564453125 -14.1611328125L581.5859375 -13.447265625Q581.2373046875 -14.4267578125 580.3740234375 -15.16552734375Q579.5107421875 -15.904296875 577.8671875 -15.904296875Q576.3564453125 -15.904296875 575.34375 -15.2236328125Q574.3310546875 -14.54296875 574.3310546875 -13.4970703125Q574.3310546875 -12.5673828125 575.00341796875 -11.99462890625Q575.67578125 -11.421875 577.203125 -11.0732421875L580.19140625 -10.4091796875Q582.7646484375 -9.828125 584.009765625 -8.5830078125Q585.2548828125 -7.337890625 585.2548828125 -5.3955078125Q585.2548828125 -3.7021484375 584.28369140625 -2.39892578125Q583.3125 -1.095703125 581.59423828125 -0.35693359375Q579.8759765625 0.3818359375 577.6015625 0.3818359375Z M589.255859375 6.939453125V-18.560546875H592.80859375V-15.5390625H593.107421875Q593.439453125 -16.1201171875 594.02880859375 -16.8837890625Q594.6181640625 -17.6474609375 595.67236328125 -18.22021484375Q596.7265625 -18.79296875 598.4697265625 -18.79296875Q600.6943359375 -18.79296875 602.44580078125 -17.6640625Q604.197265625 -16.53515625 605.2099609375 -14.3935546875Q606.22265625 -12.251953125 606.22265625 -9.23046875Q606.22265625 -6.2421875 605.2265625 -4.09228515625Q604.23046875 -1.9423828125 602.47900390625 -0.78857421875Q600.7275390625 0.365234375 598.4697265625 0.365234375Q596.79296875 0.365234375 595.72216796875 -0.20751953125Q594.6513671875 -0.7802734375 594.04541015625 -1.5439453125Q593.439453125 -2.3076171875 593.107421875 -2.9052734375H592.908203125V6.939453125ZM597.65625 -2.7392578125Q599.25 -2.7392578125 600.3291015625 -3.6025390625Q601.408203125 -4.4658203125 601.94775390625 -5.943359375Q602.4873046875 -7.4208984375 602.4873046875 -9.263671875Q602.4873046875 -11.08984375 601.94775390625 -12.54248046875Q601.408203125 -13.9951171875 600.33740234375 -14.841796875Q599.2666015625 -15.6884765625 597.65625 -15.6884765625Q596.095703125 -15.6884765625 595.0166015625 -14.88330078125Q593.9375 -14.078125 593.3896484375 -12.64208984375Q592.841796875 -11.2060546875 592.841796875 -9.263671875Q592.841796875 -7.337890625 593.39794921875 -5.86865234375Q593.9541015625 -4.3994140625 595.033203125 -3.5693359375Q596.1123046875 -2.7392578125 597.65625 -2.7392578125Z M618.275390625 0.3818359375Q615.5361328125 0.3818359375 613.5439453125 -0.796875Q611.5517578125 -1.9755859375 610.48095703125 -4.1171875Q609.41015625 -6.2587890625 609.41015625 -9.1474609375Q609.41015625 -12.0029296875 610.46435546875 -14.177734375Q611.5185546875 -16.3525390625 613.4443359375 -17.57275390625Q615.3701171875 -18.79296875 617.9599609375 -18.79296875Q619.5537109375 -18.79296875 621.03125 -18.27001953125Q622.5087890625 -17.7470703125 623.6875 -16.634765625Q624.8662109375 -15.5224609375 625.55517578125 -13.75439453125Q626.244140625 -11.986328125 626.244140625 -9.462890625V-8.16796875H611.4521484375V-10.890625H624.3681640625L622.658203125 -9.994140625Q622.658203125 -11.7041015625 622.126953125 -13.00732421875Q621.595703125 -14.310546875 620.55810546875 -15.041015625Q619.5205078125 -15.771484375 617.9599609375 -15.771484375Q616.416015625 -15.771484375 615.3203125 -15.0244140625Q614.224609375 -14.27734375 613.65185546875 -13.05712890625Q613.0791015625 -11.8369140625 613.0791015625 -10.392578125V-8.533203125Q613.0791015625 -6.6240234375 613.73486328125 -5.30419921875Q614.390625 -3.984375 615.5693359375 -3.31201171875Q616.748046875 -2.6396484375 618.30859375 -2.6396484375Q619.337890625 -2.6396484375 620.16796875 -2.93017578125Q620.998046875 -3.220703125 621.60400390625 -3.81005859375Q622.2099609375 -4.3994140625 622.525390625 -5.2626953125L625.9619140625 -4.44921875Q625.513671875 -3.021484375 624.45947265625 -1.92578125Q623.4052734375 -0.830078125 621.83642578125 -0.22412109375Q620.267578125 0.3818359375 618.275390625 0.3818359375Z M638.0478515625 0.3818359375Q635.4248046875 0.3818359375 633.482421875 -0.8134765625Q631.5400390625 -2.0087890625 630.4609375 -4.1669921875Q629.3818359375 -6.3251953125 629.3818359375 -9.1806640625Q629.3818359375 -12.0693359375 630.4609375 -14.23583984375Q631.5400390625 -16.40234375 633.482421875 -17.59765625Q635.4248046875 -18.79296875 638.0478515625 -18.79296875Q639.4921875 -18.79296875 640.75390625 -18.41943359375Q642.015625 -18.0458984375 643.03662109375 -17.34033203125Q644.0576171875 -16.634765625 644.76318359375 -15.61376953125Q645.46875 -14.5927734375 645.8173828125 -13.314453125L642.34765625 -12.484375Q642.1650390625 -13.1982421875 641.783203125 -13.78759765625Q641.4013671875 -14.376953125 640.86181640625 -14.80859375Q640.322265625 -15.240234375 639.61669921875 -15.47265625Q638.9111328125 -15.705078125 638.064453125 -15.705078125Q636.3876953125 -15.705078125 635.28369140625 -14.81689453125Q634.1796875 -13.9287109375 633.64013671875 -12.451171875Q633.1005859375 -10.9736328125 633.1005859375 -9.1806640625Q633.1005859375 -7.404296875 633.64013671875 -5.93505859375Q634.1796875 -4.4658203125 635.28369140625 -3.5859375Q636.3876953125 -2.7060546875 638.064453125 -2.7060546875Q638.927734375 -2.7060546875 639.6416015625 -2.94677734375Q640.35546875 -3.1875 640.919921875 -3.62744140625Q641.484375 -4.0673828125 641.8662109375 -4.68994140625Q642.248046875 -5.3125 642.4140625 -6.0595703125L645.8671875 -5.2294921875Q645.53515625 -3.91796875 644.8212890625 -2.88037109375Q644.107421875 -1.8427734375 643.08642578125 -1.1123046875Q642.0654296875 -0.3818359375 640.787109375 0.0Q639.5087890625 0.3818359375 638.0478515625 0.3818359375Z M657.8037109375 -18.560546875V-15.5888671875H647.7431640625V-18.560546875ZM650.44921875 -22.9765625H654.1015625V-5.013671875Q654.1015625 -3.9013671875 654.57470703125 -3.37841796875Q655.0478515625 -2.85546875 656.126953125 -2.85546875Q656.4091796875 -2.85546875 656.8740234375 -2.921875Q657.3388671875 -2.98828125 657.6708984375 -3.0546875L658.318359375 -0.1328125Q657.7373046875 0.06640625 657.0732421875 0.15771484375Q656.4091796875 0.2490234375 655.76171875 0.2490234375Q653.23828125 0.2490234375 651.84375 -1.05419921875Q650.44921875 -2.357421875 650.44921875 -4.71484375Z M661.439453125 0.0V-18.560546875H665.091796875V0.0ZM663.2822265625 -21.3994140625Q662.3359375 -21.3994140625 661.66357421875 -22.0302734375Q660.9912109375 -22.6611328125 660.9912109375 -23.5576171875Q660.9912109375 -24.470703125 661.66357421875 -25.1015625Q662.3359375 -25.732421875 663.2822265625 -25.732421875Q664.228515625 -25.732421875 664.9091796875 -25.1015625Q665.58984375 -24.470703125 665.58984375 -23.5576171875Q665.58984375 -22.6611328125 664.9091796875 -22.0302734375Q664.228515625 -21.3994140625 663.2822265625 -21.3994140625Z M677.80859375 0.3818359375Q675.2021484375 0.3818359375 673.25146484375 -0.8134765625Q671.30078125 -2.0087890625 670.2216796875 -4.1669921875Q669.142578125 -6.3251953125 669.142578125 -9.1806640625Q669.142578125 -12.0693359375 670.2216796875 -14.23583984375Q671.30078125 -16.40234375 673.25146484375 -17.59765625Q675.2021484375 -18.79296875 677.80859375 -18.79296875Q680.431640625 -18.79296875 682.38232421875 -17.59765625Q684.3330078125 -16.40234375 685.412109375 -14.23583984375Q686.4912109375 -12.0693359375 686.4912109375 -9.1806640625Q686.4912109375 -6.3251953125 685.412109375 -4.1669921875Q684.3330078125 -2.0087890625 682.38232421875 -0.8134765625Q680.431640625 0.3818359375 677.80859375 0.3818359375ZM677.80859375 -2.7060546875Q679.501953125 -2.7060546875 680.60595703125 -3.59423828125Q681.7099609375 -4.482421875 682.24951171875 -5.95166015625Q682.7890625 -7.4208984375 682.7890625 -9.1806640625Q682.7890625 -10.95703125 682.24951171875 -12.44287109375Q681.7099609375 -13.9287109375 680.60595703125 -14.81689453125Q679.501953125 -15.705078125 677.80859375 -15.705078125Q676.1318359375 -15.705078125 675.0361328125 -14.81689453125Q673.9404296875 -13.9287109375 673.40087890625 -12.451171875Q672.861328125 -10.9736328125 672.861328125 -9.1806640625Q672.861328125 -7.4208984375 673.40087890625 -5.95166015625Q673.9404296875 -4.482421875 675.0361328125 -3.59423828125Q676.1318359375 -2.7060546875 677.80859375 -2.7060546875Z M694.1943359375 -10.990234375V0.0H690.5419921875V-18.560546875H694.0283203125L694.0615234375 -14.01171875H693.6796875Q694.4931640625 -16.501953125 696.037109375 -17.6474609375Q697.5810546875 -18.79296875 699.7724609375 -18.79296875Q701.6650390625 -18.79296875 703.076171875 -17.99609375Q704.4873046875 -17.19921875 705.2841796875 -15.64697265625Q706.0810546875 -14.0947265625 706.0810546875 -11.787109375V0.0H702.4287109375V-11.3388671875Q702.4287109375 -13.34765625 701.3828125 -14.4765625Q700.3369140625 -15.60546875 698.5107421875 -15.60546875Q697.2822265625 -15.60546875 696.302734375 -15.06591796875Q695.3232421875 -14.5263671875 694.7587890625 -13.4970703125Q694.1943359375 -12.4677734375 694.1943359375 -10.990234375Z M717.65234375 0.3818359375Q715.6435546875 0.3818359375 714.07470703125 -0.19921875Q712.505859375 -0.7802734375 711.50146484375 -1.91748046875Q710.4970703125 -3.0546875 710.1650390625 -4.6982421875L713.6015625 -5.412109375Q713.9833984375 -3.9677734375 715.029296875 -3.2705078125Q716.0751953125 -2.5732421875 717.685546875 -2.5732421875Q719.4453125 -2.5732421875 720.4912109375 -3.31201171875Q721.537109375 -4.05078125 721.537109375 -5.080078125Q721.537109375 -5.9765625 720.89794921875 -6.5576171875Q720.2587890625 -7.138671875 718.9306640625 -7.4208984375L715.8095703125 -8.134765625Q713.2197265625 -8.7158203125 711.9580078125 -9.994140625Q710.6962890625 -11.2724609375 710.6962890625 -13.2646484375Q710.6962890625 -14.9248046875 711.6259765625 -16.169921875Q712.5556640625 -17.4150390625 714.166015625 -18.10400390625Q715.7763671875 -18.79296875 717.884765625 -18.79296875Q719.8935546875 -18.79296875 721.3212890625 -18.2119140625Q722.7490234375 -17.630859375 723.63720703125 -16.5849609375Q724.525390625 -15.5390625 724.9072265625 -14.1611328125L721.63671875 -13.447265625Q721.2880859375 -14.4267578125 720.4248046875 -15.16552734375Q719.5615234375 -15.904296875 717.91796875 -15.904296875Q716.4072265625 -15.904296875 715.39453125 -15.2236328125Q714.3818359375 -14.54296875 714.3818359375 -13.4970703125Q714.3818359375 -12.5673828125 715.05419921875 -11.99462890625Q715.7265625 -11.421875 717.25390625 -11.0732421875L720.2421875 -10.4091796875Q722.8154296875 -9.828125 724.060546875 -8.5830078125Q725.3056640625 -7.337890625 725.3056640625 -5.3955078125Q725.3056640625 -3.7021484375 724.33447265625 -2.39892578125Q723.36328125 -1.095703125 721.64501953125 -0.35693359375Q719.9267578125 0.3818359375 717.65234375 0.3818359375Z" fill="#999999"/><path transform="translate(331,498)" d="M1.560546875 -3.4365234375V-4.216796875Q2.9384765625 -4.216796875 3.67724609375 -4.87255859375Q4.416015625 -5.5283203125 4.349609375 -6.806640625L3.8681640625 -16.66796875Q3.71875 -19.291015625 4.748046875 -21.17529296875Q5.77734375 -23.0595703125 7.6865234375 -24.08056640625Q9.595703125 -25.1015625 12.052734375 -25.1015625Q14.1611328125 -25.1015625 15.86279296875 -24.29638671875Q17.564453125 -23.4912109375 18.66845703125 -21.9970703125Q19.7724609375 -20.5029296875 20.1044921875 -18.4609375L15.439453125 -17.73046875Q15.20703125 -19.2578125 14.376953125 -20.0712890625Q13.546875 -20.884765625 12.1357421875 -20.884765625Q10.9072265625 -20.884765625 10.11865234375 -20.41162109375Q9.330078125 -19.9384765625 8.97314453125 -19.0419921875Q8.6162109375 -18.1455078125 8.6494140625 -16.9169921875L8.96484375 -7.5537109375Q9.0146484375 -6.275390625 8.400390625 -5.48681640625Q7.7861328125 -4.6982421875 6.81494140625 -4.2666015625Q5.84375 -3.8349609375 4.78125 -3.66064453125Q3.71875 -3.486328125 2.84716796875 -3.46142578125Q1.9755859375 -3.4365234375 1.560546875 -3.4365234375ZM1.560546875 0.0V-4.216796875H14.7255859375Q15.20703125 -4.216796875 15.4228515625 -4.44091796875Q15.638671875 -4.6650390625 15.638671875 -5.1298828125V-6.0595703125H20.2705078125V-5.1298828125Q20.2705078125 -2.623046875 18.9091796875 -1.3115234375Q17.5478515625 0.0 14.8916015625 0.0ZM1.560546875 -10.7578125V-13.978515625H15.2568359375V-10.7578125Z M23.7734375 0.0V-3.65234375L32.5390625 -11.8701171875Q33.66796875 -12.9658203125 34.43994140625 -13.85400390625Q35.2119140625 -14.7421875 35.61865234375 -15.59716796875Q36.025390625 -16.4521484375 36.025390625 -17.4482421875Q36.025390625 -18.560546875 35.52734375 -19.357421875Q35.029296875 -20.154296875 34.166015625 -20.5859375Q33.302734375 -21.017578125 32.1904296875 -21.017578125Q31.044921875 -21.017578125 30.181640625 -20.552734375Q29.318359375 -20.087890625 28.853515625 -19.224609375Q28.388671875 -18.361328125 28.388671875 -17.1494140625H23.541015625Q23.541015625 -19.556640625 24.64501953125 -21.34130859375Q25.7490234375 -23.1259765625 27.7080078125 -24.09716796875Q29.6669921875 -25.068359375 32.2236328125 -25.068359375Q34.8466796875 -25.068359375 36.8056640625 -24.13037109375Q38.7646484375 -23.1923828125 39.85205078125 -21.548828125Q40.939453125 -19.9052734375 40.939453125 -17.763671875Q40.939453125 -16.3857421875 40.39990234375 -15.041015625Q39.8603515625 -13.6962890625 38.47412109375 -12.02783203125Q37.087890625 -10.359375 34.5478515625 -8.03515625L30.8125 -4.349609375V-4.1669921875H41.271484375V0.0Z M53.689453125 0.365234375Q51.2490234375 0.365234375 49.36474609375 -0.59765625Q47.48046875 -1.560546875 46.3349609375 -3.2041015625Q45.189453125 -4.84765625 44.9404296875 -6.8896484375H49.9541015625Q50.2529296875 -5.5615234375 51.232421875 -4.78125Q52.2119140625 -4.0009765625 53.689453125 -4.0009765625Q55.31640625 -4.0009765625 56.43701171875 -4.97216796875Q57.5576171875 -5.943359375 58.13037109375 -7.72802734375Q58.703125 -9.5126953125 58.703125 -11.953125H58.537109375Q57.97265625 -10.890625 57.03466796875 -10.1103515625Q56.0966796875 -9.330078125 54.89306640625 -8.90673828125Q53.689453125 -8.4833984375 52.328125 -8.4833984375Q50.13671875 -8.4833984375 48.40185546875 -9.5126953125Q46.6669921875 -10.5419921875 45.67919921875 -12.3515625Q44.69140625 -14.1611328125 44.69140625 -16.4853515625Q44.69140625 -18.9921875 45.853515625 -20.94287109375Q47.015625 -22.8935546875 49.0908203125 -24.01416015625Q51.166015625 -25.134765625 53.9052734375 -25.1015625Q55.78125 -25.1015625 57.5244140625 -24.46240234375Q59.267578125 -23.8232421875 60.65380859375 -22.42041015625Q62.0400390625 -21.017578125 62.853515625 -18.693359375Q63.6669921875 -16.369140625 63.6669921875 -12.9658203125Q63.6669921875 -9.828125 62.96142578125 -7.36279296875Q62.255859375 -4.8974609375 60.95263671875 -3.1708984375Q59.6494140625 -1.4443359375 57.806640625 -0.53955078125Q55.9638671875 0.365234375 53.689453125 0.365234375ZM53.8720703125 -12.2021484375Q54.78515625 -12.2021484375 55.57373046875 -12.55908203125Q56.3623046875 -12.916015625 56.943359375 -13.52197265625Q57.5244140625 -14.1279296875 57.8564453125 -14.9248046875Q58.1884765625 -15.7216796875 58.1884765625 -16.6513671875Q58.1884765625 -17.8466796875 57.63232421875 -18.8427734375Q57.076171875 -19.8388671875 56.11328125 -20.44482421875Q55.150390625 -21.05078125 53.9052734375 -21.05078125Q52.693359375 -21.05078125 51.72216796875 -20.46142578125Q50.7509765625 -19.8720703125 50.1865234375 -18.86767578125Q49.6220703125 -17.86328125 49.6220703125 -16.6181640625Q49.6220703125 -15.373046875 50.17822265625 -14.376953125Q50.734375 -13.380859375 51.68896484375 -12.79150390625Q52.6435546875 -12.2021484375 53.8720703125 -12.2021484375Z M77.9609375 -25.8984375 69.9921875 3.71875H65.67578125L73.64453125 -25.8984375Z M80.5341796875 0.0V-18.560546875H85.1494140625L85.3984375 -13.9453125H85.033203125Q85.46484375 -15.6552734375 86.30322265625 -16.734375Q87.1416015625 -17.8134765625 88.2705078125 -18.328125Q89.3994140625 -18.8427734375 90.64453125 -18.8427734375Q92.6533203125 -18.8427734375 93.8818359375 -17.57275390625Q95.1103515625 -16.302734375 95.69140625 -13.646484375H95.1103515625Q95.525390625 -15.4228515625 96.46337890625 -16.57666015625Q97.4013671875 -17.73046875 98.68798828125 -18.28662109375Q99.974609375 -18.8427734375 101.3857421875 -18.8427734375Q103.095703125 -18.8427734375 104.43212890625 -18.095703125Q105.7685546875 -17.3486328125 106.54052734375 -15.94580078125Q107.3125 -14.54296875 107.3125 -12.517578125V0.0H102.33203125V-11.5712890625Q102.33203125 -13.1484375 101.47705078125 -13.912109375Q100.6220703125 -14.67578125 99.376953125 -14.67578125Q98.447265625 -14.67578125 97.75830078125 -14.26904296875Q97.0693359375 -13.8623046875 96.69580078125 -13.1318359375Q96.322265625 -12.4013671875 96.322265625 -11.421875V0.0H91.5078125V-11.7041015625Q91.5078125 -13.0654296875 90.70263671875 -13.87060546875Q89.8974609375 -14.67578125 88.619140625 -14.67578125Q87.7392578125 -14.67578125 87.03369140625 -14.27734375Q86.328125 -13.87890625 85.92138671875 -13.10693359375Q85.5146484375 -12.3349609375 85.5146484375 -11.22265625V0.0Z M119.86328125 0.365234375Q117.07421875 0.365234375 115.0322265625 -0.83837890625Q112.990234375 -2.0419921875 111.88623046875 -4.19189453125Q110.7822265625 -6.341796875 110.7822265625 -9.197265625Q110.7822265625 -12.0859375 111.88623046875 -14.23583984375Q112.990234375 -16.3857421875 115.0322265625 -17.58935546875Q117.07421875 -18.79296875 119.86328125 -18.79296875Q122.6689453125 -18.79296875 124.70263671875 -17.58935546875Q126.736328125 -16.3857421875 127.84033203125 -14.23583984375Q128.9443359375 -12.0859375 128.9443359375 -9.197265625Q128.9443359375 -6.341796875 127.84033203125 -4.19189453125Q126.736328125 -2.0419921875 124.70263671875 -0.83837890625Q122.6689453125 0.365234375 119.86328125 0.365234375ZM119.86328125 -3.552734375Q121.19140625 -3.552734375 122.087890625 -4.29150390625Q122.984375 -5.0302734375 123.4326171875 -6.31689453125Q123.880859375 -7.603515625 123.880859375 -9.2138671875Q123.880859375 -10.857421875 123.4326171875 -12.1357421875Q122.984375 -13.4140625 122.087890625 -14.14453125Q121.19140625 -14.875 119.86328125 -14.875Q118.53515625 -14.875 117.64697265625 -14.14453125Q116.7587890625 -13.4140625 116.310546875 -12.1357421875Q115.8623046875 -10.857421875 115.8623046875 -9.2138671875Q115.8623046875 -7.603515625 116.310546875 -6.31689453125Q116.7587890625 -5.0302734375 117.64697265625 -4.29150390625Q118.53515625 -3.552734375 119.86328125 -3.552734375Z M137.39453125 -10.7412109375V0.0H132.4140625V-18.560546875H137.1123046875L137.1953125 -13.9287109375H136.896484375Q137.626953125 -16.2529296875 139.11279296875 -17.52294921875Q140.5986328125 -18.79296875 142.9560546875 -18.79296875Q144.8818359375 -18.79296875 146.31787109375 -17.95458984375Q147.75390625 -17.1162109375 148.54248046875 -15.54736328125Q149.3310546875 -13.978515625 149.3310546875 -11.8037109375V0.0H144.3505859375V-10.9404296875Q144.3505859375 -12.6669921875 143.46240234375 -13.646484375Q142.57421875 -14.6259765625 140.9970703125 -14.6259765625Q139.951171875 -14.6259765625 139.12939453125 -14.16943359375Q138.3076171875 -13.712890625 137.85107421875 -12.849609375Q137.39453125 -11.986328125 137.39453125 -10.7412109375Z M162.794921875 -18.560546875V-14.7587890625H151.7880859375V-18.560546875ZM154.3447265625 -22.9765625H159.3251953125V-5.4287109375Q159.3251953125 -4.548828125 159.71533203125 -4.12548828125Q160.10546875 -3.7021484375 161.0185546875 -3.7021484375Q161.30078125 -3.7021484375 161.8154296875 -3.77685546875Q162.330078125 -3.8515625 162.595703125 -3.91796875L163.3095703125 -0.1826171875Q162.4794921875 0.06640625 161.65771484375 0.166015625Q160.8359375 0.265625 160.0888671875 0.265625Q157.2998046875 0.265625 155.822265625 -1.095703125Q154.3447265625 -2.45703125 154.3447265625 -4.9970703125Z M171.0126953125 -10.7412109375V0.0H166.0322265625V-24.736328125H170.9130859375V-13.9287109375H170.5146484375Q171.2451171875 -16.2529296875 172.73095703125 -17.52294921875Q174.216796875 -18.79296875 176.57421875 -18.79296875Q178.5 -18.79296875 179.93603515625 -17.95458984375Q181.3720703125 -17.1162109375 182.1689453125 -15.54736328125Q182.9658203125 -13.978515625 182.9658203125 -11.8037109375V0.0H177.96875V-10.9404296875Q177.96875 -12.6669921875 177.08056640625 -13.646484375Q176.1923828125 -14.6259765625 174.615234375 -14.6259765625Q173.5693359375 -14.6259765625 172.74755859375 -14.16943359375Q171.92578125 -13.712890625 171.46923828125 -12.849609375Q171.0126953125 -11.986328125 171.0126953125 -10.7412109375Z M227.1259765625 -12.1689453125V-8.1845703125H193.1259765625V-12.1689453125Z M245.5537109375 7.337890625Q243.2294921875 7.337890625 241.5029296875 6.74853515625Q239.7763671875 6.1591796875 238.697265625 5.1298828125Q237.6181640625 4.1005859375 237.203125 2.7890625L241.486328125 1.59375Q241.71875 2.1083984375 242.20849609375 2.59814453125Q242.6982421875 3.087890625 243.51171875 3.4033203125Q244.3251953125 3.71875 245.5205078125 3.71875Q247.4296875 3.71875 248.51708984375 2.84716796875Q249.6044921875 1.9755859375 249.6044921875 0.1328125V-3.287109375H249.22265625Q248.890625 -2.5400390625 248.259765625 -1.8427734375Q247.62890625 -1.1455078125 246.60791015625 -0.70556640625Q245.5869140625 -0.265625 244.076171875 -0.265625Q241.984375 -0.265625 240.2744140625 -1.2451171875Q238.564453125 -2.224609375 237.54345703125 -4.2333984375Q236.5224609375 -6.2421875 236.5224609375 -9.3134765625Q236.5224609375 -12.451171875 237.56005859375 -14.5595703125Q238.59765625 -16.66796875 240.31591796875 -17.73046875Q242.0341796875 -18.79296875 244.0927734375 -18.79296875Q245.6533203125 -18.79296875 246.7158203125 -18.27001953125Q247.7783203125 -17.7470703125 248.43408203125 -16.95849609375Q249.08984375 -16.169921875 249.421875 -15.439453125H249.6376953125V-18.560546875H254.53515625V-0.1494140625Q254.53515625 2.357421875 253.38134765625 4.017578125Q252.2275390625 5.677734375 250.2021484375 6.5078125Q248.1767578125 7.337890625 245.5537109375 7.337890625ZM245.63671875 -4.05078125Q246.9150390625 -4.05078125 247.80322265625 -4.681640625Q248.69140625 -5.3125 249.15625 -6.49951171875Q249.62109375 -7.6865234375 249.62109375 -9.3466796875Q249.62109375 -10.990234375 249.15625 -12.21875Q248.69140625 -13.447265625 247.80322265625 -14.1279296875Q246.9150390625 -14.80859375 245.63671875 -14.80859375Q244.3251953125 -14.80859375 243.43701171875 -14.10302734375Q242.548828125 -13.3974609375 242.09228515625 -12.1689453125Q241.6357421875 -10.9404296875 241.6357421875 -9.3466796875Q241.6357421875 -7.7197265625 242.09228515625 -6.53271484375Q242.548828125 -5.345703125 243.4453125 -4.6982421875Q244.341796875 -4.05078125 245.63671875 -4.05078125Z M263.96484375 0.365234375Q262.205078125 0.365234375 260.80224609375 -0.25732421875Q259.3994140625 -0.8798828125 258.59423828125 -2.11669921875Q257.7890625 -3.353515625 257.7890625 -5.1962890625Q257.7890625 -6.740234375 258.36181640625 -7.7861328125Q258.9345703125 -8.83203125 259.92236328125 -9.462890625Q260.91015625 -10.09375 262.16357421875 -10.42578125Q263.4169921875 -10.7578125 264.794921875 -10.890625Q266.4052734375 -11.056640625 267.39306640625 -11.19775390625Q268.380859375 -11.3388671875 268.83740234375 -11.64599609375Q269.2939453125 -11.953125 269.2939453125 -12.55078125V-12.6337890625Q269.2939453125 -13.4306640625 268.9619140625 -13.978515625Q268.6298828125 -14.5263671875 267.97412109375 -14.81689453125Q267.318359375 -15.107421875 266.388671875 -15.107421875Q265.42578125 -15.107421875 264.7119140625 -14.81689453125Q263.998046875 -14.5263671875 263.5498046875 -14.044921875Q263.1015625 -13.5634765625 262.8857421875 -12.9658203125L258.3203125 -13.712890625Q258.8017578125 -15.33984375 259.9140625 -16.46875Q261.0263671875 -17.59765625 262.67822265625 -18.1953125Q264.330078125 -18.79296875 266.4052734375 -18.79296875Q267.8994140625 -18.79296875 269.310546875 -18.43603515625Q270.7216796875 -18.0791015625 271.84228515625 -17.33203125Q272.962890625 -16.5849609375 273.61865234375 -15.38134765625Q274.2744140625 -14.177734375 274.2744140625 -12.5009765625V0.0H269.5595703125V-2.5732421875H269.3935546875Q268.9453125 -1.7099609375 268.1982421875 -1.05419921875Q267.451171875 -0.3984375 266.39697265625 -0.0166015625Q265.3427734375 0.365234375 263.96484375 0.365234375ZM265.3759765625 -3.1376953125Q266.5546875 -3.1376953125 267.44287109375 -3.6025390625Q268.3310546875 -4.0673828125 268.8291015625 -4.8642578125Q269.3271484375 -5.6611328125 269.3271484375 -6.640625V-8.6494140625Q269.111328125 -8.4833984375 268.6630859375 -8.3505859375Q268.21484375 -8.2177734375 267.6669921875 -8.1181640625Q267.119140625 -8.0185546875 266.587890625 -7.935546875Q266.056640625 -7.8525390625 265.6416015625 -7.802734375Q264.728515625 -7.669921875 264.03125 -7.37109375Q263.333984375 -7.072265625 262.9521484375 -6.58251953125Q262.5703125 -6.0927734375 262.5703125 -5.3291015625Q262.5703125 -4.615234375 262.935546875 -4.12548828125Q263.30078125 -3.6357421875 263.931640625 -3.38671875Q264.5625 -3.1376953125 265.3759765625 -3.1376953125Z M278.5244140625 0.0V-18.560546875H283.3388671875V-15.3232421875H283.5380859375Q284.052734375 -17.0498046875 285.25634765625 -17.9296875Q286.4599609375 -18.8095703125 288.0205078125 -18.8095703125Q288.40234375 -18.8095703125 288.8505859375 -18.76806640625Q289.298828125 -18.7265625 289.630859375 -18.6435546875V-14.1943359375Q289.298828125 -14.310546875 288.66796875 -14.376953125Q288.037109375 -14.443359375 287.47265625 -14.443359375Q286.34375 -14.443359375 285.4306640625 -13.95361328125Q284.517578125 -13.4638671875 284.01123046875 -12.59228515625Q283.5048828125 -11.720703125 283.5048828125 -10.55859375V0.0Z M297.5498046875 0.365234375Q295.7900390625 0.365234375 294.38720703125 -0.25732421875Q292.984375 -0.8798828125 292.17919921875 -2.11669921875Q291.3740234375 -3.353515625 291.3740234375 -5.1962890625Q291.3740234375 -6.740234375 291.94677734375 -7.7861328125Q292.51953125 -8.83203125 293.50732421875 -9.462890625Q294.4951171875 -10.09375 295.74853515625 -10.42578125Q297.001953125 -10.7578125 298.3798828125 -10.890625Q299.990234375 -11.056640625 300.97802734375 -11.19775390625Q301.9658203125 -11.3388671875 302.42236328125 -11.64599609375Q302.87890625 -11.953125 302.87890625 -12.55078125V-12.6337890625Q302.87890625 -13.4306640625 302.546875 -13.978515625Q302.21484375 -14.5263671875 301.55908203125 -14.81689453125Q300.9033203125 -15.107421875 299.9736328125 -15.107421875Q299.0107421875 -15.107421875 298.296875 -14.81689453125Q297.5830078125 -14.5263671875 297.134765625 -14.044921875Q296.6865234375 -13.5634765625 296.470703125 -12.9658203125L291.9052734375 -13.712890625Q292.38671875 -15.33984375 293.4990234375 -16.46875Q294.611328125 -17.59765625 296.26318359375 -18.1953125Q297.9150390625 -18.79296875 299.990234375 -18.79296875Q301.484375 -18.79296875 302.8955078125 -18.43603515625Q304.306640625 -18.0791015625 305.42724609375 -17.33203125Q306.5478515625 -16.5849609375 307.20361328125 -15.38134765625Q307.859375 -14.177734375 307.859375 -12.5009765625V0.0H303.14453125V-2.5732421875H302.978515625Q302.5302734375 -1.7099609375 301.783203125 -1.05419921875Q301.0361328125 -0.3984375 299.98193359375 -0.0166015625Q298.927734375 0.365234375 297.5498046875 0.365234375ZM298.9609375 -3.1376953125Q300.1396484375 -3.1376953125 301.02783203125 -3.6025390625Q301.916015625 -4.0673828125 302.4140625 -4.8642578125Q302.912109375 -5.6611328125 302.912109375 -6.640625V-8.6494140625Q302.6962890625 -8.4833984375 302.248046875 -8.3505859375Q301.7998046875 -8.2177734375 301.251953125 -8.1181640625Q300.7041015625 -8.0185546875 300.1728515625 -7.935546875Q299.6416015625 -7.8525390625 299.2265625 -7.802734375Q298.3134765625 -7.669921875 297.6162109375 -7.37109375Q296.9189453125 -7.072265625 296.537109375 -6.58251953125Q296.1552734375 -6.0927734375 296.1552734375 -5.3291015625Q296.1552734375 -4.615234375 296.5205078125 -4.12548828125Q296.8857421875 -3.6357421875 297.5166015625 -3.38671875Q298.1474609375 -3.1376953125 298.9609375 -3.1376953125Z M320.3603515625 7.337890625Q318.0361328125 7.337890625 316.3095703125 6.74853515625Q314.5830078125 6.1591796875 313.50390625 5.1298828125Q312.4248046875 4.1005859375 312.009765625 2.7890625L316.29296875 1.59375Q316.525390625 2.1083984375 317.01513671875 2.59814453125Q317.5048828125 3.087890625 318.318359375 3.4033203125Q319.1318359375 3.71875 320.3271484375 3.71875Q322.236328125 3.71875 323.32373046875 2.84716796875Q324.4111328125 1.9755859375 324.4111328125 0.1328125V-3.287109375H324.029296875Q323.697265625 -2.5400390625 323.06640625 -1.8427734375Q322.435546875 -1.1455078125 321.41455078125 -0.70556640625Q320.3935546875 -0.265625 318.8828125 -0.265625Q316.791015625 -0.265625 315.0810546875 -1.2451171875Q313.37109375 -2.224609375 312.35009765625 -4.2333984375Q311.3291015625 -6.2421875 311.3291015625 -9.3134765625Q311.3291015625 -12.451171875 312.36669921875 -14.5595703125Q313.404296875 -16.66796875 315.12255859375 -17.73046875Q316.8408203125 -18.79296875 318.8994140625 -18.79296875Q320.4599609375 -18.79296875 321.5224609375 -18.27001953125Q322.5849609375 -17.7470703125 323.24072265625 -16.95849609375Q323.896484375 -16.169921875 324.228515625 -15.439453125H324.4443359375V-18.560546875H329.341796875V-0.1494140625Q329.341796875 2.357421875 328.18798828125 4.017578125Q327.0341796875 5.677734375 325.0087890625 6.5078125Q322.9833984375 7.337890625 320.3603515625 7.337890625ZM320.443359375 -4.05078125Q321.7216796875 -4.05078125 322.60986328125 -4.681640625Q323.498046875 -5.3125 323.962890625 -6.49951171875Q324.427734375 -7.6865234375 324.427734375 -9.3466796875Q324.427734375 -10.990234375 323.962890625 -12.21875Q323.498046875 -13.447265625 322.60986328125 -14.1279296875Q321.7216796875 -14.80859375 320.443359375 -14.80859375Q319.1318359375 -14.80859375 318.24365234375 -14.10302734375Q317.35546875 -13.3974609375 316.89892578125 -12.1689453125Q316.4423828125 -10.9404296875 316.4423828125 -9.3466796875Q316.4423828125 -7.7197265625 316.89892578125 -6.53271484375Q317.35546875 -5.345703125 318.251953125 -4.6982421875Q319.1484375 -4.05078125 320.443359375 -4.05078125Z M341.9755859375 0.365234375Q339.13671875 0.365234375 337.078125 -0.796875Q335.01953125 -1.958984375 333.91552734375 -4.1005859375Q332.8115234375 -6.2421875 332.8115234375 -9.1806640625Q332.8115234375 -12.052734375 333.9072265625 -14.2109375Q335.0029296875 -16.369140625 337.01171875 -17.5810546875Q339.0205078125 -18.79296875 341.7265625 -18.79296875Q343.552734375 -18.79296875 345.1298828125 -18.2119140625Q346.70703125 -17.630859375 347.90234375 -16.46044921875Q349.09765625 -15.2900390625 349.77001953125 -13.5302734375Q350.4423828125 -11.7705078125 350.4423828125 -9.3798828125V-7.9853515625H334.853515625V-11.1064453125H348.001953125L345.677734375 -10.2763671875Q345.677734375 -11.720703125 345.23779296875 -12.79150390625Q344.7978515625 -13.8623046875 343.92626953125 -14.45166015625Q343.0546875 -15.041015625 341.7763671875 -15.041015625Q340.4814453125 -15.041015625 339.57666015625 -14.443359375Q338.671875 -13.845703125 338.20703125 -12.82470703125Q337.7421875 -11.8037109375 337.7421875 -10.4921875V-8.2841796875Q337.7421875 -6.673828125 338.28173828125 -5.578125Q338.8212890625 -4.482421875 339.79248046875 -3.9345703125Q340.763671875 -3.38671875 342.05859375 -3.38671875Q342.9384765625 -3.38671875 343.65234375 -3.6357421875Q344.3662109375 -3.884765625 344.87255859375 -4.37451171875Q345.37890625 -4.8642578125 345.64453125 -5.578125L350.16015625 -4.7314453125Q349.7119140625 -3.2041015625 348.599609375 -2.05029296875Q347.4873046875 -0.896484375 345.81884765625 -0.265625Q344.150390625 0.365234375 341.9755859375 0.365234375Z M360.619140625 0.3154296875Q358.494140625 0.3154296875 356.77587890625 -0.78857421875Q355.0576171875 -1.892578125 354.0615234375 -4.02587890625Q353.0654296875 -6.1591796875 353.0654296875 -9.2470703125Q353.0654296875 -12.41796875 354.0947265625 -14.54296875Q355.1240234375 -16.66796875 356.833984375 -17.73046875Q358.5439453125 -18.79296875 360.6025390625 -18.79296875Q362.1796875 -18.79296875 363.2255859375 -18.26171875Q364.271484375 -17.73046875 364.9189453125 -16.9501953125Q365.56640625 -16.169921875 365.8818359375 -15.439453125H366.0478515625V-24.736328125H371.0283203125V0.0H366.130859375V-2.9716796875H365.8818359375Q365.5498046875 -2.224609375 364.89404296875 -1.46923828125Q364.23828125 -0.7138671875 363.1923828125 -0.19921875Q362.146484375 0.3154296875 360.619140625 0.3154296875ZM362.1630859375 -3.685546875Q363.4248046875 -3.685546875 364.3212890625 -4.3828125Q365.2177734375 -5.080078125 365.6826171875 -6.33349609375Q366.1474609375 -7.5869140625 366.1474609375 -9.263671875Q366.1474609375 -10.95703125 365.69091796875 -12.19384765625Q365.234375 -13.4306640625 364.337890625 -14.11962890625Q363.44140625 -14.80859375 362.1630859375 -14.80859375Q360.8515625 -14.80859375 359.96337890625 -14.0947265625Q359.0751953125 -13.380859375 358.626953125 -12.1357421875Q358.1787109375 -10.890625 358.1787109375 -9.263671875Q358.1787109375 -7.63671875 358.63525390625 -6.375Q359.091796875 -5.11328125 359.97998046875 -4.3994140625Q360.8681640625 -3.685546875 362.1630859375 -3.685546875Z M380.4580078125 0.365234375Q378.6982421875 0.365234375 377.29541015625 -0.25732421875Q375.892578125 -0.8798828125 375.08740234375 -2.11669921875Q374.2822265625 -3.353515625 374.2822265625 -5.1962890625Q374.2822265625 -6.740234375 374.85498046875 -7.7861328125Q375.427734375 -8.83203125 376.41552734375 -9.462890625Q377.4033203125 -10.09375 378.65673828125 -10.42578125Q379.91015625 -10.7578125 381.2880859375 -10.890625Q382.8984375 -11.056640625 383.88623046875 -11.19775390625Q384.8740234375 -11.3388671875 385.33056640625 -11.64599609375Q385.787109375 -11.953125 385.787109375 -12.55078125V-12.6337890625Q385.787109375 -13.4306640625 385.455078125 -13.978515625Q385.123046875 -14.5263671875 384.46728515625 -14.81689453125Q383.8115234375 -15.107421875 382.8818359375 -15.107421875Q381.9189453125 -15.107421875 381.205078125 -14.81689453125Q380.4912109375 -14.5263671875 380.04296875 -14.044921875Q379.5947265625 -13.5634765625 379.37890625 -12.9658203125L374.8134765625 -13.712890625Q375.294921875 -15.33984375 376.4072265625 -16.46875Q377.51953125 -17.59765625 379.17138671875 -18.1953125Q380.8232421875 -18.79296875 382.8984375 -18.79296875Q384.392578125 -18.79296875 385.8037109375 -18.43603515625Q387.21484375 -18.0791015625 388.33544921875 -17.33203125Q389.4560546875 -16.5849609375 390.11181640625 -15.38134765625Q390.767578125 -14.177734375 390.767578125 -12.5009765625V0.0H386.052734375V-2.5732421875H385.88671875Q385.4384765625 -1.7099609375 384.69140625 -1.05419921875Q383.9443359375 -0.3984375 382.89013671875 -0.0166015625Q381.8359375 0.365234375 380.4580078125 0.365234375ZM381.869140625 -3.1376953125Q383.0478515625 -3.1376953125 383.93603515625 -3.6025390625Q384.82421875 -4.0673828125 385.322265625 -4.8642578125Q385.8203125 -5.6611328125 385.8203125 -6.640625V-8.6494140625Q385.6044921875 -8.4833984375 385.15625 -8.3505859375Q384.7080078125 -8.2177734375 384.16015625 -8.1181640625Q383.6123046875 -8.0185546875 383.0810546875 -7.935546875Q382.5498046875 -7.8525390625 382.134765625 -7.802734375Q381.2216796875 -7.669921875 380.5244140625 -7.37109375Q379.8271484375 -7.072265625 379.4453125 -6.58251953125Q379.0634765625 -6.0927734375 379.0634765625 -5.3291015625Q379.0634765625 -4.615234375 379.4287109375 -4.12548828125Q379.7939453125 -3.6357421875 380.4248046875 -3.38671875Q381.0556640625 -3.1376953125 381.869140625 -3.1376953125Z M402.388671875 0.365234375Q400.1474609375 0.365234375 398.4208984375 -0.27392578125Q396.6943359375 -0.9130859375 395.5986328125 -2.13330078125Q394.5029296875 -3.353515625 394.1875 -5.080078125L398.8193359375 -5.876953125Q399.1845703125 -4.58203125 400.09765625 -3.9345703125Q401.0107421875 -3.287109375 402.5380859375 -3.287109375Q403.9658203125 -3.287109375 404.78759765625 -3.82666015625Q405.609375 -4.3662109375 405.609375 -5.1962890625Q405.609375 -5.9267578125 405.02001953125 -6.3916015625Q404.4306640625 -6.8564453125 403.21875 -7.10546875L400.0146484375 -7.76953125Q397.3251953125 -8.3173828125 395.9970703125 -9.63720703125Q394.6689453125 -10.95703125 394.6689453125 -13.0322265625Q394.6689453125 -14.8251953125 395.6484375 -16.11181640625Q396.6279296875 -17.3984375 398.37109375 -18.095703125Q400.1142578125 -18.79296875 402.4716796875 -18.79296875Q404.6630859375 -18.79296875 406.2734375 -18.18701171875Q407.8837890625 -17.5810546875 408.8798828125 -16.46875Q409.8759765625 -15.3564453125 410.2080078125 -13.845703125L405.7919921875 -13.0654296875Q405.509765625 -14.01171875 404.70458984375 -14.61767578125Q403.8994140625 -15.2236328125 402.5380859375 -15.2236328125Q401.3095703125 -15.2236328125 400.4794921875 -14.708984375Q399.6494140625 -14.1943359375 399.6494140625 -13.3310546875Q399.6494140625 -12.6337890625 400.18896484375 -12.15234375Q400.728515625 -11.6708984375 402.0400390625 -11.4052734375L405.376953125 -10.7412109375Q408.06640625 -10.193359375 409.3779296875 -8.95654296875Q410.689453125 -7.7197265625 410.689453125 -5.7275390625Q410.689453125 -3.9013671875 409.626953125 -2.53173828125Q408.564453125 -1.162109375 406.69677734375 -0.3984375Q404.8291015625 0.365234375 402.388671875 0.365234375Z M419.0400390625 -10.7412109375V0.0H414.0595703125V-24.736328125H418.9404296875V-13.9287109375H418.5419921875Q419.2724609375 -16.2529296875 420.75830078125 -17.52294921875Q422.244140625 -18.79296875 424.6015625 -18.79296875Q426.52734375 -18.79296875 427.96337890625 -17.95458984375Q429.3994140625 -17.1162109375 430.1962890625 -15.54736328125Q430.9931640625 -13.978515625 430.9931640625 -11.8037109375V0.0H425.99609375V-10.9404296875Q425.99609375 -12.6669921875 425.10791015625 -13.646484375Q424.2197265625 -14.6259765625 422.642578125 -14.6259765625Q421.5966796875 -14.6259765625 420.77490234375 -14.16943359375Q419.953125 -13.712890625 419.49658203125 -12.849609375Q419.0400390625 -11.986328125 419.0400390625 -10.7412109375Z M438.779296875 0.3154296875Q437.5673828125 0.3154296875 436.7373046875 -0.50634765625Q435.9072265625 -1.328125 435.9072265625 -2.5400390625Q435.9072265625 -3.751953125 436.7373046875 -4.57373046875Q437.5673828125 -5.3955078125 438.779296875 -5.3955078125Q439.9912109375 -5.3955078125 440.8212890625 -4.57373046875Q441.6513671875 -3.751953125 441.6513671875 -2.5400390625Q441.6513671875 -1.328125 440.8212890625 -0.50634765625Q439.9912109375 0.3154296875 438.779296875 0.3154296875Z M454.8828125 0.365234375Q452.0771484375 0.365234375 450.04345703125 -0.83837890625Q448.009765625 -2.0419921875 446.90576171875 -4.19189453125Q445.8017578125 -6.341796875 445.8017578125 -9.197265625Q445.8017578125 -12.0859375 446.90576171875 -14.23583984375Q448.009765625 -16.3857421875 450.04345703125 -17.58935546875Q452.0771484375 -18.79296875 454.8828125 -18.79296875Q456.5263671875 -18.79296875 457.9208984375 -18.361328125Q459.3154296875 -17.9296875 460.39453125 -17.1328125Q461.4736328125 -16.3359375 462.1708984375 -15.1904296875Q462.8681640625 -14.044921875 463.1337890625 -12.6171875L458.501953125 -11.75390625Q458.3525390625 -12.484375 458.037109375 -13.05712890625Q457.7216796875 -13.6298828125 457.2734375 -14.03662109375Q456.8251953125 -14.443359375 456.23583984375 -14.6591796875Q455.646484375 -14.875 454.9326171875 -14.875Q453.6044921875 -14.875 452.69970703125 -14.1611328125Q451.794921875 -13.447265625 451.33837890625 -12.1689453125Q450.8818359375 -10.890625 450.8818359375 -9.2138671875Q450.8818359375 -7.5703125 451.33837890625 -6.2919921875Q451.794921875 -5.013671875 452.69970703125 -4.283203125Q453.6044921875 -3.552734375 454.9326171875 -3.552734375Q455.646484375 -3.552734375 456.244140625 -3.77685546875Q456.841796875 -4.0009765625 457.306640625 -4.42431640625Q457.771484375 -4.84765625 458.0869140625 -5.4453125Q458.40234375 -6.04296875 458.53515625 -6.7900390625L463.1669921875 -5.943359375Q462.9013671875 -4.4658203125 462.2041015625 -3.31201171875Q461.5068359375 -2.158203125 460.427734375 -1.328125Q459.3486328125 -0.498046875 457.94580078125 -0.06640625Q456.54296875 0.365234375 454.8828125 0.365234375Z M474.8876953125 0.365234375Q472.0986328125 0.365234375 470.056640625 -0.83837890625Q468.0146484375 -2.0419921875 466.91064453125 -4.19189453125Q465.806640625 -6.341796875 465.806640625 -9.197265625Q465.806640625 -12.0859375 466.91064453125 -14.23583984375Q468.0146484375 -16.3857421875 470.056640625 -17.58935546875Q472.0986328125 -18.79296875 474.8876953125 -18.79296875Q477.693359375 -18.79296875 479.72705078125 -17.58935546875Q481.7607421875 -16.3857421875 482.86474609375 -14.23583984375Q483.96875 -12.0859375 483.96875 -9.197265625Q483.96875 -6.341796875 482.86474609375 -4.19189453125Q481.7607421875 -2.0419921875 479.72705078125 -0.83837890625Q477.693359375 0.365234375 474.8876953125 0.365234375ZM474.8876953125 -3.552734375Q476.2158203125 -3.552734375 477.1123046875 -4.29150390625Q478.0087890625 -5.0302734375 478.45703125 -6.31689453125Q478.9052734375 -7.603515625 478.9052734375 -9.2138671875Q478.9052734375 -10.857421875 478.45703125 -12.1357421875Q478.0087890625 -13.4140625 477.1123046875 -14.14453125Q476.2158203125 -14.875 474.8876953125 -14.875Q473.5595703125 -14.875 472.67138671875 -14.14453125Q471.783203125 -13.4140625 471.3349609375 -12.1357421875Q470.88671875 -10.857421875 470.88671875 -9.2138671875Q470.88671875 -7.603515625 471.3349609375 -6.31689453125Q471.783203125 -5.0302734375 472.67138671875 -4.29150390625Q473.5595703125 -3.552734375 474.8876953125 -3.552734375Z M490.9912109375 0.3154296875Q489.779296875 0.3154296875 488.94921875 -0.50634765625Q488.119140625 -1.328125 488.119140625 -2.5400390625Q488.119140625 -3.751953125 488.94921875 -4.57373046875Q489.779296875 -5.3955078125 490.9912109375 -5.3955078125Q492.203125 -5.3955078125 493.033203125 -4.57373046875Q493.86328125 -3.751953125 493.86328125 -2.5400390625Q493.86328125 -1.328125 493.033203125 -0.50634765625Q492.203125 0.3154296875 490.9912109375 0.3154296875Z M505.185546875 0.232421875Q503.259765625 0.232421875 501.8154296875 -0.60595703125Q500.37109375 -1.4443359375 499.58251953125 -3.01318359375Q498.7939453125 -4.58203125 498.7939453125 -6.7568359375V-18.560546875H503.7744140625V-7.6201171875Q503.7744140625 -5.8935546875 504.6708984375 -4.9140625Q505.5673828125 -3.9345703125 507.1279296875 -3.9345703125Q508.1904296875 -3.9345703125 509.00390625 -4.39111328125Q509.8173828125 -4.84765625 510.27392578125 -5.71923828125Q510.73046875 -6.5908203125 510.73046875 -7.8193359375V-18.560546875H515.7275390625V0.0H511.0126953125L510.9462890625 -4.6318359375H511.228515625Q510.498046875 -2.291015625 508.99560546875 -1.029296875Q507.4931640625 0.232421875 505.185546875 0.232421875Z M524.4765625 -5.4287109375V-11.421875H525.2236328125L531.2998046875 -18.560546875H537.060546875L529.0419921875 -9.2470703125H527.86328125ZM519.9609375 0.0V-24.736328125H524.94140625V0.0ZM531.548828125 0.0 525.970703125 -8.134765625 529.3076171875 -11.6708984375 537.4091796875 0.0Z" fill="#F4A523"/></svg>