<svg width="1200" height="560" viewBox="0 0 1200 560" xmlns="http://www.w3.org/2000/svg">
<defs>
  <radialGradient id="glow" cx="0.08" cy="0.05" r="1.0">
    <stop offset="0" stop-color="#F4A523" stop-opacity="0.14"/>
    <stop offset="1" stop-color="#F4A523" stop-opacity="0"/>
  </radialGradient>
</defs>
<rect x="1" y="1" width="1198" height="558" rx="22" fill="#0A0A0A" stroke="#2a2d3e" stroke-width="2"/>
<rect x="1" y="1" width="1198" height="558" rx="22" fill="url(#glow)"/>
<text x="50" y="62" font-family="-apple-system, 'Segoe UI', Roboto, Arial, sans-serif" font-size="14" font-weight="700" letter-spacing="2" fill="#F4A523">THE FRONT DESK WORKFLOW</text>
<text x="50" y="108" font-family="-apple-system, 'Segoe UI', Roboto, Arial, sans-serif" font-size="34" font-weight="800" fill="#FFFFFF">Quote it. Book it. Invoice it.</text>
<text x="50" y="140" font-family="-apple-system, 'Segoe UI', Roboto, Arial, sans-serif" font-size="16" fill="#8b8fa8">One click turns a quote into a job sheet. One click turns that into an invoice.</text>
<circle cx="63" cy="170" r="13" fill="#F4A523"/><text x="63" y="175" text-anchor="middle" font-family="-apple-system, 'Segoe UI', Roboto, Arial, sans-serif" font-size="14" font-weight="800" fill="#0A0A0A">1</text><text x="84" y="175" font-family="-apple-system, 'Segoe UI', Roboto, Arial, sans-serif" font-size="15" font-weight="700" letter-spacing="0.5" fill="#e8eaf0">QUOTE</text><rect x="50" y="190" width="300" height="300" rx="14" fill="#161820" stroke="#2a2d3e" stroke-width="1.5"/><circle cx="74" cy="214" r="5" fill="#ff5f57"/><circle cx="90" cy="214" r="5" fill="#febc2e"/><circle cx="106" cy="214" r="5" fill="#28c840"/><text x="74" y="254" font-family="-apple-system, 'Segoe UI', Roboto, Arial, sans-serif" font-size="13" font-weight="700" fill="#F4A523">QUO-1001</text><text x="74" y="282" font-family="-apple-system, 'Segoe UI', Roboto, Arial, sans-serif" font-size="19" font-weight="700" fill="#e8eaf0">Clutch Replacement</text><text x="74" y="304" font-family="-apple-system, 'Segoe UI', Roboto, Arial, sans-serif" font-size="13" fill="#8b8fa8">David Clarke &#183; DC15 GHI</text><rect x="74" y="324" width="62" height="26" rx="13.0" fill="#3b82f6"/><text x="105.0" y="341.2" text-anchor="middle" font-family="-apple-system, 'Segoe UI', Roboto, Arial, sans-serif" font-size="12" font-weight="700" fill="#FFFFFF">Sent</text><line x1="74" y1="380" x2="326" y2="380" stroke="#2a2d3e" stroke-width="1"/><text x="74" y="412" font-family="-apple-system, 'Segoe UI', Roboto, Arial, sans-serif" font-size="12" fill="#8b8fa8">Quote total</text><text x="326" y="412" text-anchor="end" font-family="-apple-system, 'Segoe UI', Roboto, Arial, sans-serif" font-size="24" font-weight="800" fill="#e8eaf0">£504.00</text><text x="326" y="450" text-anchor="end" font-family="-apple-system, 'Segoe UI', Roboto, Arial, sans-serif" font-size="13" font-weight="700" fill="#3b82f6">&#8594; Job sheet</text><g>
<rect x="360.0" y="333.0" width="42.0" height="14.0" fill="#F4A523"/>
<polygon points="402.0,326.0 430.0,340.0 402.0,354.0" fill="#F4A523"/>
</g><g>
<circle cx="395.0" cy="294.0" r="24" fill="none" stroke="#F4A523" stroke-width="1.5" opacity="0.35"/>
<circle cx="395.0" cy="294.0" r="15" fill="#F4A523"/>
<path d="M 390.0 287.0 L 390.0 302.0 L 393.0 299.0 L 396.0 305.0 L 399.0 303.5 L 396.5 297.5 L 401.0 297.5 Z" fill="#0A0A0A"/>
<rect x="357.0" y="316.0" width="76" height="22" rx="11" fill="#F4A523"/>
<text x="395.0" y="331.5" text-anchor="middle" font-family="-apple-system, 'Segoe UI', Roboto, Arial, sans-serif" font-size="11.5" font-weight="800" letter-spacing="0.5" fill="#0A0A0A">1 CLICK</text>
</g><circle cx="453" cy="170" r="13" fill="#F4A523"/><text x="453" y="175" text-anchor="middle" font-family="-apple-system, 'Segoe UI', Roboto, Arial, sans-serif" font-size="14" font-weight="800" fill="#0A0A0A">2</text><text x="474" y="175" font-family="-apple-system, 'Segoe UI', Roboto, Arial, sans-serif" font-size="15" font-weight="700" letter-spacing="0.5" fill="#e8eaf0">JOB SHEET</text><rect x="440" y="190" width="300" height="300" rx="14" fill="#161820" stroke="#2a2d3e" stroke-width="1.5"/><circle cx="464" cy="214" r="5" fill="#ff5f57"/><circle cx="480" cy="214" r="5" fill="#febc2e"/><circle cx="496" cy="214" r="5" fill="#28c840"/><text x="464" y="254" font-family="-apple-system, 'Segoe UI', Roboto, Arial, sans-serif" font-size="13" font-weight="700" fill="#F4A523">JOB-0006</text><text x="464" y="282" font-family="-apple-system, 'Segoe UI', Roboto, Arial, sans-serif" font-size="19" font-weight="700" fill="#e8eaf0">Clutch Replacement</text><text x="464" y="304" font-family="-apple-system, 'Segoe UI', Roboto, Arial, sans-serif" font-size="13" fill="#8b8fa8">David Clarke &#183; DC15 GHI</text><rect x="464" y="324" width="110" height="26" rx="13.0" fill="#f5c542"/><text x="519.0" y="341.2" text-anchor="middle" font-family="-apple-system, 'Segoe UI', Roboto, Arial, sans-serif" font-size="12" font-weight="700" fill="#0A0A0A">In Progress</text><line x1="464" y1="380" x2="716" y2="380" stroke="#2a2d3e" stroke-width="1"/><text x="464" y="412" font-family="-apple-system, 'Segoe UI', Roboto, Arial, sans-serif" font-size="12" fill="#8b8fa8">Booked in for</text><text x="716" y="412" text-anchor="end" font-family="-apple-system, 'Segoe UI', Roboto, Arial, sans-serif" font-size="15" font-weight="700" fill="#e8eaf0">Thu 9 Jul, 9:00</text><text x="716" y="450" text-anchor="end" font-family="-apple-system, 'Segoe UI', Roboto, Arial, sans-serif" font-size="13" font-weight="700" fill="#2ecc71">&#8594; Invoice</text><g>
<rect x="750.0" y="333.0" width="42.0" height="14.0" fill="#F4A523"/>
<polygon points="792.0,326.0 820.0,340.0 792.0,354.0" fill="#F4A523"/>
</g><g>
<circle cx="785.0" cy="294.0" r="24" fill="none" stroke="#F4A523" stroke-width="1.5" opacity="0.35"/>
<circle cx="785.0" cy="294.0" r="15" fill="#F4A523"/>
<path d="M 780.0 287.0 L 780.0 302.0 L 783.0 299.0 L 786.0 305.0 L 789.0 303.5 L 786.5 297.5 L 791.0 297.5 Z" fill="#0A0A0A"/>
<rect x="747.0" y="316.0" width="76" height="22" rx="11" fill="#F4A523"/>
<text x="785.0" y="331.5" text-anchor="middle" font-family="-apple-system, 'Segoe UI', Roboto, Arial, sans-serif" font-size="11.5" font-weight="800" letter-spacing="0.5" fill="#0A0A0A">1 CLICK</text>
</g><circle cx="843" cy="170" r="13" fill="#F4A523"/><text x="843" y="175" text-anchor="middle" font-family="-apple-system, 'Segoe UI', Roboto, Arial, sans-serif" font-size="14" font-weight="800" fill="#0A0A0A">3</text><text x="864" y="175" font-family="-apple-system, 'Segoe UI', Roboto, Arial, sans-serif" font-size="15" font-weight="700" letter-spacing="0.5" fill="#e8eaf0">INVOICE</text><rect x="830" y="190" width="300" height="300" rx="14" fill="#161820" stroke="#2a2d3e" stroke-width="1.5"/><circle cx="854" cy="214" r="5" fill="#ff5f57"/><circle cx="870" cy="214" r="5" fill="#febc2e"/><circle cx="886" cy="214" r="5" fill="#28c840"/><text x="854" y="254" font-family="-apple-system, 'Segoe UI', Roboto, Arial, sans-serif" font-size="13" font-weight="700" fill="#F4A523">INV-1004</text><text x="854" y="282" font-family="-apple-system, 'Segoe UI', Roboto, Arial, sans-serif" font-size="19" font-weight="700" fill="#e8eaf0">David Clarke</text><text x="854" y="304" font-family="-apple-system, 'Segoe UI', Roboto, Arial, sans-serif" font-size="13" fill="#8b8fa8">Re: Job JOB-0006</text><rect x="854" y="324" width="66" height="26" rx="13.0" fill="#2ecc71"/><text x="887.0" y="341.2" text-anchor="middle" font-family="-apple-system, 'Segoe UI', Roboto, Arial, sans-serif" font-size="12" font-weight="700" fill="#0A0A0A">Paid</text><line x1="854" y1="380" x2="1106" y2="380" stroke="#2a2d3e" stroke-width="1"/><text x="854" y="412" font-family="-apple-system, 'Segoe UI', Roboto, Arial, sans-serif" font-size="12" fill="#8b8fa8">Total paid</text><text x="1106" y="412" text-anchor="end" font-family="-apple-system, 'Segoe UI', Roboto, Arial, sans-serif" font-size="24" font-weight="800" fill="#F4A523">£504.00</text><text x="854" y="450" font-family="-apple-system, 'Segoe UI', Roboto, Arial, sans-serif" font-size="12.5" fill="#8b8fa8">Job closed, nothing to chase.</text><rect x="50" y="500" width="320" height="36" rx="18.0" fill="#F4A523"/><text x="210.0" y="522.9" text-anchor="middle" font-family="-apple-system, 'Segoe UI', Roboto, Arial, sans-serif" font-size="14" font-weight="700" fill="#0A0A0A">SEE IT WORKING &#8594;</text></svg>