<svg width="1500" height="560" viewBox="0 0 1500 560" xmlns="http://www.w3.org/2000/svg">
<defs>
  <radialGradient id="glow" cx="0.08" cy="0.05" r="1.0">
    <stop offset="0" stop-color="#F4A523" stop-opacity="0.14"/>
    <stop offset="1" stop-color="#F4A523" stop-opacity="0"/>
  </radialGradient>
</defs>
<rect x="1" y="1" width="1498" height="558" rx="22" fill="#0A0A0A" stroke="#2a2d3e" stroke-width="2"/>
<rect x="1" y="1" width="1498" height="558" rx="22" fill="url(#glow)"/>
<text x="50" y="62" font-family="-apple-system, 'Segoe UI', Roboto, Arial, sans-serif" font-size="14" font-weight="700" letter-spacing="2" fill="#F4A523">THE WORKSHOP WORKFLOW</text>
<text x="50" y="108" font-family="-apple-system, 'Segoe UI', Roboto, Arial, sans-serif" font-size="34" font-weight="800" fill="#FFFFFF">Job sheet to complete, all on one screen.</text>
<text x="50" y="140" font-family="-apple-system, 'Segoe UI', Roboto, Arial, sans-serif" font-size="16" fill="#8b8fa8">Technicians run the inspection, attach photos, and mark it done — no paper, no separate apps.</text>
<circle cx="63" cy="170" r="13" fill="#F4A523"/><text x="63" y="175" text-anchor="middle" font-family="-apple-system, 'Segoe UI', Roboto, Arial, sans-serif" font-size="14" font-weight="800" fill="#0A0A0A">1</text><text x="84" y="175" font-family="-apple-system, 'Segoe UI', Roboto, Arial, sans-serif" font-size="15" font-weight="700" letter-spacing="0.5" fill="#e8eaf0">JOB SHEET</text><rect x="50" y="190" width="280" height="300" rx="14" fill="#161820" stroke="#2a2d3e" stroke-width="1.5"/><circle cx="74" cy="214" r="5" fill="#ff5f57"/><circle cx="90" cy="214" r="5" fill="#febc2e"/><circle cx="106" cy="214" r="5" fill="#28c840"/><text x="72" y="252" font-family="-apple-system, 'Segoe UI', Roboto, Arial, sans-serif" font-size="12.5" font-weight="700" fill="#F4A523">JOB-0003</text><text x="72" y="278" font-family="-apple-system, 'Segoe UI', Roboto, Arial, sans-serif" font-size="17" font-weight="700" fill="#e8eaf0">Timing Belt</text><text x="72" y="298" font-family="-apple-system, 'Segoe UI', Roboto, Arial, sans-serif" font-size="17" font-weight="700" fill="#e8eaf0">Replacement</text><text x="72" y="320" font-family="-apple-system, 'Segoe UI', Roboto, Arial, sans-serif" font-size="12.5" fill="#8b8fa8">David Clarke &#183; DC15 GHI</text><rect x="72" y="338" width="110" height="26" rx="13.0" fill="#f5c542"/><text x="127.0" y="355.2" text-anchor="middle" font-family="-apple-system, 'Segoe UI', Roboto, Arial, sans-serif" font-size="12" font-weight="700" fill="#0A0A0A">In Progress</text><text x="72" y="452" font-family="-apple-system, 'Segoe UI', Roboto, Arial, sans-serif" font-size="11.5" fill="#8b8fa8">Technician opens today&#8217;s job &#8594;</text><g>
<rect x="342.0" y="333.0" width="28.0" height="14.0" fill="#F4A523"/>
<polygon points="370.0,326.0 398.0,340.0 370.0,354.0" fill="#F4A523"/>
</g><circle cx="423" cy="170" r="13" fill="#F4A523"/><text x="423" y="175" text-anchor="middle" font-family="-apple-system, 'Segoe UI', Roboto, Arial, sans-serif" font-size="14" font-weight="800" fill="#0A0A0A">2</text><text x="444" y="175" font-family="-apple-system, 'Segoe UI', Roboto, Arial, sans-serif" font-size="15" font-weight="700" letter-spacing="0.5" fill="#e8eaf0">INSPECTION</text><rect x="410" y="190" width="280" height="300" rx="14" fill="#161820" stroke="#2a2d3e" stroke-width="1.5"/><circle cx="434" cy="214" r="5" fill="#ff5f57"/><circle cx="450" cy="214" r="5" fill="#febc2e"/><circle cx="466" cy="214" r="5" fill="#28c840"/><text x="432" y="248" font-family="-apple-system, 'Segoe UI', Roboto, Arial, sans-serif" font-size="11" font-weight="700" letter-spacing="1" fill="#8b8fa8">VEHICLE HEALTH CHECK</text><text x="432" y="274" font-family="-apple-system, 'Segoe UI', Roboto, Arial, sans-serif" font-size="12.5" fill="#e8eaf0">Front pads / discs</text><circle cx="658" cy="269" r="12" fill="#2ecc71"/><text x="658" y="273" text-anchor="middle" font-family="-apple-system, 'Segoe UI', Roboto, Arial, sans-serif" font-size="11" font-weight="800" fill="#0A0A0A">P</text><line x1="432" y1="286" x2="668" y2="286" stroke="#2a2d3e" stroke-width="1"/><text x="432" y="312" font-family="-apple-system, 'Segoe UI', Roboto, Arial, sans-serif" font-size="12.5" fill="#e8eaf0">Brake fluid</text><circle cx="658" cy="307" r="12" fill="#2ecc71"/><text x="658" y="311" text-anchor="middle" font-family="-apple-system, 'Segoe UI', Roboto, Arial, sans-serif" font-size="11" font-weight="800" fill="#0A0A0A">P</text><line x1="432" y1="324" x2="668" y2="324" stroke="#2a2d3e" stroke-width="1"/><text x="432" y="350" font-family="-apple-system, 'Segoe UI', Roboto, Arial, sans-serif" font-size="12.5" fill="#e8eaf0">Battery &amp; charging</text><circle cx="658" cy="345" r="12" fill="#f5c542"/><text x="658" y="349" text-anchor="middle" font-family="-apple-system, 'Segoe UI', Roboto, Arial, sans-serif" font-size="11" font-weight="800" fill="#0A0A0A">A</text><line x1="432" y1="362" x2="668" y2="362" stroke="#2a2d3e" stroke-width="1"/><text x="432" y="388" font-family="-apple-system, 'Segoe UI', Roboto, Arial, sans-serif" font-size="12.5" fill="#e8eaf0">Drive belts</text><circle cx="658" cy="383" r="12" fill="#ef4444"/><text x="658" y="387" text-anchor="middle" font-family="-apple-system, 'Segoe UI', Roboto, Arial, sans-serif" font-size="11" font-weight="800" fill="#0A0A0A">F</text><line x1="432" y1="400" x2="668" y2="400" stroke="#2a2d3e" stroke-width="1"/><text x="432" y="452" font-family="-apple-system, 'Segoe UI', Roboto, Arial, sans-serif" font-size="11.5" fill="#8b8fa8">Every item logged in seconds &#8594;</text><g>
<rect x="702.0" y="333.0" width="28.0" height="14.0" fill="#F4A523"/>
<polygon points="730.0,326.0 758.0,340.0 730.0,354.0" fill="#F4A523"/>
</g><circle cx="783" cy="170" r="13" fill="#F4A523"/><text x="783" y="175" text-anchor="middle" font-family="-apple-system, 'Segoe UI', Roboto, Arial, sans-serif" font-size="14" font-weight="800" fill="#0A0A0A">3</text><text x="804" y="175" font-family="-apple-system, 'Segoe UI', Roboto, Arial, sans-serif" font-size="15" font-weight="700" letter-spacing="0.5" fill="#e8eaf0">ADD PHOTOS</text><rect x="770" y="190" width="280" height="300" rx="14" fill="#161820" stroke="#2a2d3e" stroke-width="1.5"/><circle cx="794" cy="214" r="5" fill="#ff5f57"/><circle cx="810" cy="214" r="5" fill="#febc2e"/><circle cx="826" cy="214" r="5" fill="#28c840"/><rect x="792" y="244" width="96" height="96" rx="10" fill="#0A0A0A" stroke="#2a2d3e" stroke-width="1.5"/><rect x="824.0" y="282.0" width="32" height="20" rx="4" fill="none" stroke="#8b8fa8" stroke-width="2"/><circle cx="840.0" cy="292.0" r="6" fill="none" stroke="#8b8fa8" stroke-width="2"/><rect x="900" y="244" width="96" height="96" rx="10" fill="#0A0A0A" stroke="#2a2d3e" stroke-width="1.5"/><rect x="932.0" y="282.0" width="32" height="20" rx="4" fill="none" stroke="#8b8fa8" stroke-width="2"/><circle cx="948.0" cy="292.0" r="6" fill="none" stroke="#8b8fa8" stroke-width="2"/><rect x="792" y="352" width="96" height="96" rx="10" fill="#0A0A0A" stroke="#2a2d3e" stroke-width="1.5"/><rect x="824.0" y="390.0" width="32" height="20" rx="4" fill="none" stroke="#8b8fa8" stroke-width="2"/><circle cx="840.0" cy="400.0" r="6" fill="none" stroke="#8b8fa8" stroke-width="2"/><rect x="900" y="352" width="96" height="96" rx="10" fill="#0A0A0A" stroke="#2a2d3e" stroke-width="1.5"/><rect x="932.0" y="390.0" width="32" height="20" rx="4" fill="none" stroke="#8b8fa8" stroke-width="2"/><circle cx="948.0" cy="400.0" r="6" fill="none" stroke="#8b8fa8" stroke-width="2"/><text x="792" y="452" font-family="-apple-system, 'Segoe UI', Roboto, Arial, sans-serif" font-size="11.5" fill="#8b8fa8">Proof for the customer, attached &#8594;</text><g>
<rect x="1062.0" y="333.0" width="28.0" height="14.0" fill="#F4A523"/>
<polygon points="1090.0,326.0 1118.0,340.0 1090.0,354.0" fill="#F4A523"/>
</g><circle cx="1143" cy="170" r="13" fill="#F4A523"/><text x="1143" y="175" text-anchor="middle" font-family="-apple-system, 'Segoe UI', Roboto, Arial, sans-serif" font-size="14" font-weight="800" fill="#0A0A0A">4</text><text x="1164" y="175" font-family="-apple-system, 'Segoe UI', Roboto, Arial, sans-serif" font-size="15" font-weight="700" letter-spacing="0.5" fill="#e8eaf0">COMPLETE</text><rect x="1130" y="190" width="280" height="300" rx="14" fill="#161820" stroke="#2a2d3e" stroke-width="1.5"/><circle cx="1154" cy="214" r="5" fill="#ff5f57"/><circle cx="1170" cy="214" r="5" fill="#febc2e"/><circle cx="1186" cy="214" r="5" fill="#28c840"/><text x="1152" y="252" font-family="-apple-system, 'Segoe UI', Roboto, Arial, sans-serif" font-size="12.5" font-weight="700" fill="#F4A523">JOB-0003</text><text x="1152" y="278" font-family="-apple-system, 'Segoe UI', Roboto, Arial, sans-serif" font-size="17" font-weight="700" fill="#e8eaf0">Timing Belt</text><text x="1152" y="298" font-family="-apple-system, 'Segoe UI', Roboto, Arial, sans-serif" font-size="17" font-weight="700" fill="#e8eaf0">Replacement</text><text x="1152" y="320" font-family="-apple-system, 'Segoe UI', Roboto, Arial, sans-serif" font-size="12.5" fill="#8b8fa8">David Clarke &#183; DC15 GHI</text><rect x="1152" y="338" width="90" height="26" rx="13.0" fill="#2ecc71"/><text x="1197.0" y="355.2" text-anchor="middle" font-family="-apple-system, 'Segoe UI', Roboto, Arial, sans-serif" font-size="12" font-weight="700" fill="#0A0A0A">Complete</text><text x="1152" y="452" font-family="-apple-system, 'Segoe UI', Roboto, Arial, sans-serif" font-size="11.5" fill="#8b8fa8">Ready to invoice.</text><rect x="50" y="500" width="320" height="36" rx="18.0" fill="#F4A523"/><text x="210.0" y="522.9" text-anchor="middle" font-family="-apple-system, 'Segoe UI', Roboto, Arial, sans-serif" font-size="14" font-weight="700" fill="#0A0A0A">SEE IT WORKING &#8594;</text></svg>