<svg width="256" height="256" viewBox="0 0 256 256" xmlns="http://www.w3.org/2000/svg"><polygon points="236.00,128.00 182.00,221.53 74.00,221.53 20.00,128.00 74.00,34.47 182.00,34.47" fill="#F4A523" stroke="#F4A523" stroke-width="19.4" stroke-linejoin="round"/><path transform="translate(68.31,172.71)" d="M48.33369140625 1.212890625Q35.47705078125 1.212890625 25.71328125 -4.396728515624999Q15.94951171875 -10.006347656249998 10.461181640625 -20.3765625Q4.9728515625 -30.746777343749997 4.9728515625 -44.9982421875Q4.9728515625 -59.79550781249999 10.764404296875 -70.196044921875Q16.55595703125 -80.59658203125 26.289404296875 -86.08491210937498Q36.022851562499994 -91.57324218749999 48.091113281249996 -91.57324218749999Q55.9142578125 -91.57324218749999 62.61547851562499 -89.32939453124999Q69.31669921874999 -87.08554687499999 74.56245117187498 -82.96171874999999Q79.80820312499999 -78.83789062499999 83.05268554687498 -73.228271484375Q86.29716796874999 -67.61865234375 87.14619140625 -60.887109374999994H65.49609375Q64.70771484375 -63.67675781249999 63.221923828125 -65.890283203125Q61.736132812499996 -68.10380859374999 59.5529296875 -69.65024414062499Q57.36972656249999 -71.1966796875 54.61040039062499 -71.98505859375Q51.85107421874999 -72.7734375 48.454980468749994 -72.7734375Q41.90537109375 -72.7734375 37.023486328125 -69.55927734375Q32.1416015625 -66.3451171875 29.503564453125 -60.189697265625Q26.86552734375 -54.03427734375 26.86552734375 -45.30146484375Q26.86552734375 -36.5080078125 29.442919921874996 -30.322265625Q32.020312499999996 -24.1365234375 36.871874999999996 -20.86171875Q41.723437499999996 -17.5869140625 48.51562499999999 -17.5869140625Q54.64072265624999 -17.5869140625 58.85551757812499 -19.58818359375Q63.07031249999999 -21.589453125 65.25351562499999 -25.319091796875Q67.43671875 -29.048730468749998 67.43671875 -34.0822265625L71.49990234375 -33.536425781249996H49.364648437499994V-49.243359375H88.11650390624999V-37.35703125Q88.11650390624999 -25.288769531249997 83.02236328125 -16.646923828124997Q77.92822265624999 -8.005078124999999 68.922509765625 -3.3960937499999995Q59.916796874999996 1.212890625 48.33369140625 1.212890625Z" fill="#FFFFFF"/><rect x="153.29" y="123.47" width="66.51" height="15.71" rx="7.85" fill="#FFFFFF"/></svg>