<svg width="512" height="512" viewBox="0 0 512 512" xmlns="http://www.w3.org/2000/svg"><rect width="512" height="512" rx="114" fill="#0A0A0A"/><defs><filter id="glowi" x="-60%" y="-60%" width="220%" height="220%"><feGaussianBlur stdDeviation="30.6"/></filter></defs><polygon points="426.00,256.00 341.00,403.22 171.00,403.22 86.00,256.00 171.00,108.78 341.00,108.78" fill="#F4A523" opacity="0.55" filter="url(#glowi)"/><polygon points="426.00,256.00 341.00,403.22 171.00,403.22 86.00,256.00 171.00,108.78 341.00,108.78" fill="#F4A523" stroke="#F4A523" stroke-width="30.6" stroke-linejoin="round"/><path transform="translate(162.05,326.38)" d="M76.08081054687499 1.9091796874999998Q55.84350585937499 1.9091796874999998 40.47460937499999 -6.920776367187499Q25.105712890624996 -15.750732421874998 16.466674804687496 -32.07421874999999Q7.827636718749999 -48.39770507812499 7.827636718749999 -70.83056640624999Q7.827636718749999 -94.12255859374999 16.943969726562496 -110.49377441406249Q26.060302734374996 -126.86499023437499 41.38146972656249 -135.50402832031247Q56.70263671874999 -144.14306640624997 75.69897460937499 -144.14306640624997Q88.01318359374999 -144.14306640624997 98.56140136718749 -140.61108398437497Q109.10961914062499 -137.07910156249997 117.36682128906249 -130.58789062499997Q125.62402343749999 -124.09667968749999 130.73107910156247 -115.26672363281249Q135.83813476562497 -106.43676757812499 137.17456054687497 -95.84082031249999H103.09570312499999Q101.85473632812499 -100.23193359374999 99.51599121093749 -103.71618652343749Q97.17724609374999 -107.20043945312499 93.74072265624999 -109.63464355468749Q90.30419921874999 -112.06884765624999 85.96081542968749 -113.30981445312499Q81.61743164062499 -114.55078124999999 76.27172851562499 -114.55078124999999Q65.96215820312499 -114.55078124999999 58.277709960937486 -109.49145507812499Q50.59326171874999 -104.43212890624999 46.44079589843749 -94.74304199218749Q42.28833007812499 -85.05395507812499 42.28833007812499 -71.30786132812499Q42.28833007812499 -57.46630859374999 46.34533691406249 -47.72949218749999Q50.40234374999999 -37.99267578124999 58.039062499999986 -32.83789062499999Q65.67578124999999 -27.683105468749996 76.36718749999999 -27.683105468749996Q86.00854492187499 -27.683105468749996 92.64294433593749 -30.833251953124993Q99.27734374999999 -33.98339843749999 102.71386718749999 -39.85412597656249Q106.15039062499999 -45.72485351562499 106.15039062499999 -53.64794921874999L112.54614257812499 -52.78881835937499H77.70361328124999V-77.51269531249999H138.70190429687497V-58.80273437499999Q138.70190429687497 -39.80639648437499 130.68334960937497 -26.203491210937496Q122.66479492187499 -12.600585937499998 108.48913574218749 -5.345703124999999Q94.31347656249999 1.9091796874999998 76.08081054687499 1.9091796874999998Z" fill="#FFFFFF"/><rect x="295.81" y="248.87" width="104.69" height="24.72" rx="12.36" fill="#FFFFFF"/></svg>