<svg width="502" height="120" viewBox="0 0 502 120" xmlns="http://www.w3.org/2000/svg"><polygon points="110.00,60.00 85.00,103.30 35.00,103.30 10.00,60.00 35.00,16.70 85.00,16.70" fill="#FF6A00" stroke="#FF6A00" stroke-width="9.0" stroke-linejoin="round"/><path transform="translate(32.37,80.70)" d="M22.376708984374996 0.5615234374999999Q16.424560546874996 0.5615234374999999 11.904296874999998 -2.0355224609374996Q7.384033203124999 -4.632568359374999 4.843139648437499 -9.433593749999998Q2.3022460937499996 -14.234619140624998 2.3022460937499996 -20.832519531249996Q2.3022460937499996 -27.683105468749996 4.983520507812499 -32.49816894531249Q7.664794921874999 -37.31323242187499 12.171020507812498 -39.85412597656249Q16.677246093749996 -42.39501953124999 22.264404296874996 -42.39501953124999Q25.886230468749996 -42.39501953124999 28.988647460937493 -41.35620117187499Q32.09106445312499 -40.31738281249999 34.51965332031249 -38.40820312499999Q36.94824218749999 -36.49902343749999 38.45031738281249 -33.90197753906249Q39.95239257812499 -31.304931640624996 40.34545898437499 -28.188476562499996H30.322265624999996Q29.957275390624996 -29.479980468749996 29.269409179687496 -30.504760742187496Q28.581542968749996 -31.529541015624996 27.570800781249996 -32.24548339843749Q26.560058593749996 -32.96142578124999 25.282592773437496 -33.32641601562499Q24.005126953124996 -33.69140624999999 22.432861328124996 -33.69140624999999Q19.400634765624996 -33.69140624999999 17.140502929687496 -32.20336914062499Q14.880371093749998 -30.715332031249996 13.659057617187498 -27.865600585937496Q12.437744140624998 -25.015869140624996 12.437744140624998 -20.972900390624996Q12.437744140624998 -16.901855468749996 13.630981445312498 -14.038085937499996Q14.824218749999998 -11.174316406249998 17.070312499999996 -9.658203124999998Q19.316406249999996 -8.142089843749998 22.460937499999996 -8.142089843749998Q25.296630859374996 -8.142089843749998 27.247924804687496 -9.068603515624998Q29.199218749999996 -9.995117187499998 30.209960937499996 -11.721801757812498Q31.220703124999996 -13.448486328124998 31.220703124999996 -15.778808593749998L33.10180664062499 -15.526123046874998H22.854003906249996V-22.797851562499996H40.79467773437499V-17.294921874999996Q40.79467773437499 -11.707763671874998 38.43627929687499 -7.706909179687499Q36.07788085937499 -3.7060546874999996 31.908569335937493 -1.5722656249999998Q27.739257812499996 0.5615234374999999 22.376708984374996 0.5615234374999999Z" fill="#FFFFFF"/><rect x="71.71" y="57.90" width="30.79" height="7.27" rx="3.64" fill="#FFFFFF"/><path transform="translate(137.50,76.56)" d="M17.9013671875 0.44921875Q13.1396484375 0.44921875 9.5234375 -1.62841796875Q5.9072265625 -3.7060546875 3.87451171875 -7.546875Q1.841796875 -11.3876953125 1.841796875 -16.666015625Q1.841796875 -22.146484375 3.98681640625 -25.99853515625Q6.1318359375 -29.8505859375 9.73681640625 -31.88330078125Q13.341796875 -33.916015625 17.8115234375 -33.916015625Q20.708984375 -33.916015625 23.19091796875 -33.0849609375Q25.6728515625 -32.25390625 27.61572265625 -30.7265625Q29.55859375 -29.19921875 30.76025390625 -27.12158203125Q31.9619140625 -25.0439453125 32.2763671875 -22.55078125H24.2578125Q23.9658203125 -23.583984375 23.41552734375 -24.40380859375Q22.865234375 -25.2236328125 22.056640625 -25.79638671875Q21.248046875 -26.369140625 20.22607421875 -26.6611328125Q19.2041015625 -26.953125 17.9462890625 -26.953125Q15.5205078125 -26.953125 13.71240234375 -25.7626953125Q11.904296875 -24.572265625 10.92724609375 -22.29248046875Q9.9501953125 -20.0126953125 9.9501953125 -16.7783203125Q9.9501953125 -13.521484375 10.90478515625 -11.23046875Q11.859375 -8.939453125 13.65625 -7.7265625Q15.453125 -6.513671875 17.96875 -6.513671875Q20.2373046875 -6.513671875 21.79833984375 -7.2548828125Q23.359375 -7.99609375 24.16796875 -9.37744140625Q24.9765625 -10.7587890625 24.9765625 -12.623046875L26.4814453125 -12.4208984375H18.283203125V-18.23828125H32.6357421875V-13.8359375Q32.6357421875 -9.3662109375 30.7490234375 -6.16552734375Q28.8623046875 -2.96484375 25.52685546875 -1.2578125Q22.19140625 0.44921875 17.9013671875 0.44921875Z M36.12796875 0.0 47.2910546875 -33.466796875H57.915078125L69.41507812500001 0.0H60.520546875L55.8711328125 -14.6220703125Q54.7480859375 -18.283203125 53.70365234375 -22.40478515625Q52.65921875 -26.5263671875 51.6035546875 -30.951171875H53.37796875Q52.3672265625 -26.50390625 51.4238671875 -22.38232421875Q50.4805078125 -18.2607421875 49.42484375 -14.6220703125L44.93265625 0.0ZM43.719765625 -7.1201171875V-13.1845703125H61.8457421875V-7.1201171875Z M73.5362109375 0.0V-33.466796875H87.2373828125Q91.0108203125 -33.466796875 93.7510546875 -32.10791015625Q96.4912890625 -30.7490234375 97.96248046875 -28.255859375Q99.433671875 -25.7626953125 99.433671875 -22.3486328125Q99.433671875 -18.912109375 97.9287890625 -16.47509765625Q96.42390625 -14.0380859375 93.63875 -12.7802734375Q90.85359375 -11.5224609375 87.0127734375 -11.5224609375H78.27546875V-17.7890625H85.5752734375Q87.43953125 -17.7890625 88.68611328125 -18.283203125Q89.9326953125 -18.77734375 90.57283203125 -19.7880859375Q91.21296875 -20.798828125 91.21296875 -22.3486328125Q91.21296875 -23.9208984375 90.57283203125 -24.9541015625Q89.9326953125 -25.9873046875 88.6748828125 -26.51513671875Q87.4170703125 -27.04296875 85.5528125 -27.04296875H81.464921875V0.0ZM91.9092578125 0.0 83.7559375 -15.2958984375H92.246171875L100.601640625 0.0Z M102.9034375 0.0 114.0665234375 -33.466796875H124.690546875L136.190546875 0.0H127.296015625L122.6466015625 -14.6220703125Q121.5235546875 -18.283203125 120.47912109375 -22.40478515625Q119.4346875 -26.5263671875 118.3790234375 -30.951171875H120.1534375Q119.1426953125 -26.50390625 118.1993359375 -22.38232421875Q117.2559765625 -18.2607421875 116.2003125 -14.6220703125L111.708125 0.0ZM110.495234375 -7.1201171875V-13.1845703125H128.6212109375V-7.1201171875Z M155.607578125 0.44921875Q150.845859375 0.44921875 147.2296484375 -1.62841796875Q143.6134375 -3.7060546875 141.58072265625 -7.546875Q139.5480078125 -11.3876953125 139.5480078125 -16.666015625Q139.5480078125 -22.146484375 141.69302734375 -25.99853515625Q143.838046875 -29.8505859375 147.44302734375 -31.88330078125Q151.0480078125 -33.916015625 155.517734375 -33.916015625Q158.4151953125 -33.916015625 160.89712890625 -33.0849609375Q163.3790625 -32.25390625 165.32193359375 -30.7265625Q167.2648046875 -29.19921875 168.46646484375 -27.12158203125Q169.668125 -25.0439453125 169.982578125 -22.55078125H161.9640234375Q161.67203125 -23.583984375 161.12173828125 -24.40380859375Q160.5714453125 -25.2236328125 159.7628515625 -25.79638671875Q158.9542578125 -26.369140625 157.93228515625 -26.6611328125Q156.9103125 -26.953125 155.6525 -26.953125Q153.22671875 -26.953125 151.41861328125 -25.7626953125Q149.6105078125 -24.572265625 148.63345703125 -22.29248046875Q147.65640625 -20.0126953125 147.65640625 -16.7783203125Q147.65640625 -13.521484375 148.61099609375 -11.23046875Q149.5655859375 -8.939453125 151.3624609375 -7.7265625Q153.1593359375 -6.513671875 155.6749609375 -6.513671875Q157.943515625 -6.513671875 159.50455078125 -7.2548828125Q161.0655859375 -7.99609375 161.8741796875 -9.37744140625Q162.6827734375 -10.7587890625 162.6827734375 -12.623046875L164.18765625 -12.4208984375H155.9894140625V-18.23828125H170.341953125V-13.8359375Q170.341953125 -9.3662109375 168.455234375 -6.16552734375Q166.568515625 -2.96484375 163.23306640625 -1.2578125Q159.8976171875 0.44921875 155.607578125 0.44921875Z M175.383984375 0.0V-33.466796875H198.60859375V-26.998046875H183.3126953125V-20.080078125H197.395703125V-13.74609375H183.3126953125V-6.46875H198.5861328125V0.0Z" fill="#FFFFFF"/><path transform="translate(346.61,76.56)" d="M14.5771484375 0.0H6.3115234375V-4.4921875H14.3076171875Q18.103515625 -4.4921875 20.619140625 -5.9072265625Q23.134765625 -7.322265625 24.392578125 -10.07373046875Q25.650390625 -12.8251953125 25.650390625 -16.7783203125Q25.650390625 -20.708984375 24.40380859375 -23.4267578125Q23.1572265625 -26.14453125 20.69775390625 -27.5595703125Q18.23828125 -28.974609375 14.5771484375 -28.974609375H6.1318359375V-33.466796875H14.9140625Q19.85546875 -33.466796875 23.3818359375 -31.4677734375Q26.908203125 -29.46875 28.794921875 -25.72900390625Q30.681640625 -21.9892578125 30.681640625 -16.7783203125Q30.681640625 -11.544921875 28.78369140625 -7.7939453125Q26.8857421875 -4.04296875 23.28076171875 -2.021484375Q19.67578125 0.0 14.5771484375 0.0ZM8.8271484375 -33.466796875V0.0H3.7060546875V-33.466796875Z M38.4827734375 0.0 50.3870703125 -33.466796875H56.6761328125L68.8050390625 0.0H63.2571875L56.743515625 -18.6201171875Q55.97984375 -20.888671875 55.07017578125 -23.9658203125Q54.1605078125 -27.04296875 52.970078125 -31.35546875H54.00328125Q52.8577734375 -26.998046875 51.94810546875 -23.88720703125Q51.0384375 -20.7763671875 50.3421484375 -18.6201171875L44.030625 0.0ZM44.9290625 -8.8271484375V-13.0947265625H62.3362890625V-8.8271484375Z M89.0270703125 0.5615234375Q85.27609375 0.5615234375 82.5133984375 -0.62890625Q79.750703125 -1.8193359375 78.18966796875 -4.03173828125Q76.6286328125 -6.244140625 76.47140625 -9.298828125H81.6149609375Q81.7721875 -7.4794921875 82.79416015625 -6.2890625Q83.8161328125 -5.0986328125 85.45578125 -4.5146484375Q87.0954296875 -3.9306640625 89.004609375 -3.9306640625Q91.1383984375 -3.9306640625 92.78927734375 -4.59326171875Q94.44015625 -5.255859375 95.4059765625 -6.47998046875Q96.371796875 -7.7041015625 96.371796875 -9.3212890625Q96.371796875 -10.78125 95.52951171875 -11.71337890625Q94.6872265625 -12.6455078125 93.26095703125 -13.26318359375Q91.8346875 -13.880859375 90.0153515625 -14.3525390625L86.1071484375 -15.4306640625Q81.996796875 -16.53125 79.69455078125 -18.6875Q77.3923046875 -20.84375 77.3923046875 -24.2802734375Q77.3923046875 -27.177734375 78.95333984375 -29.34521484375Q80.514375 -31.5126953125 83.19845703125 -32.71435546875Q85.8825390625 -33.916015625 89.2516796875 -33.916015625Q92.688203125 -33.916015625 95.30490234375 -32.71435546875Q97.9216015625 -31.5126953125 99.41525390625 -29.423828125Q100.90890625 -27.3349609375 100.9762890625 -24.662109375H95.9899609375Q95.742890625 -26.953125 93.86740234375 -28.2109375Q91.9919140625 -29.46875 89.139375 -29.46875Q87.117890625 -29.46875 85.62423828125 -28.83984375Q84.1305859375 -28.2109375 83.31076171875 -27.09912109375Q82.4909375 -25.9873046875 82.4909375 -24.572265625Q82.4909375 -22.9775390625 83.46798828125 -22.00048828125Q84.4450390625 -21.0234375 85.84884765625 -20.45068359375Q87.25265625 -19.8779296875 88.5329296875 -19.541015625L91.789765625 -18.6875Q93.3844921875 -18.283203125 95.08029296875 -17.59814453125Q96.77609375 -16.9130859375 98.21359375 -15.82373046875Q99.65109375 -14.734375 100.53830078125 -13.12841796875Q101.4255078125 -11.5224609375 101.4255078125 -9.25390625Q101.4255078125 -6.423828125 99.965546875 -4.2001953125Q98.5055859375 -1.9765625 95.73166015625 -0.70751953125Q92.957734375 0.5615234375 89.0270703125 0.5615234375Z M111.652421875 0.0V-33.466796875H116.773515625V-19.31640625H133.34968750000002V-33.466796875H138.49324218750002V0.0H133.34968750000002V-14.9140625H116.773515625V0.0Z" fill="#FF6A00"/></svg>