<svg width="512" height="512" viewBox="0 0 512 512" xmlns="http://www.w3.org/2000/svg"><rect width="512" height="512" fill="#0A0A0A"/><polygon points="396.00,256.00 326.00,377.24 186.00,377.24 116.00,256.00 186.00,134.76 326.00,134.76" fill="#FF6A00" stroke="#FF6A00" stroke-width="25.2" stroke-linejoin="round"/><path transform="translate(178.63,313.96)" d="M62.65478515625 1.572265625Q45.98876953125 1.572265625 33.33203125 -5.699462890625Q20.67529296875 -12.97119140625 13.560791015625 -26.4140625Q6.4462890625 -39.85693359375 6.4462890625 -58.3310546875Q6.4462890625 -77.5126953125 13.953857421875 -90.994873046875Q21.46142578125 -104.47705078125 34.078857421875 -111.591552734375Q46.6962890625 -118.7060546875 62.34033203125 -118.7060546875Q72.4814453125 -118.7060546875 81.168212890625 -115.79736328125Q89.85498046875 -112.888671875 96.655029296875 -107.54296875Q103.455078125 -102.197265625 107.660888671875 -94.925537109375Q111.86669921875 -87.65380859375 112.96728515625 -78.927734375H84.90234375Q83.88037109375 -82.5439453125 81.954345703125 -85.413330078125Q80.0283203125 -88.28271484375 77.1982421875 -90.287353515625Q74.3681640625 -92.2919921875 70.791259765625 -93.31396484375Q67.21435546875 -94.3359375 62.81201171875 -94.3359375Q54.32177734375 -94.3359375 47.993408203125 -90.16943359375Q41.6650390625 -86.0029296875 38.245361328125 -78.023681640625Q34.82568359375 -70.04443359375 34.82568359375 -58.72412109375Q34.82568359375 -47.3251953125 38.166748046875 -39.306640625Q41.5078125 -31.2880859375 47.796875 -27.04296875Q54.0859375 -22.7978515625 62.890625 -22.7978515625Q70.83056640625 -22.7978515625 76.294189453125 -25.39208984375Q81.7578125 -27.986328125 84.587890625 -32.821044921875Q87.41796875 -37.65576171875 87.41796875 -44.1806640625L92.68505859375 -43.47314453125H63.9912109375V-63.833984375H114.22509765625V-48.42578125Q114.22509765625 -32.78173828125 107.62158203125 -21.579345703125Q101.01806640625 -10.376953125 89.343994140625 -4.40234375Q77.669921875 1.572265625 62.65478515625 1.572265625Z" fill="#FFFFFF"/><rect x="288.78" y="250.13" width="86.22" height="20.36" rx="10.18" fill="#FFFFFF"/></svg>